<svg width="88" height="16" viewBox="0 0 88 16" fill="none" xmlns="http://www.w3.org/2000/svg">
<path d="M9.33332 0L11.2791 5.52786H17.5758L12.4817 8.94427L14.4275 14.4721L9.33332 11.0557L4.23918 14.4721L6.18497 8.94427L1.09083 5.52786H7.38754L9.33332 0Z" fill="#FFB800"/>
<path d="M44 0L45.9458 5.52786H52.2425L47.1483 8.94427L49.0941 14.4721L44 11.0557L38.9059 14.4721L40.8516 8.94427L35.7575 5.52786H42.0542L44 0Z" fill="#FFB800"/>
<path d="M26.6667 0L28.6124 5.52786H34.9091L29.815 8.94427L31.7608 14.4721L26.6667 11.0557L21.5725 14.4721L23.5183 8.94427L18.4242 5.52786H24.7209L26.6667 0Z" fill="#FFB800"/>
<path d="M61.3333 0L63.2791 5.52786H69.5758L64.4817 8.94427L66.4275 14.4721L61.3333 11.0557L56.2392 14.4721L58.185 8.94427L53.0908 5.52786H59.3875L61.3333 0Z" fill="#FFB800"/>
<path d="M78.6667 0L80.6124 5.52786H86.9091L81.815 8.94427L83.7608 14.4721L78.6667 11.0557L73.5725 14.4721L75.5183 8.94427L70.4242 5.52786H76.7209L78.6667 0Z" fill="#FFB800"/>
</svg>
