<?xml version="1.0" encoding="UTF-8"?>
<!DOCTYPE svg PUBLIC "-//W3C//DTD SVG 1.1//EN" "http://www.w3.org/Graphics/SVG/1.1/DTD/svg11.dtd">
<svg xmlns="http://www.w3.org/2000/svg" version="1.1" width="219px" height="214px" style="shape-rendering:geometricPrecision; text-rendering:geometricPrecision; image-rendering:optimizeQuality; fill-rule:evenodd; clip-rule:evenodd" xmlns:xlink="http://www.w3.org/1999/xlink">
<g><path style="opacity:1" fill="#efeff4" d="M -0.5,-0.5 C 72.5,-0.5 145.5,-0.5 218.5,-0.5C 218.5,20.8333 218.5,42.1667 218.5,63.5C 212.75,62.1256 207.083,60.4589 201.5,58.5C 198.785,56.9281 195.785,55.9281 192.5,55.5C 191.713,53.8958 190.38,53.2291 188.5,53.5C 172.4,46.7301 156.067,40.7301 139.5,35.5C 137.396,34.0883 135.063,33.0883 132.5,32.5C 132.5,30.5 132.5,28.5 132.5,26.5C 132.5,25.5 132.5,24.5 132.5,23.5C 133.978,23.762 135.311,23.4287 136.5,22.5C 135.295,21.0052 135.295,19.6719 136.5,18.5C 140.297,17.9114 140.297,16.9114 136.5,15.5C 134.786,14.2616 132.786,13.595 130.5,13.5C 130.946,10.9899 130.28,8.98989 128.5,7.5C 125.696,6.36216 122.696,6.19549 119.5,7C 117.249,7.74753 115.916,9.24753 115.5,11.5C 115.5,11.8333 115.5,12.1667 115.5,12.5C 114.833,12.8333 114.167,13.1667 113.5,13.5C 112.599,14.2905 111.932,15.2905 111.5,16.5C 108.687,16.0246 106.687,17.0246 105.5,19.5C 103.457,20.5794 102.124,22.246 101.5,24.5C 100.21,25.0577 99.3768,26.0577 99,27.5C 98.1955,30.6965 98.3622,33.6965 99.5,36.5C 101.636,42.143 105.136,46.8096 110,50.5C 110.417,49.244 111.25,48.5774 112.5,48.5C 112.833,49.1667 113.167,49.8333 113.5,50.5C 111.008,54.1509 109.008,58.1509 107.5,62.5C 107.5,62.8333 107.5,63.1667 107.5,63.5C 107.167,63.5 106.833,63.5 106.5,63.5C 106.167,63.5 105.833,63.5 105.5,63.5C 105.5,63.1667 105.5,62.8333 105.5,62.5C 102.363,60.129 98.6961,59.129 94.5,59.5C 88.9163,57.9656 83.0829,57.2989 77,57.5C 71.9919,57.615 67.1585,58.2817 62.5,59.5C 59.2727,59.6761 56.2727,60.3428 53.5,61.5C 53.5,61.8333 53.5,62.1667 53.5,62.5C 51.8008,62.3398 50.1341,62.5065 48.5,63C 46.404,63.7365 44.7373,64.9032 43.5,66.5C 43.5,67.1667 43.1667,67.5 42.5,67.5C 41.1667,67.5 39.8333,67.5 38.5,67.5C 38.7373,68.791 38.404,69.791 37.5,70.5C 36.1667,70.5 34.8333,70.5 33.5,70.5C 33.5,71.5 33.5,72.5 33.5,73.5C 31.901,73.2322 30.5676,73.5655 29.5,74.5C 29.8333,77.5 28.5,78.8333 25.5,78.5C 25.5,79.8333 25.5,81.1667 25.5,82.5C 25.1667,82.5 24.8333,82.5 24.5,82.5C 20.6856,81.9807 18.6856,83.6473 18.5,87.5C 17.2166,90.0104 16.2166,92.6771 15.5,95.5C 14.8501,95.8039 14.1835,96.1373 13.5,96.5C 12.1396,100.413 10.473,104.08 8.5,107.5C 7.88583,113.237 6.88583,118.904 5.5,124.5C 6.30937,126.071 6.64271,127.738 6.5,129.5C 6.5,130.167 6.5,130.833 6.5,131.5C 5.63619,135.305 5.96952,138.971 7.5,142.5C 7.50196,146.827 8.83529,150.493 11.5,153.5C 11.087,156.32 12.087,158.32 14.5,159.5C 14.5,159.833 14.5,160.167 14.5,160.5C 24.4557,180.008 40.1224,192.675 61.5,198.5C 61.9175,199.222 62.5842,199.722 63.5,200C 71.3446,200.822 79.0113,200.656 86.5,199.5C 92.8016,199.453 98.4683,197.786 103.5,194.5C 109.973,192.642 115.973,189.975 121.5,186.5C 121.281,185.325 121.614,184.325 122.5,183.5C 124.16,182.828 125.493,181.828 126.5,180.5C 129.179,180.475 130.512,179.142 130.5,176.5C 133.549,175.606 135.549,173.606 136.5,170.5C 137.404,169.791 137.737,168.791 137.5,167.5C 138.901,167.029 140.234,166.362 141.5,165.5C 141.291,164.914 140.957,164.414 140.5,164C 142.65,161.959 143.65,159.459 143.5,156.5C 145.231,155.015 146.231,153.015 146.5,150.5C 146.077,148.219 146.744,146.552 148.5,145.5C 149.29,144.391 149.79,143.058 150,141.5C 150.186,134.586 150.686,127.753 151.5,121C 150.131,119.281 149.131,117.448 148.5,115.5C 148.66,113.801 148.494,112.134 148,110.5C 147.261,108.111 146.095,106.111 144.5,104.5C 143.985,102.249 142.985,100.249 141.5,98.5C 139.587,93.3738 136.754,88.7072 133,84.5C 132.51,83.2068 132.343,81.8734 132.5,80.5C 129.5,80.8333 128.167,79.5 128.5,76.5C 124.636,74.3172 120.636,72.3172 116.5,70.5C 119.675,65.1536 122.009,59.4869 123.5,53.5C 123.5,52.1667 124.167,51.5 125.5,51.5C 130.664,54.5823 135.664,57.9156 140.5,61.5C 149.557,72.5541 158.224,83.8874 166.5,95.5C 168.147,98.4735 170.147,101.14 172.5,103.5C 172.5,104.167 172.833,104.5 173.5,104.5C 176.084,108.933 178.918,113.266 182,117.5C 183.264,119.607 185.097,120.607 187.5,120.5C 190.162,124.83 192.829,129.164 195.5,133.5C 196.11,135.434 197.11,137.101 198.5,138.5C 199.338,138.842 199.672,139.508 199.5,140.5C 196.609,141.403 193.609,141.736 190.5,141.5C 183.804,141.391 177.137,141.724 170.5,142.5C 170.232,144.099 170.566,145.432 171.5,146.5C 176.31,147.859 181.31,148.859 186.5,149.5C 187.107,149.376 187.44,149.043 187.5,148.5C 191.5,148.5 195.5,148.5 199.5,148.5C 202.771,157.634 209.105,160.634 218.5,157.5C 218.5,176.167 218.5,194.833 218.5,213.5C 145.5,213.5 72.5,213.5 -0.5,213.5C -0.5,142.167 -0.5,70.8333 -0.5,-0.5 Z"/></g>
<g><path style="opacity:1" fill="#bcbec0" d="M 128.5,7.5 C 125.753,7.18665 123.086,7.51998 120.5,8.5C 120.137,9.18346 119.804,9.85013 119.5,10.5C 118.292,11.2341 116.959,11.5674 115.5,11.5C 115.916,9.24753 117.249,7.74753 119.5,7C 122.696,6.19549 125.696,6.36216 128.5,7.5 Z"/></g>
<g><path style="opacity:1" fill="#5f6063" d="M 128.5,7.5 C 130.28,8.98989 130.946,10.9899 130.5,13.5C 132.786,13.595 134.786,14.2616 136.5,15.5C 133.737,15.7964 131.237,16.7964 129,18.5C 128.699,15.4929 128.865,12.4929 129.5,9.5C 127.453,9.48891 125.453,9.15558 123.5,8.5C 122.133,9.22547 120.8,9.89213 119.5,10.5C 119.804,9.85013 120.137,9.18346 120.5,8.5C 123.086,7.51998 125.753,7.18665 128.5,7.5 Z"/></g>
<g><path style="opacity:1" fill="#77787a" d="M 113.5,13.5 C 113.771,15.3797 113.104,16.713 111.5,17.5C 111.5,17.1667 111.5,16.8333 111.5,16.5C 111.932,15.2905 112.599,14.2905 113.5,13.5 Z"/></g>
<g><path style="opacity:1" fill="#2d2d2e" d="M 136.5,15.5 C 136.5,16.5 136.5,17.5 136.5,18.5C 135.295,19.6719 135.295,21.0052 136.5,22.5C 135.311,23.4287 133.978,23.762 132.5,23.5C 132.5,24.5 132.5,25.5 132.5,26.5C 131.223,28.914 129.557,29.0807 127.5,27C 126.748,26.3292 126.414,25.4959 126.5,24.5C 127.167,24.5 127.5,24.1667 127.5,23.5C 128.434,22.4324 128.768,21.099 128.5,19.5C 126.801,19.3398 125.134,19.5065 123.5,20C 122.402,20.7697 122.402,21.603 123.5,22.5C 121.194,24.8563 118.861,24.8563 116.5,22.5C 116.5,20.8333 116.5,19.1667 116.5,17.5C 114.8,17.6261 113.3,18.2927 112,19.5C 110.97,19.1639 110.47,18.4972 110.5,17.5C 110.833,17.5 111.167,17.5 111.5,17.5C 113.104,16.713 113.771,15.3797 113.5,13.5C 114.167,13.1667 114.833,12.8333 115.5,12.5C 115.5,12.1667 115.5,11.8333 115.5,11.5C 116.959,11.5674 118.292,11.2341 119.5,10.5C 120.8,9.89213 122.133,9.22547 123.5,8.5C 125.453,9.15558 127.453,9.48891 129.5,9.5C 128.865,12.4929 128.699,15.4929 129,18.5C 131.237,16.7964 133.737,15.7964 136.5,15.5 Z"/></g>
<g><path style="opacity:1" fill="#161817" d="M 115.5,12.5 C 120.909,10.1105 123.409,11.7771 123,17.5C 121.414,18.376 119.914,19.376 118.5,20.5C 116.917,18.01 115.917,15.3433 115.5,12.5 Z"/></g>
<g><path style="opacity:1" fill="#97989d" d="M 136.5,15.5 C 140.297,16.9114 140.297,17.9114 136.5,18.5C 136.5,17.5 136.5,16.5 136.5,15.5 Z"/></g>
<g><path style="opacity:1" fill="#bfc0c4" d="M 111.5,16.5 C 111.5,16.8333 111.5,17.1667 111.5,17.5C 111.167,17.5 110.833,17.5 110.5,17.5C 109.596,18.209 109.263,19.209 109.5,20.5C 110.5,20.5 111.5,20.5 112.5,20.5C 112.5,21.8333 112.5,23.1667 112.5,24.5C 111.842,23.6016 111.176,22.6016 110.5,21.5C 108.929,22.3094 107.262,22.6427 105.5,22.5C 109.361,21.5413 109.361,20.5413 105.5,19.5C 106.687,17.0246 108.687,16.0246 111.5,16.5 Z"/></g>
<g><path style="opacity:1" fill="#7d7f80" d="M 127.5,23.5 C 126.789,21.1582 125.456,20.8249 123.5,22.5C 122.402,21.603 122.402,20.7697 123.5,20C 125.134,19.5065 126.801,19.3398 128.5,19.5C 128.768,21.099 128.434,22.4324 127.5,23.5 Z"/></g>
<g><path style="opacity:1" fill="#828486" d="M 110.5,17.5 C 110.47,18.4972 110.97,19.1639 112,19.5C 113.3,18.2927 114.8,17.6261 116.5,17.5C 116.5,19.1667 116.5,20.8333 116.5,22.5C 114.938,22.7329 113.605,23.3995 112.5,24.5C 112.5,23.1667 112.5,21.8333 112.5,20.5C 111.5,20.5 110.5,20.5 109.5,20.5C 109.263,19.209 109.596,18.209 110.5,17.5 Z"/></g>
<g><path style="opacity:1" fill="#ececf1" d="M 112.5,24.5 C 113.605,23.3995 114.938,22.7329 116.5,22.5C 118.861,24.8563 121.194,24.8563 123.5,22.5C 125.456,20.8249 126.789,21.1582 127.5,23.5C 127.5,24.1667 127.167,24.5 126.5,24.5C 126.167,24.5 125.833,24.5 125.5,24.5C 124.508,26.4561 123.508,28.4561 122.5,30.5C 121.89,31.391 121.557,32.391 121.5,33.5C 120.546,36.706 119.213,39.706 117.5,42.5C 116.288,43.2299 115.288,44.2299 114.5,45.5C 111.248,44.2391 108.248,42.5725 105.5,40.5C 105.167,40.5 104.833,40.5 104.5,40.5C 103.692,37.0414 103.025,33.5414 102.5,30C 102.106,26.8318 103.106,24.3318 105.5,22.5C 107.262,22.6427 108.929,22.3094 110.5,21.5C 111.176,22.6016 111.842,23.6016 112.5,24.5 Z"/></g>
<g><path style="opacity:1" fill="#deb4bb" d="M 125.5,24.5 C 125.975,27.3126 124.975,29.3126 122.5,30.5C 123.508,28.4561 124.508,26.4561 125.5,24.5 Z"/></g>
<g><path style="opacity:1" fill="#d47c7e" d="M 125.5,24.5 C 125.833,24.5 126.167,24.5 126.5,24.5C 126.414,25.4959 126.748,26.3292 127.5,27C 129.557,29.0807 131.223,28.914 132.5,26.5C 132.5,28.5 132.5,30.5 132.5,32.5C 135.063,33.0883 137.396,34.0883 139.5,35.5C 137.833,35.5 136.167,35.5 134.5,35.5C 133.713,33.8958 132.38,33.2291 130.5,33.5C 129.766,32.2921 129.433,30.9587 129.5,29.5C 128.127,29.3433 126.793,29.51 125.5,30C 124.295,31.3756 122.962,32.5423 121.5,33.5C 121.557,32.391 121.89,31.391 122.5,30.5C 124.975,29.3126 125.975,27.3126 125.5,24.5 Z"/></g>
<g><path style="opacity:1" fill="#babbbd" d="M 101.5,24.5 C 101.048,28.5457 100.381,32.5457 99.5,36.5C 98.3622,33.6965 98.1955,30.6965 99,27.5C 99.3768,26.0577 100.21,25.0577 101.5,24.5 Z"/></g>
<g><path style="opacity:1" fill="#828386" d="M 105.5,19.5 C 109.361,20.5413 109.361,21.5413 105.5,22.5C 103.106,24.3318 102.106,26.8318 102.5,30C 103.025,33.5414 103.692,37.0414 104.5,40.5C 104.833,40.5 105.167,40.5 105.5,40.5C 106.465,44.4596 108.799,47.1263 112.5,48.5C 111.25,48.5774 110.417,49.244 110,50.5C 105.136,46.8096 101.636,42.143 99.5,36.5C 100.381,32.5457 101.048,28.5457 101.5,24.5C 102.124,22.246 103.457,20.5794 105.5,19.5 Z"/></g>
<g><path style="opacity:1" fill="#c9cbce" d="M 104.5,40.5 C 104.607,42.3786 104.107,42.7119 103,41.5C 101.813,39.9556 101.48,38.2889 102,36.5C 102.608,38.0664 103.442,39.3998 104.5,40.5 Z"/></g>
<g><path style="opacity:1" fill="#f64f50" d="M 130.5,33.5 C 132.38,33.2291 133.713,33.8958 134.5,35.5C 125.648,35.5789 125.315,36.7455 133.5,39C 134.71,40.0391 135.71,41.2058 136.5,42.5C 134.804,42.3146 133.471,41.4813 132.5,40C 131.167,39.3333 129.833,39.3333 128.5,40C 130.24,41.517 131.906,43.017 133.5,44.5C 133.167,44.5 132.833,44.5 132.5,44.5C 128.922,44.5488 125.589,45.2154 122.5,46.5C 120.694,45.9759 119.028,45.3092 117.5,44.5C 117.5,43.8333 117.5,43.1667 117.5,42.5C 119.312,41.6518 120.812,41.6518 122,42.5C 122.638,41.3914 123.138,40.2247 123.5,39C 122.833,38.3333 122.167,37.6667 121.5,37C 121.759,35.7387 122.426,34.7387 123.5,34C 125.81,33.5034 128.143,33.3367 130.5,33.5 Z"/></g>
<g><path style="opacity:1" fill="#f42829" d="M 134.5,35.5 C 137.338,36.9488 140.172,38.6154 143,40.5C 143.167,40.8333 143.333,41.1667 143.5,41.5C 142.398,42.1757 141.398,42.8423 140.5,43.5C 139.041,43.5674 137.708,43.2341 136.5,42.5C 135.71,41.2058 134.71,40.0391 133.5,39C 125.315,36.7455 125.648,35.5789 134.5,35.5 Z"/></g>
<g><path style="opacity:1" fill="#f46968" d="M 130.5,33.5 C 128.143,33.3367 125.81,33.5034 123.5,34C 122.426,34.7387 121.759,35.7387 121.5,37C 122.167,37.6667 122.833,38.3333 123.5,39C 123.138,40.2247 122.638,41.3914 122,42.5C 120.812,41.6518 119.312,41.6518 117.5,42.5C 119.213,39.706 120.546,36.706 121.5,33.5C 122.962,32.5423 124.295,31.3756 125.5,30C 126.793,29.51 128.127,29.3433 129.5,29.5C 129.433,30.9587 129.766,32.2921 130.5,33.5 Z"/></g>
<g><path style="opacity:1" fill="#fca69e" d="M 136.5,42.5 C 136.179,44.0481 135.179,44.7148 133.5,44.5C 131.906,43.017 130.24,41.517 128.5,40C 129.833,39.3333 131.167,39.3333 132.5,40C 133.471,41.4813 134.804,42.3146 136.5,42.5 Z"/></g>
<g><path style="opacity:1" fill="#b5a7aa" d="M 105.5,40.5 C 108.248,42.5725 111.248,44.2391 114.5,45.5C 115.288,44.2299 116.288,43.2299 117.5,42.5C 117.5,43.1667 117.5,43.8333 117.5,44.5C 116.662,44.8417 116.328,45.5084 116.5,46.5C 114.824,47.1834 114.157,48.5168 114.5,50.5C 114.167,50.5 113.833,50.5 113.5,50.5C 113.167,49.8333 112.833,49.1667 112.5,48.5C 108.799,47.1263 106.465,44.4596 105.5,40.5 Z"/></g>
<g><path style="opacity:1" fill="#f15050" d="M 134.5,35.5 C 136.167,35.5 137.833,35.5 139.5,35.5C 141.684,37.5848 144.351,38.5848 147.5,38.5C 147.5,39.5 147.5,40.5 147.5,41.5C 151.112,40.9238 154.112,41.9238 156.5,44.5C 158.974,46.2399 161.641,47.7399 164.5,49C 162.203,49.0178 159.869,48.8511 157.5,48.5C 156.5,48.5 155.5,48.5 154.5,48.5C 150.12,46.3233 145.454,44.6567 140.5,43.5C 141.398,42.8423 142.398,42.1757 143.5,41.5C 143.333,41.1667 143.167,40.8333 143,40.5C 140.172,38.6154 137.338,36.9488 134.5,35.5 Z"/></g>
<g><path style="opacity:1" fill="#c4504f" d="M 136.5,42.5 C 137.708,43.2341 139.041,43.5674 140.5,43.5C 140.414,44.4959 140.748,45.3292 141.5,46C 140.167,46.3333 138.833,46.6667 137.5,47C 138.381,47.7083 139.047,48.5416 139.5,49.5C 137.5,49.5 136.5,48.5 136.5,46.5C 135.167,45.8333 133.833,45.1667 132.5,44.5C 132.833,44.5 133.167,44.5 133.5,44.5C 135.179,44.7148 136.179,44.0481 136.5,42.5 Z"/></g>
<g><path style="opacity:1" fill="#ee7c7f" d="M 139.5,35.5 C 156.067,40.7301 172.4,46.7301 188.5,53.5C 188.741,55.8984 188.074,57.8984 186.5,59.5C 182.114,59.0342 178.114,57.7009 174.5,55.5C 176.848,55.6695 179.182,56.0029 181.5,56.5C 182.5,56.1667 183.5,55.8333 184.5,55.5C 184.291,54.914 183.957,54.414 183.5,54C 174.216,51.3441 165.216,48.1774 156.5,44.5C 154.112,41.9238 151.112,40.9238 147.5,41.5C 147.5,40.5 147.5,39.5 147.5,38.5C 144.351,38.5848 141.684,37.5848 139.5,35.5 Z"/></g>
<g><path style="opacity:1" fill="#bd221f" d="M 132.5,44.5 C 133.833,45.1667 135.167,45.8333 136.5,46.5C 133.497,47.17 132.83,48.8367 134.5,51.5C 131.607,49.886 128.607,48.5527 125.5,47.5C 124.031,50.1001 123.031,49.7668 122.5,46.5C 125.589,45.2154 128.922,44.5488 132.5,44.5 Z"/></g>
<g><path style="opacity:1" fill="#e28f8f" d="M 140.5,43.5 C 145.454,44.6567 150.12,46.3233 154.5,48.5C 151.085,48.7388 147.919,48.0722 145,46.5C 144.167,46.6667 143.333,46.8333 142.5,47C 143.381,47.7083 144.047,48.5416 144.5,49.5C 142.766,50.562 141.099,50.562 139.5,49.5C 139.047,48.5416 138.381,47.7083 137.5,47C 138.833,46.6667 140.167,46.3333 141.5,46C 140.748,45.3292 140.414,44.4959 140.5,43.5 Z"/></g>
<g><path style="opacity:1" fill="#a03a3a" d="M 116.5,46.5 C 117.589,48.1171 119.256,48.9504 121.5,49C 120.584,49.2784 119.918,49.7784 119.5,50.5C 117.833,50.5 116.167,50.5 114.5,50.5C 114.157,48.5168 114.824,47.1834 116.5,46.5 Z"/></g>
<g><path style="opacity:1" fill="#b3312c" d="M 117.5,44.5 C 119.028,45.3092 120.694,45.9759 122.5,46.5C 123.031,49.7668 124.031,50.1001 125.5,47.5C 125.5,48.5 125.5,49.5 125.5,50.5C 125.5,50.8333 125.5,51.1667 125.5,51.5C 124.167,51.5 123.5,52.1667 123.5,53.5C 122.167,52.5 120.833,51.5 119.5,50.5C 119.918,49.7784 120.584,49.2784 121.5,49C 119.256,48.9504 117.589,48.1171 116.5,46.5C 116.328,45.5084 116.662,44.8417 117.5,44.5 Z"/></g>
<g><path style="opacity:1" fill="#f45c5d" d="M 156.5,44.5 C 165.216,48.1774 174.216,51.3441 183.5,54C 183.957,54.414 184.291,54.914 184.5,55.5C 183.5,55.8333 182.5,56.1667 181.5,56.5C 179.182,56.0029 176.848,55.6695 174.5,55.5C 172.883,54.962 171.216,54.6287 169.5,54.5C 165.31,53.0013 161.31,51.0013 157.5,48.5C 159.869,48.8511 162.203,49.0178 164.5,49C 161.641,47.7399 158.974,46.2399 156.5,44.5 Z"/></g>
<g><path style="opacity:1" fill="#f6d6d8" d="M 154.5,48.5 C 155.5,48.5 156.5,48.5 157.5,48.5C 161.31,51.0013 165.31,53.0013 169.5,54.5C 161.96,52.5602 154.46,50.5602 147,48.5C 146.833,49 146.667,49.5 146.5,50C 148.722,51.6079 150.055,53.7745 150.5,56.5C 148.419,54.1534 146.419,51.8201 144.5,49.5C 144.047,48.5416 143.381,47.7083 142.5,47C 143.333,46.8333 144.167,46.6667 145,46.5C 147.919,48.0722 151.085,48.7388 154.5,48.5 Z"/></g>
<g><path style="opacity:1" fill="#f3dcdd" d="M 125.5,47.5 C 128.607,48.5527 131.607,49.886 134.5,51.5C 136.909,53.9024 138.909,56.5691 140.5,59.5C 135.779,56.1295 130.779,53.1295 125.5,50.5C 125.5,49.5 125.5,48.5 125.5,47.5 Z"/></g>
<g><path style="opacity:1" fill="#f4787b" d="M 113.5,50.5 C 113.833,50.5 114.167,50.5 114.5,50.5C 116.167,50.5 117.833,50.5 119.5,50.5C 118.099,53.8118 116.599,57.1452 115,60.5C 113.594,61.6682 112.428,61.3348 111.5,59.5C 110.358,60.8262 109.024,61.8262 107.5,62.5C 109.008,58.1509 111.008,54.1509 113.5,50.5 Z"/></g>
<g><path style="opacity:1" fill="#a5a0a3" d="M 125.5,50.5 C 130.779,53.1295 135.779,56.1295 140.5,59.5C 140.5,60.1667 140.5,60.8333 140.5,61.5C 135.664,57.9156 130.664,54.5823 125.5,51.5C 125.5,51.1667 125.5,50.8333 125.5,50.5 Z"/></g>
<g><path style="opacity:1" fill="#eeeff5" d="M 169.5,54.5 C 171.216,54.6287 172.883,54.962 174.5,55.5C 178.114,57.7009 182.114,59.0342 186.5,59.5C 187.93,60.5375 189.597,61.2041 191.5,61.5C 192.514,62.6737 193.847,63.3404 195.5,63.5C 203.077,66.4564 210.743,69.123 218.5,71.5C 218.5,86.5 218.5,101.5 218.5,116.5C 217.5,116.5 216.5,116.5 215.5,116.5C 215.606,119.079 214.939,121.412 213.5,123.5C 212.469,125.961 211.802,128.627 211.5,131.5C 210.5,131.5 209.5,131.5 208.5,131.5C 207.761,131.631 207.094,131.464 206.5,131C 204.97,128.648 203.303,126.481 201.5,124.5C 196.704,115.918 190.704,108.252 183.5,101.5C 182.567,98.6298 180.9,96.2964 178.5,94.5C 178.068,93.2905 177.401,92.2905 176.5,91.5C 175.974,89.7697 174.974,88.4363 173.5,87.5C 173.167,86.5 172.5,85.8333 171.5,85.5C 169.251,81.402 166.751,77.402 164,73.5C 162.961,72.2899 161.794,71.2899 160.5,70.5C 159.92,68.2512 158.587,66.5846 156.5,65.5C 154.226,62.7564 152.226,59.7564 150.5,56.5C 150.055,53.7745 148.722,51.6079 146.5,50C 146.667,49.5 146.833,49 147,48.5C 154.46,50.5602 161.96,52.5602 169.5,54.5 Z"/></g>
<g><path style="opacity:1" fill="#85868a" d="M 94.5,59.5 C 98.6961,59.129 102.363,60.129 105.5,62.5C 101.643,61.9264 97.9762,60.9264 94.5,59.5 Z"/></g>
<g><path style="opacity:1" fill="#ba9cac" d="M 188.5,53.5 C 190.38,53.2291 191.713,53.8958 192.5,55.5C 192.483,57.5648 192.15,59.5648 191.5,61.5C 189.597,61.2041 187.93,60.5375 186.5,59.5C 188.074,57.8984 188.741,55.8984 188.5,53.5 Z"/></g>
<g><path style="opacity:1" fill="#353639" d="M 94.5,59.5 C 97.9762,60.9264 101.643,61.9264 105.5,62.5C 105.5,62.8333 105.5,63.1667 105.5,63.5C 103.361,66.0568 101.527,68.3901 100,70.5C 96.9626,69.0868 93.7959,67.9202 90.5,67C 83.5079,66.5004 76.5079,66.3337 69.5,66.5C 75.5089,65.7324 81.6755,65.0657 88,64.5C 105.801,67.3407 105.968,66.5074 88.5,62C 80.4854,61.3428 72.4854,61.5095 64.5,62.5C 62.8333,62.1667 61.1667,61.8333 59.5,61.5C 60.6016,60.8243 61.6016,60.1577 62.5,59.5C 67.1585,58.2817 71.9919,57.615 77,57.5C 83.0829,57.2989 88.9163,57.9656 94.5,59.5 Z"/></g>
<g><path style="opacity:1" fill="#99b9c9" d="M 192.5,55.5 C 195.785,55.9281 198.785,56.9281 201.5,58.5C 199.5,58.5 197.5,58.5 195.5,58.5C 195.5,60.1667 195.5,61.8333 195.5,63.5C 193.847,63.3404 192.514,62.6737 191.5,61.5C 192.15,59.5648 192.483,57.5648 192.5,55.5 Z"/></g>
<g><path style="opacity:1" fill="#404143" d="M 62.5,59.5 C 61.6016,60.1577 60.6016,60.8243 59.5,61.5C 61.1667,61.8333 62.8333,62.1667 64.5,62.5C 72.4854,61.5095 80.4854,61.3428 88.5,62C 105.968,66.5074 105.801,67.3407 88,64.5C 81.6755,65.0657 75.5089,65.7324 69.5,66.5C 67.8333,66.5 66.1667,66.5 64.5,66.5C 60.9893,65.5699 57.4893,65.9033 54,67.5C 53.5,67.1667 53,66.8333 52.5,66.5C 54.5,65.5 56.5,64.5 58.5,63.5C 56.9783,62.438 55.3117,61.7713 53.5,61.5C 56.2727,60.3428 59.2727,59.6761 62.5,59.5 Z"/></g>
<g><path style="opacity:1" fill="#f14745" d="M 136.5,46.5 C 136.5,48.5 137.5,49.5 139.5,49.5C 139.5,50.5 139.5,51.5 139.5,52.5C 143.332,53.6547 146.332,55.988 148.5,59.5C 148.579,61.6663 149.246,63.6663 150.5,65.5C 150.253,66.7133 149.586,67.38 148.5,67.5C 146.33,66.1618 144.664,64.3284 143.5,62C 142.552,61.5172 141.552,61.3505 140.5,61.5C 140.5,60.8333 140.5,60.1667 140.5,59.5C 138.909,56.5691 136.909,53.9024 134.5,51.5C 132.83,48.8367 133.497,47.17 136.5,46.5 Z"/></g>
<g><path style="opacity:1" fill="#f77276" d="M 139.5,49.5 C 141.099,50.562 142.766,50.562 144.5,49.5C 146.419,51.8201 148.419,54.1534 150.5,56.5C 152.226,59.7564 154.226,62.7564 156.5,65.5C 156.5,66.1667 156.5,66.8333 156.5,67.5C 155.761,67.631 155.094,67.4643 154.5,67C 152.615,64.3294 150.615,61.8294 148.5,59.5C 146.332,55.988 143.332,53.6547 139.5,52.5C 139.5,51.5 139.5,50.5 139.5,49.5 Z"/></g>
<g><path style="opacity:1" fill="#6e6e73" d="M 53.5,62.5 C 50.691,64.8966 47.3576,66.2299 43.5,66.5C 44.7373,64.9032 46.404,63.7365 48.5,63C 50.1341,62.5065 51.8008,62.3398 53.5,62.5 Z"/></g>
<g><path style="opacity:1" fill="#f85e5f" d="M 119.5,50.5 C 120.833,51.5 122.167,52.5 123.5,53.5C 122.009,59.4869 119.675,65.1536 116.5,70.5C 114.926,71.9842 113.593,73.6508 112.5,75.5C 111.5,75.5 110.5,75.5 109.5,75.5C 109.5,76.8333 109.5,78.1667 109.5,79.5C 107.167,79.5 104.833,79.5 102.5,79.5C 105.115,74.5179 106.782,69.1846 107.5,63.5C 107.5,63.1667 107.5,62.8333 107.5,62.5C 109.024,61.8262 110.358,60.8262 111.5,59.5C 112.428,61.3348 113.594,61.6682 115,60.5C 116.599,57.1452 118.099,53.8118 119.5,50.5 Z"/></g>
<g><path style="opacity:1" fill="#77cfe5" d="M 201.5,58.5 C 207.083,60.4589 212.75,62.1256 218.5,63.5C 218.5,66.1667 218.5,68.8333 218.5,71.5C 210.743,69.123 203.077,66.4564 195.5,63.5C 195.5,61.8333 195.5,60.1667 195.5,58.5C 197.5,58.5 199.5,58.5 201.5,58.5 Z"/></g>
<g><path style="opacity:1" fill="#636267" d="M 42.5,67.5 C 41.1274,69.2065 39.4607,70.5398 37.5,71.5C 37.5,71.1667 37.5,70.8333 37.5,70.5C 38.404,69.791 38.7373,68.791 38.5,67.5C 39.8333,67.5 41.1667,67.5 42.5,67.5 Z"/></g>
<g><path style="opacity:1" fill="#f29da3" d="M 156.5,65.5 C 158.587,66.5846 159.92,68.2512 160.5,70.5C 159.167,69.5 157.833,68.5 156.5,67.5C 156.5,66.8333 156.5,66.1667 156.5,65.5 Z"/></g>
<g><path style="opacity:1" fill="#b4b5ba" d="M 37.5,70.5 C 37.5,70.8333 37.5,71.1667 37.5,71.5C 36.5,71.5 35.5,71.5 34.5,71.5C 34.5,72.5 34.5,73.5 34.5,74.5C 32.8333,74.5 31.1667,74.5 29.5,74.5C 30.5676,73.5655 31.901,73.2322 33.5,73.5C 33.5,72.5 33.5,71.5 33.5,70.5C 34.8333,70.5 36.1667,70.5 37.5,70.5 Z"/></g>
<g><path style="opacity:1" fill="#2d2d31" d="M 53.5,61.5 C 55.3117,61.7713 56.9783,62.438 58.5,63.5C 56.5,64.5 54.5,65.5 52.5,66.5C 53,66.8333 53.5,67.1667 54,67.5C 57.4893,65.9033 60.9893,65.5699 64.5,66.5C 58.5529,68.5083 52.5529,70.8417 46.5,73.5C 42.5216,76.4715 38.5216,79.4715 34.5,82.5C 32.3159,83.1081 30.3159,82.4414 28.5,80.5C 27.4822,81.1925 26.4822,81.8592 25.5,82.5C 25.5,81.1667 25.5,79.8333 25.5,78.5C 28.5,78.8333 29.8333,77.5 29.5,74.5C 31.1667,74.5 32.8333,74.5 34.5,74.5C 34.5,73.5 34.5,72.5 34.5,71.5C 35.5,71.5 36.5,71.5 37.5,71.5C 39.4607,70.5398 41.1274,69.2065 42.5,67.5C 43.1667,67.5 43.5,67.1667 43.5,66.5C 47.3576,66.2299 50.691,64.8966 53.5,62.5C 53.5,62.1667 53.5,61.8333 53.5,61.5 Z"/></g>
<g><path style="opacity:1" fill="#f2898c" d="M 160.5,70.5 C 161.794,71.2899 162.961,72.2899 164,73.5C 166.751,77.402 169.251,81.402 171.5,85.5C 169.825,83.998 167.992,82.6647 166,81.5C 165.225,78.5034 163.559,76.17 161,74.5C 160.51,73.2068 160.343,71.8734 160.5,70.5 Z"/></g>
<g><path style="opacity:1" fill="#232326" d="M 105.5,63.5 C 105.833,63.5 106.167,63.5 106.5,63.5C 104.575,67.6926 102.908,72.0259 101.5,76.5C 100.1,77.0998 99.1001,78.0998 98.5,79.5C 96.5648,78.8505 94.5648,78.5172 92.5,78.5C 87.898,76.1338 82.898,75.1338 77.5,75.5C 73.2227,75.3367 69.2227,76.0033 65.5,77.5C 62.8478,77.4095 60.5145,78.0762 58.5,79.5C 56.0326,79.7549 54.0326,80.7549 52.5,82.5C 52.1667,82.5 51.8333,82.5 51.5,82.5C 49.2512,83.0798 47.5846,84.4131 46.5,86.5C 40.4497,90.2166 35.7831,95.2166 32.5,101.5C 30.7497,102.659 29.7497,104.326 29.5,106.5C 28.7972,108.629 27.7972,110.629 26.5,112.5C 26.6641,109.813 26.4974,107.146 26,104.5C 24.3178,107.864 22.6511,111.198 21,114.5C 19.6802,112.183 18.0136,110.183 16,108.5C 15.1779,110.788 14.5112,113.122 14,115.5C 13.2496,116.126 12.4162,116.626 11.5,117C 12.841,120.262 12.5076,120.762 10.5,118.5C 10.1667,119.833 9.83333,121.167 9.5,122.5C 8.73229,127.781 8.73229,133.448 9.5,139.5C 8.08184,136.98 7.08184,134.313 6.5,131.5C 6.5,130.833 6.5,130.167 6.5,129.5C 7.84118,122.143 9.50785,114.809 11.5,107.5C 11.4679,104.924 12.1346,102.591 13.5,100.5C 16.157,99.7402 17.157,98.2402 16.5,96C 19.4789,94.3884 20.8122,91.8884 20.5,88.5C 21.5,88.5 22.5,88.5 23.5,88.5C 23.6138,86.2821 24.2804,84.2821 25.5,82.5C 26.4822,81.8592 27.4822,81.1925 28.5,80.5C 30.3159,82.4414 32.3159,83.1081 34.5,82.5C 38.5216,79.4715 42.5216,76.4715 46.5,73.5C 52.5529,70.8417 58.5529,68.5083 64.5,66.5C 66.1667,66.5 67.8333,66.5 69.5,66.5C 76.5079,66.3337 83.5079,66.5004 90.5,67C 93.7959,67.9202 96.9626,69.0868 100,70.5C 101.527,68.3901 103.361,66.0568 105.5,63.5 Z"/></g>
<g><path style="opacity:1" fill="#b0b1b5" d="M 92.5,78.5 C 83.5243,77.6917 74.5243,77.3584 65.5,77.5C 69.2227,76.0033 73.2227,75.3367 77.5,75.5C 82.898,75.1338 87.898,76.1338 92.5,78.5 Z"/></g>
<g><path style="opacity:1" fill="#f7524d" d="M 160.5,84.5 C 159.167,82.5 157.833,80.5 156.5,78.5C 156.167,76.5 155.833,74.5 155.5,72.5C 156.5,72.5 157.5,72.5 158.5,72.5C 158.238,73.9778 158.571,75.3112 159.5,76.5C 162.219,78.2193 164.219,80.5526 165.5,83.5C 164.286,85.7542 162.619,86.0875 160.5,84.5 Z"/></g>
<g><path style="opacity:1" fill="#a7a8ab" d="M 65.5,77.5 C 63.4855,78.9238 61.1522,79.5905 58.5,79.5C 60.5145,78.0762 62.8478,77.4095 65.5,77.5 Z"/></g>
<g><path style="opacity:1" fill="#e16267" d="M 106.5,63.5 C 106.833,63.5 107.167,63.5 107.5,63.5C 106.782,69.1846 105.115,74.5179 102.5,79.5C 104.833,79.5 107.167,79.5 109.5,79.5C 109.5,78.1667 109.5,76.8333 109.5,75.5C 110.5,75.5 111.5,75.5 112.5,75.5C 111.532,78.1003 110.199,80.4336 108.5,82.5C 106.167,82.5 103.833,82.5 101.5,82.5C 101.5,80.5 101.5,78.5 101.5,76.5C 102.908,72.0259 104.575,67.6926 106.5,63.5 Z"/></g>
<g><path style="opacity:1" fill="#999a9e" d="M 58.5,79.5 C 56.9674,81.2451 54.9674,82.2451 52.5,82.5C 54.0326,80.7549 56.0326,79.7549 58.5,79.5 Z"/></g>
<g><path style="opacity:1" fill="#471c1b" d="M 116.5,70.5 C 116.634,72.2915 116.301,73.9582 115.5,75.5C 113.898,79.0954 111.898,82.4288 109.5,85.5C 109.167,85.5 108.833,85.5 108.5,85.5C 108.5,84.5 108.5,83.5 108.5,82.5C 110.199,80.4336 111.532,78.1003 112.5,75.5C 113.593,73.6508 114.926,71.9842 116.5,70.5 Z"/></g>
<g><path style="opacity:1" fill="#c76e75" d="M 101.5,76.5 C 101.5,78.5 101.5,80.5 101.5,82.5C 103.833,82.5 106.167,82.5 108.5,82.5C 108.5,83.5 108.5,84.5 108.5,85.5C 105.753,85.8134 103.086,85.48 100.5,84.5C 100.006,82.9745 99.339,81.6412 98.5,80.5C 98.5,80.1667 98.5,79.8333 98.5,79.5C 99.1001,78.0998 100.1,77.0998 101.5,76.5 Z"/></g>
<g><path style="opacity:1" fill="#bbbcc1" d="M 24.5,82.5 C 23.2225,83.7495 22.2225,85.2495 21.5,87C 20.552,87.4828 19.552,87.6495 18.5,87.5C 18.6856,83.6473 20.6856,81.9807 24.5,82.5 Z"/></g>
<g><path style="opacity:1" fill="#303236" d="M 116.5,70.5 C 120.636,72.3172 124.636,74.3172 128.5,76.5C 128.167,79.5 129.5,80.8333 132.5,80.5C 132.343,81.8734 132.51,83.2068 133,84.5C 136.754,88.7072 139.587,93.3738 141.5,98.5C 140.596,97.791 140.263,96.791 140.5,95.5C 139.5,95.5 138.5,95.5 137.5,95.5C 137.762,94.0222 137.429,92.6888 136.5,91.5C 134.681,93.1282 133.347,95.1282 132.5,97.5C 132.167,97.3333 131.833,97.1667 131.5,97C 130.392,94.3887 129.059,91.8887 127.5,89.5C 123.972,87.4502 120.639,85.1168 117.5,82.5C 116.832,80.0312 116.165,77.6979 115.5,75.5C 116.301,73.9582 116.634,72.2915 116.5,70.5 Z"/></g>
<g><path style="opacity:1" fill="#bc9795" d="M 140.5,61.5 C 141.552,61.3505 142.552,61.5172 143.5,62C 144.664,64.3284 146.33,66.1618 148.5,67.5C 151.174,71.1719 153.84,74.8386 156.5,78.5C 157.833,80.5 159.167,82.5 160.5,84.5C 161.833,86.1667 163.167,87.8333 164.5,89.5C 165.898,91.8989 167.898,93.5656 170.5,94.5C 174.406,93.4532 175.406,91.1199 173.5,87.5C 174.974,88.4363 175.974,89.7697 176.5,91.5C 175.972,92.7206 175.305,93.8873 174.5,95C 171.854,95.4974 169.187,95.6641 166.5,95.5C 158.224,83.8874 149.557,72.5541 140.5,61.5 Z"/></g>
<g><path style="opacity:1" fill="#f46361" d="M 148.5,59.5 C 150.615,61.8294 152.615,64.3294 154.5,67C 155.094,67.4643 155.761,67.631 156.5,67.5C 157.833,68.5 159.167,69.5 160.5,70.5C 160.343,71.8734 160.51,73.2068 161,74.5C 163.559,76.17 165.225,78.5034 166,81.5C 167.992,82.6647 169.825,83.998 171.5,85.5C 172.15,87.4352 172.483,89.4352 172.5,91.5C 169.673,91.4162 167.006,90.7496 164.5,89.5C 163.167,87.8333 161.833,86.1667 160.5,84.5C 162.619,86.0875 164.286,85.7542 165.5,83.5C 164.219,80.5526 162.219,78.2193 159.5,76.5C 158.571,75.3112 158.238,73.9778 158.5,72.5C 157.5,72.5 156.5,72.5 155.5,72.5C 155.833,74.5 156.167,76.5 156.5,78.5C 153.84,74.8386 151.174,71.1719 148.5,67.5C 149.586,67.38 150.253,66.7133 150.5,65.5C 149.246,63.6663 148.579,61.6663 148.5,59.5 Z"/></g>
<g><path style="opacity:1" fill="#a5a6aa" d="M 51.5,82.5 C 50.4154,84.5869 48.7488,85.9202 46.5,86.5C 47.5846,84.4131 49.2512,83.0798 51.5,82.5 Z"/></g>
<g><path style="opacity:1" fill="#b49ba4" d="M 98.5,80.5 C 99.339,81.6412 100.006,82.9745 100.5,84.5C 103.086,85.48 105.753,85.8134 108.5,85.5C 108.833,85.5 109.167,85.5 109.5,85.5C 109.5,85.8333 109.5,86.1667 109.5,86.5C 107.381,86.4677 106.048,87.4677 105.5,89.5C 102.57,88.701 99.5701,88.3677 96.5,88.5C 97.3705,85.8877 98.0372,83.221 98.5,80.5 Z"/></g>
<g><path style="opacity:1" fill="#92b1c2" d="M 96.5,88.5 C 99.5701,88.3677 102.57,88.701 105.5,89.5C 104.066,92.0472 102.4,94.3805 100.5,96.5C 98.1402,95.135 96.4735,93.135 95.5,90.5C 95.3284,89.5084 95.6618,88.8417 96.5,88.5 Z"/></g>
<g><path style="opacity:1" fill="#d07b80" d="M 171.5,85.5 C 172.5,85.8333 173.167,86.5 173.5,87.5C 175.406,91.1199 174.406,93.4532 170.5,94.5C 167.898,93.5656 165.898,91.8989 164.5,89.5C 167.006,90.7496 169.673,91.4162 172.5,91.5C 172.483,89.4352 172.15,87.4352 171.5,85.5 Z"/></g>
<g><path style="opacity:1" fill="#727378" d="M 15.5,95.5 C 14.4975,97.0109 13.8308,98.6776 13.5,100.5C 12.1346,102.591 11.4679,104.924 11.5,107.5C 10.5,107.5 9.5,107.5 8.5,107.5C 10.473,104.08 12.1396,100.413 13.5,96.5C 14.1835,96.1373 14.8501,95.8039 15.5,95.5 Z"/></g>
<g><path style="opacity:1" fill="#38393d" d="M 24.5,82.5 C 24.8333,82.5 25.1667,82.5 25.5,82.5C 24.2804,84.2821 23.6138,86.2821 23.5,88.5C 22.5,88.5 21.5,88.5 20.5,88.5C 20.8122,91.8884 19.4789,94.3884 16.5,96C 17.157,98.2402 16.157,99.7402 13.5,100.5C 13.8308,98.6776 14.4975,97.0109 15.5,95.5C 16.2166,92.6771 17.2166,90.0104 18.5,87.5C 19.552,87.6495 20.552,87.4828 21.5,87C 22.2225,85.2495 23.2225,83.7495 24.5,82.5 Z"/></g>
<g><path style="opacity:1" fill="#9b9ba5" d="M 176.5,91.5 C 177.401,92.2905 178.068,93.2905 178.5,94.5C 175.783,96.9089 173.783,99.9089 172.5,103.5C 170.147,101.14 168.147,98.4735 166.5,95.5C 169.187,95.6641 171.854,95.4974 174.5,95C 175.305,93.8873 175.972,92.7206 176.5,91.5 Z"/></g>
<g><path style="opacity:1" fill="#abadb2" d="M 112.5,89.5 C 113.71,89.9321 114.71,90.5987 115.5,91.5C 114.503,91.4701 113.836,91.9701 113.5,93C 110.572,101.361 108.072,109.861 106,118.5C 105.059,120.727 103.892,122.727 102.5,124.5C 105.829,112.844 109.163,101.177 112.5,89.5 Z"/></g>
<g><path style="opacity:1" fill="#e8ebf0" d="M 109.5,86.5 C 110.833,87.1667 111.833,88.1667 112.5,89.5C 109.163,101.177 105.829,112.844 102.5,124.5C 101.833,124.5 101.167,124.5 100.5,124.5C 99.4154,122.413 97.7488,121.08 95.5,120.5C 97.0781,118.625 96.7448,117.292 94.5,116.5C 93.4634,114.262 93.2967,111.929 94,109.5C 97.2322,105.702 99.3988,101.369 100.5,96.5C 102.4,94.3805 104.066,92.0472 105.5,89.5C 106.048,87.4677 107.381,86.4677 109.5,86.5 Z"/></g>
<g><path style="opacity:1" fill="#abacb0" d="M 32.5,101.5 C 32.4077,103.848 31.4077,105.514 29.5,106.5C 29.7497,104.326 30.7497,102.659 32.5,101.5 Z"/></g>
<g><path style="opacity:1" fill="#7ac3d6" d="M 95.5,90.5 C 96.4735,93.135 98.1402,95.135 100.5,96.5C 99.3988,101.369 97.2322,105.702 94,109.5C 93.2967,111.929 93.4634,114.262 94.5,116.5C 92.8829,115.411 92.0496,113.744 92,111.5C 90.2591,110.242 88.4258,109.242 86.5,108.5C 89.1301,102.251 92.1301,96.2509 95.5,90.5 Z"/></g>
<g><path style="opacity:1" fill="#9d9ea2" d="M 144.5,104.5 C 146.095,106.111 147.261,108.111 148,110.5C 148.494,112.134 148.66,113.801 148.5,115.5C 148.5,117.167 148.5,118.833 148.5,120.5C 147.053,115.286 145.72,109.952 144.5,104.5 Z"/></g>
<g><path style="opacity:1" fill="#b9cdd6" d="M 185.5,116.5 C 186.167,117.833 186.833,119.167 187.5,120.5C 185.097,120.607 183.264,119.607 182,117.5C 178.918,113.266 176.084,108.933 173.5,104.5C 173.369,103.761 173.536,103.094 174,102.5C 177.613,107.421 181.446,112.088 185.5,116.5 Z"/></g>
<g><path style="opacity:1" fill="#7dbfd2" d="M 178.5,94.5 C 180.9,96.2964 182.567,98.6298 183.5,101.5C 181.158,101.775 181.158,102.608 183.5,104C 182.022,105.193 180.688,105.693 179.5,105.5C 179.932,108.181 181.266,110.181 183.5,111.5C 184.167,113.167 184.833,114.833 185.5,116.5C 181.446,112.088 177.613,107.421 174,102.5C 173.536,103.094 173.369,103.761 173.5,104.5C 172.833,104.5 172.5,104.167 172.5,103.5C 173.783,99.9089 175.783,96.9089 178.5,94.5 Z"/></g>
<g><path style="opacity:1" fill="#1f1f23" d="M 26.5,112.5 C 24.2766,122.418 23.9433,132.418 25.5,142.5C 26.2129,145.237 26.2129,147.904 25.5,150.5C 26.9308,152.863 28.9308,154.529 31.5,155.5C 31.8925,157.284 32.5592,158.95 33.5,160.5C 33.8146,162.226 33.9813,163.893 34,165.5C 31.9824,163.65 30.1491,161.65 28.5,159.5C 27.7078,161.465 27.0412,163.465 26.5,165.5C 28.297,166.695 29.297,168.362 29.5,170.5C 33.3941,173.129 37.3941,175.796 41.5,178.5C 41.4807,180.106 41.6474,181.772 42,183.5C 38.8233,180.656 35.6567,177.822 32.5,175C 30.7834,173.441 28.7834,172.608 26.5,172.5C 26.5,171.167 26.5,169.833 26.5,168.5C 24.712,168.785 23.0453,168.452 21.5,167.5C 20.398,163.73 18.0646,161.397 14.5,160.5C 14.5,160.167 14.5,159.833 14.5,159.5C 14.0075,157.181 13.0075,155.181 11.5,153.5C 10.9518,151.374 10.2852,149.374 9.5,147.5C 9.5,144.833 9.5,142.167 9.5,139.5C 8.73229,133.448 8.73229,127.781 9.5,122.5C 9.83333,121.167 10.1667,119.833 10.5,118.5C 12.5076,120.762 12.841,120.262 11.5,117C 12.4162,116.626 13.2496,116.126 14,115.5C 14.5112,113.122 15.1779,110.788 16,108.5C 18.0136,110.183 19.6802,112.183 21,114.5C 22.6511,111.198 24.3178,107.864 26,104.5C 26.4974,107.146 26.6641,109.813 26.5,112.5 Z"/></g>
<g><path style="opacity:1" fill="#a4a5a9" d="M 125.5,105.5 C 127.38,107.755 128.38,110.422 128.5,113.5C 126.62,111.245 125.62,108.578 125.5,105.5 Z"/></g>
<g><path style="opacity:1" fill="#505155" d="M 8.5,107.5 C 9.5,107.5 10.5,107.5 11.5,107.5C 9.50785,114.809 7.84118,122.143 6.5,129.5C 6.64271,127.738 6.30937,126.071 5.5,124.5C 6.88583,118.904 7.88583,113.237 8.5,107.5 Z"/></g>
<g><path style="opacity:1" fill="#75d0e9" d="M 183.5,101.5 C 190.704,108.252 196.704,115.918 201.5,124.5C 198.716,121.954 195.383,120.454 191.5,120C 189.513,118.681 188.346,116.848 188,114.5C 186.729,113.117 185.229,112.117 183.5,111.5C 181.266,110.181 179.932,108.181 179.5,105.5C 180.688,105.693 182.022,105.193 183.5,104C 181.158,102.608 181.158,101.775 183.5,101.5 Z"/></g>
<g><path style="opacity:1" fill="#1a1d21" d="M 218.5,118.5 C 218.5,120.167 218.5,121.833 218.5,123.5C 217.351,123.209 216.684,122.376 216.5,121C 216.684,119.624 217.351,118.791 218.5,118.5 Z"/></g>
<g><path style="opacity:1" fill="#5bc6dd" d="M 183.5,111.5 C 185.229,112.117 186.729,113.117 188,114.5C 188.346,116.848 189.513,118.681 191.5,120C 195.383,120.454 198.716,121.954 201.5,124.5C 203.303,126.481 204.97,128.648 206.5,131C 207.094,131.464 207.761,131.631 208.5,131.5C 208.5,131.833 208.5,132.167 208.5,132.5C 206.181,132.992 204.181,133.992 202.5,135.5C 201.508,135.328 200.842,135.662 200.5,136.5C 199.508,136.672 198.842,136.338 198.5,135.5C 195.564,129.959 191.897,124.959 187.5,120.5C 186.833,119.167 186.167,117.833 185.5,116.5C 184.833,114.833 184.167,113.167 183.5,111.5 Z"/></g>
<g><path style="opacity:1" fill="#495457" d="M 218.5,116.5 C 218.5,117.167 218.5,117.833 218.5,118.5C 217.351,118.791 216.684,119.624 216.5,121C 216.684,122.376 217.351,123.209 218.5,123.5C 218.5,126.167 218.5,128.833 218.5,131.5C 217.209,131.737 216.209,131.404 215.5,130.5C 217.176,129.817 217.843,128.483 217.5,126.5C 216.178,126.33 215.011,126.663 214,127.5C 213.51,126.207 213.343,124.873 213.5,123.5C 214.939,121.412 215.606,119.079 215.5,116.5C 216.5,116.5 217.5,116.5 218.5,116.5 Z"/></g>
<g><path style="opacity:1" fill="#7b8788" d="M 213.5,123.5 C 213.343,124.873 213.51,126.207 214,127.5C 215.011,126.663 216.178,126.33 217.5,126.5C 217.843,128.483 217.176,129.817 215.5,130.5C 215.265,129.903 214.765,129.57 214,129.5C 212.989,130.056 212.156,130.722 211.5,131.5C 211.802,128.627 212.469,125.961 213.5,123.5 Z"/></g>
<g><path style="opacity:1" fill="#232426" d="M 115.5,75.5 C 116.165,77.6979 116.832,80.0312 117.5,82.5C 120.639,85.1168 123.972,87.4502 127.5,89.5C 129.059,91.8887 130.392,94.3887 131.5,97C 131.833,97.1667 132.167,97.3333 132.5,97.5C 133.347,95.1282 134.681,93.1282 136.5,91.5C 137.429,92.6888 137.762,94.0222 137.5,95.5C 138.5,95.5 139.5,95.5 140.5,95.5C 140.263,96.791 140.596,97.791 141.5,98.5C 142.837,102.316 143.171,106.149 142.5,110C 144.759,112.917 145.426,116.084 144.5,119.5C 144.529,121.029 145.196,122.196 146.5,123C 145.576,126.195 145.91,129.361 147.5,132.5C 143.945,134.729 143.612,137.396 146.5,140.5C 146.333,144.06 144.666,146.56 141.5,148C 141.957,148.414 142.291,148.914 142.5,149.5C 139.926,153.991 137.426,157.991 135,161.5C 134.692,160.692 134.192,160.025 133.5,159.5C 131.648,162.922 128.981,164.755 125.5,165C 126.167,163.667 126.833,162.333 127.5,161C 125.364,161.44 123.697,162.773 122.5,165C 121.668,165.688 121.002,165.521 120.5,164.5C 124.301,160.566 126.801,155.899 128,150.5C 129.016,151.634 129.683,151.301 130,149.5C 131.565,140.363 131.732,131.363 130.5,122.5C 130.595,119.303 129.928,116.303 128.5,113.5C 128.38,110.422 127.38,107.755 125.5,105.5C 122.657,100.481 119.324,95.8145 115.5,91.5C 114.71,90.5987 113.71,89.9321 112.5,89.5C 111.833,88.1667 110.833,87.1667 109.5,86.5C 109.5,86.1667 109.5,85.8333 109.5,85.5C 111.898,82.4288 113.898,79.0954 115.5,75.5 Z"/></g>
<g><path style="opacity:1" fill="#b6d8e1" d="M 187.5,120.5 C 191.897,124.959 195.564,129.959 198.5,135.5C 197.5,134.833 196.5,134.167 195.5,133.5C 192.829,129.164 190.162,124.83 187.5,120.5 Z"/></g>
<g><path style="opacity:1" fill="#444c4b" d="M 215.5,130.5 C 213.158,131.211 212.825,132.544 214.5,134.5C 212.833,134.5 211.167,134.5 209.5,134.5C 210.263,133.732 211.263,133.232 212.5,133C 211.207,132.51 209.873,132.343 208.5,132.5C 208.5,132.167 208.5,131.833 208.5,131.5C 209.5,131.5 210.5,131.5 211.5,131.5C 212.156,130.722 212.989,130.056 214,129.5C 214.765,129.57 215.265,129.903 215.5,130.5 Z"/></g>
<g><path style="opacity:1" fill="#8e9ea7" d="M 195.5,133.5 C 196.5,134.167 197.5,134.833 198.5,135.5C 198.842,136.338 199.508,136.672 200.5,136.5C 199.833,137.167 199.167,137.833 198.5,138.5C 197.11,137.101 196.11,135.434 195.5,133.5 Z"/></g>
<g><path style="opacity:1" fill="#515256" d="M 6.5,131.5 C 7.08184,134.313 8.08184,136.98 9.5,139.5C 9.5,142.167 9.5,144.833 9.5,147.5C 8.83333,145.833 8.16667,144.167 7.5,142.5C 5.96952,138.971 5.63619,135.305 6.5,131.5 Z"/></g>
<g><path style="opacity:1" fill="#222a2d" d="M 215.5,130.5 C 216.209,131.404 217.209,131.737 218.5,131.5C 218.5,135.5 218.5,139.5 218.5,143.5C 217.202,142.884 216.202,142.884 215.5,143.5C 214.711,143.217 214.044,142.717 213.5,142C 214.337,140.989 214.67,139.822 214.5,138.5C 212.023,138.051 210.023,138.717 208.5,140.5C 211.653,141.21 211.987,142.21 209.5,143.5C 209.565,143.062 209.399,142.728 209,142.5C 207.53,143.267 206.03,143.933 204.5,144.5C 203.701,141.884 202.368,140.384 200.5,140C 201.044,138.415 201.711,136.915 202.5,135.5C 204.181,133.992 206.181,132.992 208.5,132.5C 209.873,132.343 211.207,132.51 212.5,133C 211.263,133.232 210.263,133.732 209.5,134.5C 208.624,134.369 207.957,134.702 207.5,135.5C 210.497,136.248 213.497,136.915 216.5,137.5C 217.639,135.604 216.973,134.604 214.5,134.5C 212.825,132.544 213.158,131.211 215.5,130.5 Z"/></g>
<g><path style="opacity:1" fill="#7a8385" d="M 209.5,134.5 C 211.167,134.5 212.833,134.5 214.5,134.5C 216.973,134.604 217.639,135.604 216.5,137.5C 213.497,136.915 210.497,136.248 207.5,135.5C 207.957,134.702 208.624,134.369 209.5,134.5 Z"/></g>
<g><path style="opacity:1" fill="#edeef3" d="M 65.5,77.5 C 74.5243,77.3584 83.5243,77.6917 92.5,78.5C 94.5648,78.5172 96.5648,78.8505 98.5,79.5C 98.5,79.8333 98.5,80.1667 98.5,80.5C 98.0372,83.221 97.3705,85.8877 96.5,88.5C 95.6618,88.8417 95.3284,89.5084 95.5,90.5C 92.1301,96.2509 89.1301,102.251 86.5,108.5C 85.7281,109.694 84.7281,110.694 83.5,111.5C 65.1973,110.995 58.6973,119.661 64,137.5C 64.956,138.579 65.7894,139.745 66.5,141C 69.29,141.561 71.6234,142.894 73.5,145C 76.5,145.667 79.5,145.667 82.5,145C 84.9036,143.178 87.5703,141.844 90.5,141C 92.2134,139.622 93.5467,137.955 94.5,136C 96.0581,135.79 97.3915,135.29 98.5,134.5C 98.4809,132.94 98.1476,131.44 97.5,130C 97.7483,128.251 98.7483,127.418 100.5,127.5C 101.906,127.027 102.573,126.027 102.5,124.5C 103.892,122.727 105.059,120.727 106,118.5C 108.072,109.861 110.572,101.361 113.5,93C 113.836,91.9701 114.503,91.4701 115.5,91.5C 119.324,95.8145 122.657,100.481 125.5,105.5C 125.62,108.578 126.62,111.245 128.5,113.5C 129.928,116.303 130.595,119.303 130.5,122.5C 131.395,133.01 129.729,143.01 125.5,152.5C 124.094,152.973 123.427,153.973 123.5,155.5C 118.116,164.55 110.783,171.55 101.5,176.5C 98.2542,177.054 95.2542,178.054 92.5,179.5C 90.3926,180.468 88.0593,180.802 85.5,180.5C 76.7158,180.916 68.0491,180.249 59.5,178.5C 53.2446,175.704 47.2446,172.371 41.5,168.5C 39.1891,165.853 36.8558,163.186 34.5,160.5C 34.4077,158.152 33.4077,156.486 31.5,155.5C 29.8701,150.919 27.8701,146.586 25.5,142.5C 23.9433,132.418 24.2766,122.418 26.5,112.5C 27.7972,110.629 28.7972,108.629 29.5,106.5C 31.4077,105.514 32.4077,103.848 32.5,101.5C 35.7831,95.2166 40.4497,90.2166 46.5,86.5C 48.7488,85.9202 50.4154,84.5869 51.5,82.5C 51.8333,82.5 52.1667,82.5 52.5,82.5C 54.9674,82.2451 56.9674,81.2451 58.5,79.5C 61.1522,79.5905 63.4855,78.9238 65.5,77.5 Z"/></g>
<g><path style="opacity:1" fill="#e1e1df" d="M 88.5,131.5 C 87.0462,133.263 87.3796,134.597 89.5,135.5C 89.5824,137.252 88.7491,138.252 87,138.5C 85.5,138 84,137.5 82.5,137C 81.7476,136.329 81.4142,135.496 81.5,134.5C 82.1667,134.5 82.5,134.167 82.5,133.5C 84.2972,132.27 86.2972,131.604 88.5,131.5 Z"/></g>
<g><path style="opacity:1" fill="#1b262d" d="M 78.5,120.5 C 78.8417,121.338 79.5084,121.672 80.5,121.5C 79.5806,124.089 77.914,126.089 75.5,127.5C 74.4017,128.601 74.235,129.934 75,131.5C 76.6155,132.801 78.1155,132.801 79.5,131.5C 81.3043,129.505 83.3043,127.838 85.5,126.5C 85.6567,127.873 85.49,129.207 85,130.5C 83.583,131.078 82.7496,132.078 82.5,133.5C 82.5,134.167 82.1667,134.5 81.5,134.5C 79.9582,135.301 78.2915,135.634 76.5,135.5C 75.8333,135.5 75.1667,135.5 74.5,135.5C 73.3412,134.26 72.3412,132.926 71.5,131.5C 70.9609,127.584 72.2942,124.584 75.5,122.5C 76.5,121.833 77.5,121.167 78.5,120.5 Z"/></g>
<g><path style="opacity:1" fill="#56858f" d="M 75.5,127.5 C 76.209,128.404 77.209,128.737 78.5,128.5C 78.2627,129.791 78.596,130.791 79.5,131.5C 78.1155,132.801 76.6155,132.801 75,131.5C 74.235,129.934 74.4017,128.601 75.5,127.5 Z"/></g>
<g><path style="opacity:1" fill="#2e2f30" d="M 100.5,127.5 C 98.7483,127.418 97.7483,128.251 97.5,130C 98.1476,131.44 98.4809,132.94 98.5,134.5C 96.7376,134.643 95.0709,134.309 93.5,133.5C 92.3044,133.846 92.3044,134.346 93.5,135C 92.2068,135.49 90.8734,135.657 89.5,135.5C 87.3796,134.597 87.0462,133.263 88.5,131.5C 88.369,130.761 88.5357,130.094 89,129.5C 90.2948,130.841 90.7948,132.174 90.5,133.5C 90.6044,128.791 92.9377,126.124 97.5,125.5C 98.7387,125.942 99.7387,126.609 100.5,127.5 Z"/></g>
<g><path style="opacity:1" fill="#d9e0e2" d="M 90.5,121.5 C 92.2726,122.314 92.7726,123.648 92,125.5C 91.221,126.728 90.221,127.728 89,128.5C 88.2352,128.43 87.7352,128.097 87.5,127.5C 87.7549,125.033 88.7549,123.033 90.5,121.5 Z"/></g>
<g><path style="opacity:1" fill="#70c7dd" d="M 86.5,108.5 C 87.9322,110.438 89.5989,112.271 91.5,114C 90.8333,115.333 90.1667,116.667 89.5,118C 89.5699,118.765 89.9033,119.265 90.5,119.5C 90.5,120.167 90.5,120.833 90.5,121.5C 88.7549,123.033 87.7549,125.033 87.5,127.5C 86.8333,127.167 86.1667,126.833 85.5,126.5C 83.3043,127.838 81.3043,129.505 79.5,131.5C 78.596,130.791 78.2627,129.791 78.5,128.5C 77.209,128.737 76.209,128.404 75.5,127.5C 77.914,126.089 79.5806,124.089 80.5,121.5C 81.1667,119.167 81.8333,116.833 82.5,114.5C 84.7957,114.196 85.129,113.196 83.5,111.5C 84.7281,110.694 85.7281,109.694 86.5,108.5 Z"/></g>
<g><path style="opacity:1" fill="#414242" d="M 94.5,120.5 C 94.8333,120.5 95.1667,120.5 95.5,120.5C 97.7488,121.08 99.4154,122.413 100.5,124.5C 97.733,124.13 95.733,122.796 94.5,120.5 Z"/></g>
<g><path style="opacity:1" fill="#808486" d="M 94.5,120.5 C 95.733,122.796 97.733,124.13 100.5,124.5C 101.167,124.5 101.833,124.5 102.5,124.5C 102.573,126.027 101.906,127.027 100.5,127.5C 99.7387,126.609 98.7387,125.942 97.5,125.5C 92.9377,126.124 90.6044,128.791 90.5,133.5C 90.7948,132.174 90.2948,130.841 89,129.5C 88.5357,130.094 88.369,130.761 88.5,131.5C 86.2972,131.604 84.2972,132.27 82.5,133.5C 82.7496,132.078 83.583,131.078 85,130.5C 85.49,129.207 85.6567,127.873 85.5,126.5C 86.1667,126.833 86.8333,127.167 87.5,127.5C 87.7352,128.097 88.2352,128.43 89,128.5C 90.221,127.728 91.221,126.728 92,125.5C 92.7726,123.648 92.2726,122.314 90.5,121.5C 90.5,120.833 90.5,120.167 90.5,119.5C 91.8221,119.67 92.9887,119.337 94,118.5C 94.4643,119.094 94.631,119.761 94.5,120.5 Z"/></g>
<g><path style="opacity:1" fill="#9ca49e" d="M 74.5,118.5 C 76.3797,118.229 77.713,118.896 78.5,120.5C 77.5,121.167 76.5,121.833 75.5,122.5C 75.5674,121.041 75.2341,119.708 74.5,118.5 Z"/></g>
<g><path style="opacity:1" fill="#e0dfe1" d="M 74.5,118.5 C 75.2341,119.708 75.5674,121.041 75.5,122.5C 72.2942,124.584 70.9609,127.584 71.5,131.5C 71.5,134.167 71.5,136.833 71.5,139.5C 70.325,139.719 69.325,139.386 68.5,138.5C 63.8198,131.829 63.8198,124.996 68.5,118C 70.4884,117.82 72.4884,117.986 74.5,118.5 Z"/></g>
<g><path style="opacity:1" fill="#3f7a8a" d="M 86.5,108.5 C 88.4258,109.242 90.2591,110.242 92,111.5C 92.0496,113.744 92.8829,115.411 94.5,116.5C 96.7448,117.292 97.0781,118.625 95.5,120.5C 95.1667,120.5 94.8333,120.5 94.5,120.5C 94.631,119.761 94.4643,119.094 94,118.5C 92.9887,119.337 91.8221,119.67 90.5,119.5C 89.9033,119.265 89.5699,118.765 89.5,118C 90.1667,116.667 90.8333,115.333 91.5,114C 89.5989,112.271 87.9322,110.438 86.5,108.5 Z"/></g>
<g><path style="opacity:1" fill="#e3e1e6" d="M 82.5,114.5 C 81.8333,116.833 81.1667,119.167 80.5,121.5C 79.5084,121.672 78.8417,121.338 78.5,120.5C 77.713,118.896 76.3797,118.229 74.5,118.5C 73.9094,117.849 73.2427,117.182 72.5,116.5C 72.7093,115.914 73.0426,115.414 73.5,115C 76.4816,114.502 79.4816,114.335 82.5,114.5 Z"/></g>
<g><path style="opacity:1" fill="#306982" d="M 91.5,100.5 C 93.5433,99.771 95.5433,100.271 97.5,102C 95.1599,102.748 93.1599,102.248 91.5,100.5 Z"/></g>
<g><path style="opacity:1" fill="#cecfd3" d="M 148.5,115.5 C 149.131,117.448 150.131,119.281 151.5,121C 150.686,127.753 150.186,134.586 150,141.5C 149.79,143.058 149.29,144.391 148.5,145.5C 148.502,137.488 148.502,129.155 148.5,120.5C 148.5,118.833 148.5,117.167 148.5,115.5 Z"/></g>
<g><path style="opacity:1" fill="#5d5d5b" d="M 199.5,140.5 C 199.969,142.995 199.969,145.661 199.5,148.5C 195.5,148.5 191.5,148.5 187.5,148.5C 187.328,147.508 187.662,146.842 188.5,146.5C 191.584,146.729 194.918,146.729 198.5,146.5C 197.498,141.995 195.165,141.328 191.5,144.5C 191.167,143.833 190.833,143.167 190.5,142.5C 190.5,142.167 190.5,141.833 190.5,141.5C 193.609,141.736 196.609,141.403 199.5,140.5 Z"/></g>
<g><path style="opacity:1" fill="#989999" d="M 83.5,111.5 C 85.129,113.196 84.7957,114.196 82.5,114.5C 79.4816,114.335 76.4816,114.502 73.5,115C 73.0426,115.414 72.7093,115.914 72.5,116.5C 73.2427,117.182 73.9094,117.849 74.5,118.5C 72.4884,117.986 70.4884,117.82 68.5,118C 63.8198,124.996 63.8198,131.829 68.5,138.5C 69.325,139.386 70.325,139.719 71.5,139.5C 71.5,136.833 71.5,134.167 71.5,131.5C 72.3412,132.926 73.3412,134.26 74.5,135.5C 73.2072,137.364 73.2072,139.364 74.5,141.5C 88.0582,142.507 88.7248,140.507 76.5,135.5C 78.2915,135.634 79.9582,135.301 81.5,134.5C 81.4142,135.496 81.7476,136.329 82.5,137C 84,137.5 85.5,138 87,138.5C 88.7491,138.252 89.5824,137.252 89.5,135.5C 90.8734,135.657 92.2068,135.49 93.5,135C 92.3044,134.346 92.3044,133.846 93.5,133.5C 95.0709,134.309 96.7376,134.643 98.5,134.5C 97.3915,135.29 96.0581,135.79 94.5,136C 93.5467,137.955 92.2134,139.622 90.5,141C 87.5703,141.844 84.9036,143.178 82.5,145C 79.5,145.667 76.5,145.667 73.5,145C 71.6234,142.894 69.29,141.561 66.5,141C 65.7894,139.745 64.956,138.579 64,137.5C 58.6973,119.661 65.1973,110.995 83.5,111.5 Z"/></g>
<g><path style="opacity:1" fill="#dbdbdc" d="M 74.5,135.5 C 75.1667,135.5 75.8333,135.5 76.5,135.5C 88.7248,140.507 88.0582,142.507 74.5,141.5C 73.2072,139.364 73.2072,137.364 74.5,135.5 Z"/></g>
<g><path style="opacity:1" fill="#78797c" d="M 190.5,141.5 C 190.5,141.833 190.5,142.167 190.5,142.5C 186.317,142.137 182.317,142.804 178.5,144.5C 176.218,143.777 173.884,143.443 171.5,143.5C 171.5,144.5 171.5,145.5 171.5,146.5C 170.566,145.432 170.232,144.099 170.5,142.5C 177.137,141.724 183.804,141.391 190.5,141.5 Z"/></g>
<g><path style="opacity:1" fill="#595e5b" d="M 215.5,143.5 C 215.718,147.536 214.051,148.87 210.5,147.5C 209.766,146.292 209.433,144.959 209.5,143.5C 211.987,142.21 211.653,141.21 208.5,140.5C 210.023,138.717 212.023,138.051 214.5,138.5C 214.67,139.822 214.337,140.989 213.5,142C 214.044,142.717 214.711,143.217 215.5,143.5 Z"/></g>
<g><path style="opacity:1" fill="#3c3d3f" d="M 190.5,142.5 C 190.833,143.167 191.167,143.833 191.5,144.5C 189.973,144.427 188.973,145.094 188.5,146.5C 187.662,146.842 187.328,147.508 187.5,148.5C 187.44,149.043 187.107,149.376 186.5,149.5C 181.31,148.859 176.31,147.859 171.5,146.5C 171.5,145.5 171.5,144.5 171.5,143.5C 173.884,143.443 176.218,143.777 178.5,144.5C 182.317,142.804 186.317,142.137 190.5,142.5 Z"/></g>
<g><path style="opacity:1" fill="#7e7e75" d="M 188.5,146.5 C 188.973,145.094 189.973,144.427 191.5,144.5C 195.165,141.328 197.498,141.995 198.5,146.5C 194.918,146.729 191.584,146.729 188.5,146.5 Z"/></g>
<g><path style="opacity:1" fill="#34383a" d="M 25.5,142.5 C 27.8701,146.586 29.8701,150.919 31.5,155.5C 28.9308,154.529 26.9308,152.863 25.5,150.5C 26.2129,147.904 26.2129,145.237 25.5,142.5 Z"/></g>
<g><path style="opacity:1" fill="#323638" d="M 202.5,135.5 C 201.711,136.915 201.044,138.415 200.5,140C 202.368,140.384 203.701,141.884 204.5,144.5C 202.8,145.016 201.467,146.016 200.5,147.5C 203.98,148.806 207.313,148.806 210.5,147.5C 214.051,148.87 215.718,147.536 215.5,143.5C 216.202,142.884 217.202,142.884 218.5,143.5C 218.5,148.167 218.5,152.833 218.5,157.5C 209.105,160.634 202.771,157.634 199.5,148.5C 199.969,145.661 199.969,142.995 199.5,140.5C 199.672,139.508 199.338,138.842 198.5,138.5C 199.167,137.833 199.833,137.167 200.5,136.5C 200.842,135.662 201.508,135.328 202.5,135.5 Z"/></g>
<g><path style="opacity:1" fill="#9ca0a0" d="M 214.5,151.5 C 212.712,151.785 211.045,151.452 209.5,150.5C 210.333,150.167 211.167,149.833 212,149.5C 213.376,149.684 214.209,150.351 214.5,151.5 Z"/></g>
<g><path style="opacity:1" fill="#101111" d="M 209.5,143.5 C 209.433,144.959 209.766,146.292 210.5,147.5C 207.313,148.806 203.98,148.806 200.5,147.5C 201.467,146.016 202.8,145.016 204.5,144.5C 206.03,143.933 207.53,143.267 209,142.5C 209.399,142.728 209.565,143.062 209.5,143.5 Z"/></g>
<g><path style="opacity:1" fill="#929396" d="M 7.5,142.5 C 8.16667,144.167 8.83333,145.833 9.5,147.5C 10.2852,149.374 10.9518,151.374 11.5,153.5C 8.83529,150.493 7.50196,146.827 7.5,142.5 Z"/></g>
<g><path style="opacity:1" fill="#88898e" d="M 146.5,150.5 C 146.231,153.015 145.231,155.015 143.5,156.5C 143.769,153.985 144.769,151.985 146.5,150.5 Z"/></g>
<g><path style="opacity:1" fill="#a8a9aa" d="M 214.5,151.5 C 216.176,152.183 216.843,153.517 216.5,155.5C 213.428,155.817 210.428,155.484 207.5,154.5C 210.295,154.062 212.628,153.062 214.5,151.5 Z"/></g>
<g><path style="opacity:1" fill="#858b8b" d="M 125.5,152.5 C 125.573,154.027 124.906,155.027 123.5,155.5C 123.427,153.973 124.094,152.973 125.5,152.5 Z"/></g>
<g><path style="opacity:1" fill="#67686c" d="M 11.5,153.5 C 13.0075,155.181 14.0075,157.181 14.5,159.5C 12.087,158.32 11.087,156.32 11.5,153.5 Z"/></g>
<g><path style="opacity:1" fill="#a7a8ad" d="M 143.5,156.5 C 143.65,159.459 142.65,161.959 140.5,164C 140.957,164.414 141.291,164.914 141.5,165.5C 140.234,166.362 138.901,167.029 137.5,167.5C 139.262,163.637 141.262,159.971 143.5,156.5 Z"/></g>
<g><path style="opacity:1" fill="#6a6d71" d="M 31.5,155.5 C 33.4077,156.486 34.4077,158.152 34.5,160.5C 34.1667,160.5 33.8333,160.5 33.5,160.5C 32.5592,158.95 31.8925,157.284 31.5,155.5 Z"/></g>
<g><path style="opacity:1" fill="#a5a6ab" d="M 136.5,170.5 C 135.549,173.606 133.549,175.606 130.5,176.5C 130.5,176.167 130.5,175.833 130.5,175.5C 132.498,173.708 134.498,172.041 136.5,170.5 Z"/></g>
<g><path style="opacity:1" fill="#95969b" d="M 130.5,176.5 C 130.512,179.142 129.179,180.475 126.5,180.5C 127.833,179.167 129.167,177.833 130.5,176.5 Z"/></g>
<g><path style="opacity:1" fill="#38383f" d="M 130.5,175.5 C 130.5,175.833 130.5,176.167 130.5,176.5C 129.167,177.833 127.833,179.167 126.5,180.5C 125.493,181.828 124.16,182.828 122.5,183.5C 121.614,184.325 121.281,185.325 121.5,186.5C 115.973,189.975 109.973,192.642 103.5,194.5C 103.709,193.078 104.209,191.745 105,190.5C 106.011,191.337 107.178,191.67 108.5,191.5C 108.281,190.325 108.614,189.325 109.5,188.5C 110.736,189.246 112.07,189.579 113.5,189.5C 112.794,185.433 114.128,181.767 117.5,178.5C 117.833,179.167 118.167,179.833 118.5,180.5C 120.868,178.777 123.534,178.11 126.5,178.5C 126.5,177.5 126.5,176.5 126.5,175.5C 127.833,175.5 129.167,175.5 130.5,175.5 Z"/></g>
<g><path style="opacity:1" fill="#2c2d31" d="M 141.5,98.5 C 142.985,100.249 143.985,102.249 144.5,104.5C 145.72,109.952 147.053,115.286 148.5,120.5C 148.502,129.155 148.502,137.488 148.5,145.5C 146.744,146.552 146.077,148.219 146.5,150.5C 144.769,151.985 143.769,153.985 143.5,156.5C 141.262,159.971 139.262,163.637 137.5,167.5C 137.737,168.791 137.404,169.791 136.5,170.5C 134.498,172.041 132.498,173.708 130.5,175.5C 129.167,175.5 127.833,175.5 126.5,175.5C 126.5,176.5 126.5,177.5 126.5,178.5C 123.534,178.11 120.868,178.777 118.5,180.5C 118.167,179.833 117.833,179.167 117.5,178.5C 114.128,181.767 112.794,185.433 113.5,189.5C 112.07,189.579 110.736,189.246 109.5,188.5C 108.614,189.325 108.281,190.325 108.5,191.5C 107.178,191.67 106.011,191.337 105,190.5C 104.209,191.745 103.709,193.078 103.5,194.5C 98.4683,197.786 92.8016,199.453 86.5,199.5C 78.1329,199.705 69.7996,199.371 61.5,198.5C 40.1224,192.675 24.4557,180.008 14.5,160.5C 18.0646,161.397 20.398,163.73 21.5,167.5C 23.0453,168.452 24.712,168.785 26.5,168.5C 26.5,169.833 26.5,171.167 26.5,172.5C 28.7834,172.608 30.7834,173.441 32.5,175C 35.6567,177.822 38.8233,180.656 42,183.5C 41.6474,181.772 41.4807,180.106 41.5,178.5C 37.3941,175.796 33.3941,173.129 29.5,170.5C 29.297,168.362 28.297,166.695 26.5,165.5C 27.0412,163.465 27.7078,161.465 28.5,159.5C 30.1491,161.65 31.9824,163.65 34,165.5C 33.9813,163.893 33.8146,162.226 33.5,160.5C 33.8333,160.5 34.1667,160.5 34.5,160.5C 36.8558,163.186 39.1891,165.853 41.5,168.5C 41.3398,170.199 41.5065,171.866 42,173.5C 43.3561,172.62 44.8561,172.286 46.5,172.5C 46.5,173.5 46.5,174.5 46.5,175.5C 45.0695,175.579 43.7362,175.246 42.5,174.5C 41.4063,175.868 41.7397,177.035 43.5,178C 50.1667,181.333 56.8333,184.667 63.5,188C 70.804,189.203 78.1374,189.537 85.5,189C 90.3427,187.136 95.3427,185.803 100.5,185C 105.786,181.802 105.119,180.802 98.5,182C 95.7536,183.75 92.7536,184.75 89.5,185C 76.2667,186.831 63.6001,185.165 51.5,180C 49.2385,179.299 48.2385,178.132 48.5,176.5C 54.0253,178.702 59.6919,180.369 65.5,181.5C 72.3543,181.824 79.021,181.491 85.5,180.5C 88.0593,180.802 90.3926,180.468 92.5,179.5C 95.9924,179.554 98.9924,178.554 101.5,176.5C 110.783,171.55 118.116,164.55 123.5,155.5C 124.906,155.027 125.573,154.027 125.5,152.5C 129.729,143.01 131.395,133.01 130.5,122.5C 131.732,131.363 131.565,140.363 130,149.5C 129.683,151.301 129.016,151.634 128,150.5C 126.801,155.899 124.301,160.566 120.5,164.5C 121.002,165.521 121.668,165.688 122.5,165C 123.697,162.773 125.364,161.44 127.5,161C 126.833,162.333 126.167,163.667 125.5,165C 128.981,164.755 131.648,162.922 133.5,159.5C 134.192,160.025 134.692,160.692 135,161.5C 137.426,157.991 139.926,153.991 142.5,149.5C 142.291,148.914 141.957,148.414 141.5,148C 144.666,146.56 146.333,144.06 146.5,140.5C 143.612,137.396 143.945,134.729 147.5,132.5C 145.91,129.361 145.576,126.195 146.5,123C 145.196,122.196 144.529,121.029 144.5,119.5C 145.426,116.084 144.759,112.917 142.5,110C 143.171,106.149 142.837,102.316 141.5,98.5 Z"/></g>
<g><path style="opacity:1" fill="#444549" d="M 41.5,168.5 C 47.2446,172.371 53.2446,175.704 59.5,178.5C 61.5,179.5 63.5,180.5 65.5,181.5C 59.6919,180.369 54.0253,178.702 48.5,176.5C 48.2385,178.132 49.2385,179.299 51.5,180C 63.6001,185.165 76.2667,186.831 89.5,185C 92.7536,184.75 95.7536,183.75 98.5,182C 105.119,180.802 105.786,181.802 100.5,185C 95.3427,185.803 90.3427,187.136 85.5,189C 78.1374,189.537 70.804,189.203 63.5,188C 56.8333,184.667 50.1667,181.333 43.5,178C 41.7397,177.035 41.4063,175.868 42.5,174.5C 43.7362,175.246 45.0695,175.579 46.5,175.5C 46.5,174.5 46.5,173.5 46.5,172.5C 44.8561,172.286 43.3561,172.62 42,173.5C 41.5065,171.866 41.3398,170.199 41.5,168.5 Z"/></g>
<g><path style="opacity:1" fill="#babec1" d="M 59.5,178.5 C 68.0491,180.249 76.7158,180.916 85.5,180.5C 79.021,181.491 72.3543,181.824 65.5,181.5C 63.5,180.5 61.5,179.5 59.5,178.5 Z"/></g>
<g><path style="opacity:1" fill="#898b8f" d="M 101.5,176.5 C 98.9924,178.554 95.9924,179.554 92.5,179.5C 95.2542,178.054 98.2542,177.054 101.5,176.5 Z"/></g>
<g><path style="opacity:1" fill="#a2a4a8" d="M 61.5,198.5 C 69.7996,199.371 78.1329,199.705 86.5,199.5C 79.0113,200.656 71.3446,200.822 63.5,200C 62.5842,199.722 61.9175,199.222 61.5,198.5 Z"/></g>
</svg>
