<?xml version="1.0" encoding="UTF-8"?>
<!DOCTYPE svg PUBLIC "-//W3C//DTD SVG 1.1//EN" "http://www.w3.org/Graphics/SVG/1.1/DTD/svg11.dtd">
<svg xmlns="http://www.w3.org/2000/svg" version="1.1" width="219px" height="214px" style="shape-rendering:geometricPrecision; text-rendering:geometricPrecision; image-rendering:optimizeQuality; fill-rule:evenodd; clip-rule:evenodd" xmlns:xlink="http://www.w3.org/1999/xlink">
<g><path style="opacity:1" fill="#eeeff4" d="M -0.5,-0.5 C 11.8333,-0.5 24.1667,-0.5 36.5,-0.5C 37.036,4.86365 37.7027,10.197 38.5,15.5C 38.3337,22.8409 38.5003,30.1742 39,37.5C 40.7215,43.7098 41.7215,50.0432 42,56.5C 42.2784,57.4158 42.7784,58.0825 43.5,58.5C 44.9067,68.4506 45.9067,78.4506 46.5,88.5C 45.1266,88.6567 43.7932,88.49 42.5,88C 35.5882,83.6269 28.7548,79.1269 22,74.5C 20.1525,75.1693 18.9858,76.5026 18.5,78.5C 25.5748,84.4045 33.0748,89.7378 41,94.5C 40.9739,100.262 42.8072,105.262 46.5,109.5C 51.8333,115.167 57.1667,120.833 62.5,126.5C 61.7182,138.709 62.8849,150.709 66,162.5C 67.6076,166.056 69.4409,169.389 71.5,172.5C 75.434,181.167 81.434,188.167 89.5,193.5C 113.469,210.19 138.469,211.69 164.5,198C 166.063,197.241 167.063,196.074 167.5,194.5C 170.833,193.359 173.833,191.526 176.5,189C 191.451,174.431 198.784,156.598 198.5,135.5C 197.83,117.499 191.163,102.165 178.5,89.5C 159.827,71.9947 137.827,65.9947 112.5,71.5C 112.843,69.5168 112.176,68.1834 110.5,67.5C 106.187,63.5219 101.854,59.5219 97.5,55.5C 102.625,50.876 107.625,46.0427 112.5,41C 114.596,39.2342 116.929,37.9009 119.5,37C 120.337,35.9887 120.67,34.8221 120.5,33.5C 121.857,32.3146 123.357,31.3146 125,30.5C 127.488,31.7557 129.988,31.7557 132.5,30.5C 134.5,31.1667 136.5,31.8333 138.5,32.5C 144.125,31.5917 149.792,31.2584 155.5,31.5C 156.5,31.5 157.5,31.5 158.5,31.5C 158.67,30.1779 158.337,29.0113 157.5,28C 150.607,25.5542 143.94,22.5542 137.5,19C 129.838,12.5092 121.505,7.00925 112.5,2.5C 110.257,1.52577 107.924,1.19244 105.5,1.5C 105.33,2.82207 105.663,3.98873 106.5,5C 114.307,7.47385 119.474,12.6405 122,20.5C 122.759,22.0629 123.926,23.0629 125.5,23.5C 119.69,26.2831 114.356,29.9497 109.5,34.5C 105.372,31.1024 100.705,28.7691 95.5,27.5C 91.9754,26.2411 88.9754,24.2411 86.5,21.5C 81.0184,14.5505 76.0184,7.21719 71.5,-0.5C 120.5,-0.5 169.5,-0.5 218.5,-0.5C 218.5,70.8333 218.5,142.167 218.5,213.5C 145.5,213.5 72.5,213.5 -0.5,213.5C -0.5,142.167 -0.5,70.8333 -0.5,-0.5 Z"/></g>
<g><path style="opacity:1" fill="#ebecf2" d="M 47.5,-0.5 C 52.8333,-0.5 58.1667,-0.5 63.5,-0.5C 67.7846,6.44842 72.4513,13.1151 77.5,19.5C 80.1183,24.4131 83.4516,28.7465 87.5,32.5C 89.7279,36.612 92.2279,40.612 95,44.5C 95.6776,46.5976 95.5109,48.5976 94.5,50.5C 92.8632,51.2178 91.1966,51.3845 89.5,51C 85.2769,47.3906 80.6102,44.5572 75.5,42.5C 74.8333,42.5 74.1667,42.5 73.5,42.5C 71.8333,42.5 70.1667,42.5 68.5,42.5C 68.6646,45.5184 68.498,48.5184 68,51.5C 64.0052,62.0161 60.8386,72.6827 58.5,83.5C 57.1805,84.9418 55.5138,85.6085 53.5,85.5C 51.5047,56.8819 49.5047,28.2152 47.5,-0.5 Z"/></g>
<g><path style="opacity:1" fill="#baa6f1" d="M 67.5,-0.5 C 68.8333,-0.5 70.1667,-0.5 71.5,-0.5C 76.0184,7.21719 81.0184,14.5505 86.5,21.5C 83.812,21.8342 81.4786,21.1675 79.5,19.5C 75.5113,12.8611 71.5113,6.19439 67.5,-0.5 Z"/></g>
<g><path style="opacity:1" fill="#4622df" d="M 63.5,-0.5 C 64.8333,-0.5 66.1667,-0.5 67.5,-0.5C 71.5113,6.19439 75.5113,12.8611 79.5,19.5C 78.8333,19.5 78.1667,19.5 77.5,19.5C 72.4513,13.1151 67.7846,6.44842 63.5,-0.5 Z"/></g>
<g><path style="opacity:1" fill="#525256" d="M 155.5,31.5 C 155.082,30.7784 154.416,30.2784 153.5,30C 146.459,30.8335 140.459,28.8335 135.5,24C 133.564,23.187 131.564,22.687 129.5,22.5C 127.257,18.5846 124.257,15.2512 120.5,12.5C 119.479,13.0016 119.312,13.6683 120,14.5C 122.176,17.5294 124.343,20.5294 126.5,23.5C 126.167,23.5 125.833,23.5 125.5,23.5C 123.926,23.0629 122.759,22.0629 122,20.5C 119.474,12.6405 114.307,7.47385 106.5,5C 105.663,3.98873 105.33,2.82207 105.5,1.5C 107.924,1.19244 110.257,1.52577 112.5,2.5C 121.505,7.00925 129.838,12.5092 137.5,19C 143.94,22.5542 150.607,25.5542 157.5,28C 158.337,29.0113 158.67,30.1779 158.5,31.5C 157.5,31.5 156.5,31.5 155.5,31.5 Z"/></g>
<g><path style="opacity:1" fill="#cfcfd2" d="M 129.5,22.5 C 128.609,23.1098 127.609,23.4431 126.5,23.5C 124.343,20.5294 122.176,17.5294 120,14.5C 119.312,13.6683 119.479,13.0016 120.5,12.5C 124.257,15.2512 127.257,18.5846 129.5,22.5 Z"/></g>
<g><path style="opacity:1" fill="#909591" d="M 95.5,27.5 C 100.705,28.7691 105.372,31.1024 109.5,34.5C 108.833,34.5 108.167,34.5 107.5,34.5C 103.164,32.668 99.1638,30.3346 95.5,27.5 Z"/></g>
<g><path style="opacity:1" fill="#3f4042" d="M 129.5,22.5 C 131.564,22.687 133.564,23.187 135.5,24C 140.459,28.8335 146.459,30.8335 153.5,30C 154.416,30.2784 155.082,30.7784 155.5,31.5C 149.792,31.2584 144.125,31.5917 138.5,32.5C 136.5,31.8333 134.5,31.1667 132.5,30.5C 129.988,31.7557 127.488,31.7557 125,30.5C 123.357,31.3146 121.857,32.3146 120.5,33.5C 119.85,33.1961 119.183,32.8627 118.5,32.5C 116.684,33.8149 115.017,35.3149 113.5,37C 112.552,37.4828 111.552,37.6495 110.5,37.5C 109.306,36.7281 108.306,35.7281 107.5,34.5C 108.167,34.5 108.833,34.5 109.5,34.5C 114.356,29.9497 119.69,26.2831 125.5,23.5C 125.833,23.5 126.167,23.5 126.5,23.5C 127.609,23.4431 128.609,23.1098 129.5,22.5 Z"/></g>
<g><path style="opacity:1" fill="#c2c6c6" d="M 38.5,15.5 C 41.1436,29.5796 42.8102,43.9129 43.5,58.5C 42.7784,58.0825 42.2784,57.4158 42,56.5C 41.7215,50.0432 40.7215,43.7098 39,37.5C 38.5003,30.1742 38.3337,22.8409 38.5,15.5 Z"/></g>
<g><path style="opacity:1" fill="#646b66" d="M 44.5,-0.5 C 45.5,-0.5 46.5,-0.5 47.5,-0.5C 49.5047,28.2152 51.5047,56.8819 53.5,85.5C 55.5138,85.6085 57.1805,84.9418 58.5,83.5C 57.9517,86.0838 56.285,87.0838 53.5,86.5C 50.7237,86.9111 50.057,86.0777 51.5,84C 46.4715,56.1227 44.1382,27.956 44.5,-0.5 Z"/></g>
<g><path style="opacity:1" fill="#3f4345" d="M 91.5,31.5 C 91.4914,33.3084 91.9914,34.9751 93,36.5C 95.0094,39.1975 97.0094,41.8642 99,44.5C 101.386,43.6147 102.886,41.948 103.5,39.5C 100.54,36.3552 97.2071,33.6885 93.5,31.5C 95.9335,30.6715 98.2668,31.1715 100.5,33C 103.19,34.6977 105.523,36.6977 107.5,39C 105.553,41.9512 103.219,44.6178 100.5,47C 99.5509,47.6172 98.7175,47.4506 98,46.5C 97.9428,48.9102 96.7761,50.2435 94.5,50.5C 95.5109,48.5976 95.6776,46.5976 95,44.5C 92.2279,40.612 89.7279,36.612 87.5,32.5C 88.0431,32.44 88.3764,32.1067 88.5,31.5C 87.5,30.1667 86.5,28.8333 85.5,27.5C 86,27.1667 86.5,26.8333 87,26.5C 88.6843,28.0167 90.1843,29.6834 91.5,31.5 Z"/></g>
<g><path style="opacity:1" fill="#dee3e6" d="M 91.5,31.5 C 92.1667,31.5 92.8333,31.5 93.5,31.5C 97.2071,33.6885 100.54,36.3552 103.5,39.5C 102.886,41.948 101.386,43.6147 99,44.5C 97.0094,41.8642 95.0094,39.1975 93,36.5C 91.9914,34.9751 91.4914,33.3084 91.5,31.5 Z"/></g>
<g><path style="opacity:1" fill="#262a29" d="M 77.5,19.5 C 78.1667,19.5 78.8333,19.5 79.5,19.5C 81.4786,21.1675 83.812,21.8342 86.5,21.5C 88.9754,24.2411 91.9754,26.2411 95.5,27.5C 99.1638,30.3346 103.164,32.668 107.5,34.5C 108.306,35.7281 109.306,36.7281 110.5,37.5C 106.255,43.4159 101.255,48.7492 95.5,53.5C 94.596,52.791 94.2627,51.791 94.5,50.5C 96.7761,50.2435 97.9428,48.9102 98,46.5C 98.7175,47.4506 99.5509,47.6172 100.5,47C 103.219,44.6178 105.553,41.9512 107.5,39C 105.523,36.6977 103.19,34.6977 100.5,33C 98.2668,31.1715 95.9335,30.6715 93.5,31.5C 92.8333,31.5 92.1667,31.5 91.5,31.5C 90.1843,29.6834 88.6843,28.0167 87,26.5C 86.5,26.8333 86,27.1667 85.5,27.5C 86.5,28.8333 87.5,30.1667 88.5,31.5C 88.3764,32.1067 88.0431,32.44 87.5,32.5C 83.4516,28.7465 80.1183,24.4131 77.5,19.5 Z"/></g>
<g><path style="opacity:1" fill="#1f251f" d="M 73.5,42.5 C 74.1667,42.5 74.8333,42.5 75.5,42.5C 75.6941,45.3297 76.3608,47.9963 77.5,50.5C 76.8333,50.5 76.5,50.8333 76.5,51.5C 75.71,50.3915 75.21,49.0581 75,47.5C 72.0083,54.4659 69.0083,61.4659 66,68.5C 67.0248,60.9166 69.1914,53.5832 72.5,46.5C 71.2113,44.7807 71.5446,43.4474 73.5,42.5 Z"/></g>
<g><path style="opacity:1" fill="#e2e4e7" d="M 77.5,50.5 C 79.0174,50.5106 80.1841,51.1772 81,52.5C 80.9618,59.5705 77.9618,65.2372 72,69.5C 69.9617,72.2432 68.4617,75.2432 67.5,78.5C 65.6558,77.7961 65.1558,76.4628 66,74.5C 69.5353,66.7685 73.0353,59.1018 76.5,51.5C 76.5,50.8333 76.8333,50.5 77.5,50.5 Z"/></g>
<g><path style="opacity:1" fill="#eaebef" d="M 108.5,73.5 C 108.167,73.5 107.833,73.5 107.5,73.5C 101.742,76.038 96.0753,78.8713 90.5,82C 85.5937,86.9137 80.427,91.4137 75,95.5C 67.2542,91.6497 66.4208,86.483 72.5,80C 73.4491,79.3828 74.2825,79.5494 75,80.5C 77.0593,79.4032 77.5593,78.0699 76.5,76.5C 76.7086,75.0783 77.2086,73.745 78,72.5C 82.6781,68.4867 87.3448,64.4867 92,60.5C 97.5679,63.0329 102.735,66.1996 107.5,70C 108.337,71.0113 108.67,72.1779 108.5,73.5 Z"/></g>
<g><path style="opacity:1" fill="#525753" d="M 120.5,33.5 C 120.67,34.8221 120.337,35.9887 119.5,37C 116.929,37.9009 114.596,39.2342 112.5,41C 107.625,46.0427 102.625,50.876 97.5,55.5C 101.854,59.5219 106.187,63.5219 110.5,67.5C 109.833,69.5 109.167,71.5 108.5,73.5C 108.67,72.1779 108.337,71.0113 107.5,70C 102.735,66.1996 97.5679,63.0329 92,60.5C 87.3448,64.4867 82.6781,68.4867 78,72.5C 77.2086,73.745 76.7086,75.0783 76.5,76.5C 75.5,76.5 74.5,76.5 73.5,76.5C 73.3505,75.448 73.5172,74.448 74,73.5C 78.3748,68.9571 82.8748,64.6238 87.5,60.5C 90.0272,59.7864 92.5272,59.1197 95,58.5C 96.5193,56.8608 96.686,55.1942 95.5,53.5C 101.255,48.7492 106.255,43.4159 110.5,37.5C 111.552,37.6495 112.552,37.4828 113.5,37C 115.017,35.3149 116.684,33.8149 118.5,32.5C 119.183,32.8627 119.85,33.1961 120.5,33.5 Z"/></g>
<g><path style="opacity:1" fill="#5b5d5d" d="M 73.5,42.5 C 71.5446,43.4474 71.2113,44.7807 72.5,46.5C 69.1914,53.5832 67.0248,60.9166 66,68.5C 69.0083,61.4659 72.0083,54.4659 75,47.5C 75.21,49.0581 75.71,50.3915 76.5,51.5C 73.0353,59.1018 69.5353,66.7685 66,74.5C 65.1558,76.4628 65.6558,77.7961 67.5,78.5C 66.1604,83.3342 64.1604,84.0009 61.5,80.5C 60.6143,81.325 60.281,82.325 60.5,83.5C 59.8333,83.5 59.1667,83.5 58.5,83.5C 60.8386,72.6827 64.0052,62.0161 68,51.5C 68.498,48.5184 68.6646,45.5184 68.5,42.5C 70.1667,42.5 71.8333,42.5 73.5,42.5 Z"/></g>
<g><path style="opacity:1" fill="#575e58" d="M 198.5,135.5 C 197.698,134.048 197.198,132.382 197,130.5C 196.667,131.167 196.333,131.833 196,132.5C 196.114,140.375 195.114,148.042 193,155.5C 192.601,155.272 192.435,154.938 192.5,154.5C 193.407,146.208 193.74,137.875 193.5,129.5C 192.574,111.666 184.741,97.3324 170,86.5C 169.536,87.0944 169.369,87.7611 169.5,88.5C 165.019,84.8316 160.019,81.9983 154.5,80C 153.107,78.8289 152.273,77.3289 152,75.5C 149.789,75.663 147.622,75.663 145.5,75.5C 142.559,72.7049 139.559,72.3716 136.5,74.5C 135.289,73.7261 135.289,72.8928 136.5,72C 135.128,71.5983 133.795,71.0983 132.5,70.5C 128.564,72.3583 124.564,73.025 120.5,72.5C 119.522,72.9767 118.689,73.6433 118,74.5C 116.667,73.1667 115.333,73.1667 114,74.5C 112.961,73.7562 112.461,72.7562 112.5,71.5C 137.827,65.9947 159.827,71.9947 178.5,89.5C 191.163,102.165 197.83,117.499 198.5,135.5 Z"/></g>
<g><path style="opacity:1" fill="#434847" d="M 185.5,122.5 C 185.632,125.57 185.299,128.57 184.5,131.5C 179.346,105.513 163.679,90.0131 137.5,85C 130.797,84.2869 124.13,84.4536 117.5,85.5C 117.5,84.5 117.5,83.5 117.5,82.5C 150.88,77.9215 173.547,91.2549 185.5,122.5 Z"/></g>
<g><path style="opacity:1" fill="#5329d5" d="M 117.5,82.5 C 117.5,83.5 117.5,84.5 117.5,85.5C 119.889,93.1683 122.389,100.835 125,108.5C 125.495,110.473 125.662,112.473 125.5,114.5C 125.864,119.652 126.864,124.652 128.5,129.5C 125.598,127.949 123.931,125.615 123.5,122.5C 123.198,119.627 122.531,116.961 121.5,114.5C 120.911,109.842 119.578,105.509 117.5,101.5C 117.737,100.209 117.404,99.209 116.5,98.5C 116.074,94.5732 115.074,90.9065 113.5,87.5C 112.081,83.9852 111.414,80.3186 111.5,76.5C 112.675,76.281 113.675,76.6143 114.5,77.5C 115.275,79.3964 116.275,81.063 117.5,82.5 Z"/></g>
<g><path style="opacity:1" fill="#2a2e2b" d="M 36.5,-0.5 C 39.1667,-0.5 41.8333,-0.5 44.5,-0.5C 44.1382,27.956 46.4715,56.1227 51.5,84C 50.057,86.0777 50.7237,86.9111 53.5,86.5C 51.5018,87.1475 49.5018,87.9808 47.5,89C 48.9304,90.4404 50.597,90.7737 52.5,90C 51.8333,89.6667 51.1667,89.3333 50.5,89C 52.3869,88.2204 54.0536,88.3871 55.5,89.5C 49.8782,91.0691 49.5448,92.9025 54.5,95C 59.0774,99.6795 58.0774,101.846 51.5,101.5C 49.0225,101.051 47.0225,101.717 45.5,103.5C 46.9308,105.938 48.9308,107.604 51.5,108.5C 52.5,109.167 53.5,109.833 54.5,110.5C 51.8333,110.167 49.1667,109.833 46.5,109.5C 42.8072,105.262 40.9739,100.262 41,94.5C 33.0748,89.7378 25.5748,84.4045 18.5,78.5C 18.9858,76.5026 20.1525,75.1693 22,74.5C 28.7548,79.1269 35.5882,83.6269 42.5,88C 43.7932,88.49 45.1266,88.6567 46.5,88.5C 45.9067,78.4506 44.9067,68.4506 43.5,58.5C 42.8102,43.9129 41.1436,29.5796 38.5,15.5C 37.7027,10.197 37.036,4.86365 36.5,-0.5 Z"/></g>
<g><path style="opacity:1" fill="#121513" d="M 58.5,83.5 C 59.1667,83.5 59.8333,83.5 60.5,83.5C 61.8645,87.6228 63.5311,91.6228 65.5,95.5C 62.0217,95.8158 58.6883,95.3158 55.5,94C 57.9818,92.5394 57.9818,91.0394 55.5,89.5C 54.0536,88.3871 52.3869,88.2204 50.5,89C 51.1667,89.3333 51.8333,89.6667 52.5,90C 50.597,90.7737 48.9304,90.4404 47.5,89C 49.5018,87.9808 51.5018,87.1475 53.5,86.5C 56.285,87.0838 57.9517,86.0838 58.5,83.5 Z"/></g>
<g><path style="opacity:1" fill="#ebedf1" d="M 107.5,89.5 C 109.167,89.5 110.833,89.5 112.5,89.5C 112.259,91.8984 112.926,93.8984 114.5,95.5C 115.465,99.7726 116.131,104.106 116.5,108.5C 112.333,109.1 108.167,109.766 104,110.5C 100.929,110.216 98.0954,109.216 95.5,107.5C 94.707,108.355 95.0403,109.189 96.5,110C 94.735,110.64 93.0683,110.473 91.5,109.5C 89.7261,108.983 88.0595,108.65 86.5,108.5C 86.7086,107.078 87.2086,105.745 88,104.5C 92.0621,100.269 96.2288,96.2688 100.5,92.5C 102.98,91.758 105.313,90.758 107.5,89.5 Z"/></g>
<g><path style="opacity:1" fill="#d3d5d6" d="M 51.5,101.5 C 53.8504,103.213 54.8504,105.547 54.5,108.5C 53.5,108.5 52.5,108.5 51.5,108.5C 48.9308,107.604 46.9308,105.938 45.5,103.5C 47.0225,101.717 49.0225,101.051 51.5,101.5 Z"/></g>
<g><path style="opacity:1" fill="#ecedf2" d="M 184.5,131.5 C 185.072,156.87 174.406,175.704 152.5,188C 123.502,198.166 100.502,190.666 83.5,165.5C 79.0035,157.522 76.6702,148.855 76.5,139.5C 76.5,138.5 76.5,137.5 76.5,136.5C 76.3336,132.326 77.0003,128.326 78.5,124.5C 79.404,123.791 79.7373,122.791 79.5,121.5C 88.0791,125.123 96.4125,129.29 104.5,134C 105.793,134.49 107.127,134.657 108.5,134.5C 110.117,135.038 111.784,135.371 113.5,135.5C 113.352,138.705 114.019,142.038 115.5,145.5C 114.533,147.762 113.866,150.095 113.5,152.5C 112.624,152.369 111.957,152.702 111.5,153.5C 113.289,156.556 113.956,159.889 113.5,163.5C 112.178,163.33 111.011,163.663 110,164.5C 109.297,166.929 109.463,169.262 110.5,171.5C 112.607,172.468 114.941,172.802 117.5,172.5C 117.334,168.486 117.501,164.486 118,160.5C 120.533,160.05 122.7,159.05 124.5,157.5C 125.404,156.791 125.737,155.791 125.5,154.5C 128.85,154.665 132.183,154.498 135.5,154C 137.066,153.392 138.4,152.558 139.5,151.5C 146.212,146.643 148.212,140.31 145.5,132.5C 143.737,129.111 142.07,125.778 140.5,122.5C 138.43,122.551 136.597,121.885 135,120.5C 133.333,118.833 131.667,117.167 130,115.5C 129.098,115.743 128.265,116.077 127.5,116.5C 127.167,115.5 126.5,114.833 125.5,114.5C 125.662,112.473 125.495,110.473 125,108.5C 122.389,100.835 119.889,93.1683 117.5,85.5C 124.13,84.4536 130.797,84.2869 137.5,85C 163.679,90.0131 179.346,105.513 184.5,131.5 Z"/></g>
<g><path style="opacity:1" fill="#617f50" d="M 85.5,108.5 C 85.8333,108.5 86.1667,108.5 86.5,108.5C 88.0595,108.65 89.7261,108.983 91.5,109.5C 91.5,110.167 91.5,110.833 91.5,111.5C 92.5,112.833 93.5,114.167 94.5,115.5C 91.1667,113.833 87.8333,112.167 84.5,110.5C 84.8333,109.833 85.1667,109.167 85.5,108.5 Z"/></g>
<g><path style="opacity:1" fill="#3f4440" d="M 75.5,42.5 C 80.6102,44.5572 85.2769,47.3906 89.5,51C 91.1966,51.3845 92.8632,51.2178 94.5,50.5C 94.2627,51.791 94.596,52.791 95.5,53.5C 96.686,55.1942 96.5193,56.8608 95,58.5C 92.5272,59.1197 90.0272,59.7864 87.5,60.5C 82.8748,64.6238 78.3748,68.9571 74,73.5C 73.5172,74.448 73.3505,75.448 73.5,76.5C 74.5,76.5 75.5,76.5 76.5,76.5C 77.5593,78.0699 77.0593,79.4032 75,80.5C 74.2825,79.5494 73.4491,79.3828 72.5,80C 66.4208,86.483 67.2542,91.6497 75,95.5C 80.427,91.4137 85.5937,86.9137 90.5,82C 96.0753,78.8713 101.742,76.038 107.5,73.5C 106.989,75.1947 106.322,76.8614 105.5,78.5C 95.7265,82.9404 87.3932,89.2737 80.5,97.5C 85.5351,102.856 89.8684,102.189 93.5,95.5C 95.7938,94.2943 98.1272,93.2943 100.5,92.5C 96.2288,96.2688 92.0621,100.269 88,104.5C 87.2086,105.745 86.7086,107.078 86.5,108.5C 86.1667,108.5 85.8333,108.5 85.5,108.5C 84.9478,106.669 84.9478,105.003 85.5,103.5C 80.8014,99.6427 75.4681,97.8094 69.5,98C 68.6198,99.3561 68.2865,100.856 68.5,102.5C 69.675,102.281 70.675,102.614 71.5,103.5C 70.0202,104.113 68.6869,104.446 67.5,104.5C 68.6933,106.527 70.36,108.027 72.5,109C 70.603,111.734 68.2697,113.9 65.5,115.5C 65.0745,112.881 64.0745,110.547 62.5,108.5C 60.5,109.167 58.5,109.833 56.5,110.5C 55.8333,110.5 55.1667,110.5 54.5,110.5C 53.5,109.833 52.5,109.167 51.5,108.5C 52.5,108.5 53.5,108.5 54.5,108.5C 54.8504,105.547 53.8504,103.213 51.5,101.5C 58.0774,101.846 59.0774,99.6795 54.5,95C 49.5448,92.9025 49.8782,91.0691 55.5,89.5C 57.9818,91.0394 57.9818,92.5394 55.5,94C 58.6883,95.3158 62.0217,95.8158 65.5,95.5C 63.5311,91.6228 61.8645,87.6228 60.5,83.5C 60.281,82.325 60.6143,81.325 61.5,80.5C 64.1604,84.0009 66.1604,83.3342 67.5,78.5C 68.4617,75.2432 69.9617,72.2432 72,69.5C 77.9618,65.2372 80.9618,59.5705 81,52.5C 80.1841,51.1772 79.0174,50.5106 77.5,50.5C 76.3608,47.9963 75.6941,45.3297 75.5,42.5 Z"/></g>
<g><path style="opacity:1" fill="#111512" d="M 62.5,108.5 C 55.2826,102.243 56.6159,98.9095 66.5,98.5C 65.8641,101.106 65.8641,103.606 66.5,106C 65.6921,107.706 64.3588,108.539 62.5,108.5 Z"/></g>
<g><path style="opacity:1" fill="#b8bebb" d="M 114.5,95.5 C 115.167,96.5 115.833,97.5 116.5,98.5C 117.404,99.209 117.737,100.209 117.5,101.5C 117.335,104.518 117.502,107.518 118,110.5C 118.66,112.324 119.827,113.657 121.5,114.5C 121.802,117.059 121.468,119.393 120.5,121.5C 119.87,117.562 118.537,113.895 116.5,110.5C 112.694,110.412 109.027,111.079 105.5,112.5C 107.679,113.757 109.679,115.257 111.5,117C 108.393,116.78 105.727,115.447 103.5,113C 99.4517,112.696 95.4517,112.196 91.5,111.5C 91.5,110.833 91.5,110.167 91.5,109.5C 93.0683,110.473 94.735,110.64 96.5,110C 95.0403,109.189 94.707,108.355 95.5,107.5C 98.0954,109.216 100.929,110.216 104,110.5C 108.167,109.766 112.333,109.1 116.5,108.5C 116.131,104.106 115.465,99.7726 114.5,95.5 Z"/></g>
<g><path style="opacity:1" fill="#848c85" d="M 193.5,129.5 C 190.875,112.57 182.875,98.9032 169.5,88.5C 169.369,87.7611 169.536,87.0944 170,86.5C 184.741,97.3324 192.574,111.666 193.5,129.5 Z"/></g>
<g><path style="opacity:1" fill="#718289" d="M 117.5,101.5 C 119.578,105.509 120.911,109.842 121.5,114.5C 119.827,113.657 118.66,112.324 118,110.5C 117.502,107.518 117.335,104.518 117.5,101.5 Z"/></g>
<g><path style="opacity:1" fill="#e5e6ea" d="M 62.5,108.5 C 64.0745,110.547 65.0745,112.881 65.5,115.5C 65.5,116.5 65.5,117.5 65.5,118.5C 64.0652,119.79 63.0652,121.456 62.5,123.5C 58.3219,119.821 54.3219,115.988 50.5,112C 52.7078,111.809 54.7078,111.309 56.5,110.5C 58.5,109.833 60.5,109.167 62.5,108.5 Z"/></g>
<g><path style="opacity:1" fill="#bcceb6" d="M 83.5,112.5 C 85.5486,113.882 87.2153,115.548 88.5,117.5C 87.5,117.5 86.5,117.5 85.5,117.5C 84.5442,116.341 83.5442,115.174 82.5,114C 82.5699,113.235 82.9033,112.735 83.5,112.5 Z"/></g>
<g><path style="opacity:1" fill="#272c29" d="M 85.5,108.5 C 85.1667,109.167 84.8333,109.833 84.5,110.5C 83.6618,110.842 83.3284,111.508 83.5,112.5C 82.9033,112.735 82.5699,113.235 82.5,114C 83.5442,115.174 84.5442,116.341 85.5,117.5C 87.4789,120.146 89.8122,122.479 92.5,124.5C 88.6298,122.983 84.7964,121.316 81,119.5C 78.8434,120.385 78.0101,122.052 78.5,124.5C 77.0003,128.326 76.3336,132.326 76.5,136.5C 71.4867,133.487 67.4867,129.487 64.5,124.5C 64.5172,122.435 64.8505,120.435 65.5,118.5C 65.5,117.5 65.5,116.5 65.5,115.5C 68.2697,113.9 70.603,111.734 72.5,109C 70.36,108.027 68.6933,106.527 67.5,104.5C 68.6869,104.446 70.0202,104.113 71.5,103.5C 70.675,102.614 69.675,102.281 68.5,102.5C 68.2865,100.856 68.6198,99.3561 69.5,98C 75.4681,97.8094 80.8014,99.6427 85.5,103.5C 84.9478,105.003 84.9478,106.669 85.5,108.5 Z"/></g>
<g><path style="opacity:1" fill="#202623" d="M 110.5,67.5 C 112.176,68.1834 112.843,69.5168 112.5,71.5C 112.461,72.7562 112.961,73.7562 114,74.5C 115.333,73.1667 116.667,73.1667 118,74.5C 118.689,73.6433 119.522,72.9767 120.5,72.5C 124.564,73.025 128.564,72.3583 132.5,70.5C 133.795,71.0983 135.128,71.5983 136.5,72C 135.289,72.8928 135.289,73.7261 136.5,74.5C 139.559,72.3716 142.559,72.7049 145.5,75.5C 147.622,75.663 149.789,75.663 152,75.5C 152.273,77.3289 153.107,78.8289 154.5,80C 160.019,81.9983 165.019,84.8316 169.5,88.5C 182.875,98.9032 190.875,112.57 193.5,129.5C 193.74,137.875 193.407,146.208 192.5,154.5C 188.129,169.379 179.629,181.379 167,190.5C 166.805,191.819 166.972,193.153 167.5,194.5C 165.598,193.489 163.598,193.322 161.5,194C 149.061,202.059 135.395,204.725 120.5,202C 111.193,200.01 102.36,196.843 94,192.5C 93.0546,192.905 92.3879,193.572 92,194.5C 91.3292,193.748 90.4959,193.414 89.5,193.5C 81.434,188.167 75.434,181.167 71.5,172.5C 72.1079,171.2 72.7745,169.867 73.5,168.5C 69.9287,160.468 67.4287,152.135 66,143.5C 63.0311,142.397 62.8645,141.064 65.5,139.5C 62.8333,137.833 62.8333,136.167 65.5,134.5C 63.5213,132.736 63.188,130.736 64.5,128.5C 68.2916,132.443 72.2916,136.109 76.5,139.5C 76.6702,148.855 79.0035,157.522 83.5,165.5C 83.4158,168.748 84.2492,171.748 86,174.5C 106.606,196.74 130.773,201.407 158.5,188.5C 161.825,187.599 163.992,185.599 165,182.5C 169.589,180.332 173.089,176.998 175.5,172.5C 174.45,170.898 175.117,170.065 177.5,170C 182.986,163.182 185.82,155.348 186,146.5C 186.823,138.323 186.656,130.323 185.5,122.5C 173.547,91.2549 150.88,77.9215 117.5,82.5C 116.275,81.063 115.275,79.3964 114.5,77.5C 113.675,76.6143 112.675,76.281 111.5,76.5C 111.414,80.3186 112.081,83.9852 113.5,87.5C 111.102,87.2594 109.102,87.9261 107.5,89.5C 105.313,90.758 102.98,91.758 100.5,92.5C 98.1272,93.2943 95.7938,94.2943 93.5,95.5C 89.8684,102.189 85.5351,102.856 80.5,97.5C 87.3932,89.2737 95.7265,82.9404 105.5,78.5C 106.322,76.8614 106.989,75.1947 107.5,73.5C 107.833,73.5 108.167,73.5 108.5,73.5C 109.167,71.5 109.833,69.5 110.5,67.5 Z"/></g>
<g><path style="opacity:1" fill="#959ea7" d="M 113.5,87.5 C 115.074,90.9065 116.074,94.5732 116.5,98.5C 115.833,97.5 115.167,96.5 114.5,95.5C 112.926,93.8984 112.259,91.8984 112.5,89.5C 110.833,89.5 109.167,89.5 107.5,89.5C 109.102,87.9261 111.102,87.2594 113.5,87.5 Z"/></g>
<g><path style="opacity:1" fill="#a8aab2" d="M 92.5,124.5 C 92.8417,125.338 93.5084,125.672 94.5,125.5C 98.8871,128.531 103.554,131.197 108.5,133.5C 108.5,133.833 108.5,134.167 108.5,134.5C 107.127,134.657 105.793,134.49 104.5,134C 96.4125,129.29 88.0791,125.123 79.5,121.5C 79.7373,122.791 79.404,123.791 78.5,124.5C 78.0101,122.052 78.8434,120.385 81,119.5C 84.7964,121.316 88.6298,122.983 92.5,124.5 Z"/></g>
<g><path style="opacity:1" fill="#412a9f" d="M 85.5,117.5 C 86.5,117.5 87.5,117.5 88.5,117.5C 90.2546,118.904 92.2546,119.904 94.5,120.5C 94.5,120.833 94.5,121.167 94.5,121.5C 93.7611,121.369 93.0944,121.536 92.5,122C 93.8228,122.816 94.4894,123.983 94.5,125.5C 93.5084,125.672 92.8417,125.338 92.5,124.5C 89.8122,122.479 87.4789,120.146 85.5,117.5 Z"/></g>
<g><path style="opacity:1" fill="#a4a6a9" d="M 46.5,109.5 C 49.1667,109.833 51.8333,110.167 54.5,110.5C 55.1667,110.5 55.8333,110.5 56.5,110.5C 54.7078,111.309 52.7078,111.809 50.5,112C 54.3219,115.988 58.3219,119.821 62.5,123.5C 63.0652,121.456 64.0652,119.79 65.5,118.5C 64.8505,120.435 64.5172,122.435 64.5,124.5C 63.1667,124.5 62.5,125.167 62.5,126.5C 57.1667,120.833 51.8333,115.167 46.5,109.5 Z"/></g>
<g><path style="opacity:1" fill="#6e8581" d="M 94.5,121.5 C 94.5,121.167 94.5,120.833 94.5,120.5C 96.0269,120.427 97.0269,121.094 97.5,122.5C 96.391,122.443 95.391,122.11 94.5,121.5 Z"/></g>
<g><path style="opacity:1" fill="#7fc247" d="M 84.5,110.5 C 87.8333,112.167 91.1667,113.833 94.5,115.5C 98.8228,118.003 102.823,121.003 106.5,124.5C 103.833,123.833 101.167,123.167 98.5,122.5C 98.1667,122.5 97.8333,122.5 97.5,122.5C 97.0269,121.094 96.0269,120.427 94.5,120.5C 92.2546,119.904 90.2546,118.904 88.5,117.5C 87.2153,115.548 85.5486,113.882 83.5,112.5C 83.3284,111.508 83.6618,110.842 84.5,110.5 Z"/></g>
<g><path style="opacity:1" fill="#79966d" d="M 98.5,122.5 C 101.167,123.167 103.833,123.833 106.5,124.5C 107.71,124.932 108.71,125.599 109.5,126.5C 108.167,126.5 106.833,126.5 105.5,126.5C 102.669,125.921 100.336,124.588 98.5,122.5 Z"/></g>
<g><path style="opacity:1" fill="#dee0e3" d="M 120.5,121.5 C 119.046,129.053 115.379,130.72 109.5,126.5C 108.71,125.599 107.71,124.932 106.5,124.5C 102.823,121.003 98.8228,118.003 94.5,115.5C 93.5,114.167 92.5,112.833 91.5,111.5C 95.4517,112.196 99.4517,112.696 103.5,113C 105.727,115.447 108.393,116.78 111.5,117C 109.679,115.257 107.679,113.757 105.5,112.5C 109.027,111.079 112.694,110.412 116.5,110.5C 118.537,113.895 119.87,117.562 120.5,121.5 Z"/></g>
<g><path style="opacity:1" fill="#434844" d="M 145.5,132.5 C 145.559,134.765 144.726,135.098 143,133.5C 142.055,133.905 141.388,134.572 141,135.5C 140.46,133.865 140.96,132.532 142.5,131.5C 140.577,130.692 138.577,130.192 136.5,130C 136.848,127.945 136.181,125.945 134.5,124C 132.811,124.134 131.144,124.634 129.5,125.5C 129.595,122.308 128.929,119.308 127.5,116.5C 128.265,116.077 129.098,115.743 130,115.5C 131.667,117.167 133.333,118.833 135,120.5C 136.597,121.885 138.43,122.551 140.5,122.5C 142.07,125.778 143.737,129.111 145.5,132.5 Z"/></g>
<g><path style="opacity:1" fill="#9270da" d="M 125.5,114.5 C 126.5,114.833 127.167,115.5 127.5,116.5C 128.929,119.308 129.595,122.308 129.5,125.5C 129.784,127.415 129.451,129.081 128.5,130.5C 128.5,130.167 128.5,129.833 128.5,129.5C 126.864,124.652 125.864,119.652 125.5,114.5 Z"/></g>
<g><path style="opacity:1" fill="#332b54" d="M 123.5,122.5 C 123.931,125.615 125.598,127.949 128.5,129.5C 128.5,129.833 128.5,130.167 128.5,130.5C 128.5,131.167 128.5,131.833 128.5,132.5C 124.427,131.413 122.761,128.746 123.5,124.5C 123.5,123.833 123.5,123.167 123.5,122.5 Z"/></g>
<g><path style="opacity:1" fill="#3b1ad4" d="M 94.5,121.5 C 95.391,122.11 96.391,122.443 97.5,122.5C 97.8333,122.5 98.1667,122.5 98.5,122.5C 100.336,124.588 102.669,125.921 105.5,126.5C 107.473,127.806 109.139,129.473 110.5,131.5C 110.5,132.833 109.833,133.5 108.5,133.5C 103.554,131.197 98.8871,128.531 94.5,125.5C 94.4894,123.983 93.8228,122.816 92.5,122C 93.0944,121.536 93.7611,121.369 94.5,121.5 Z"/></g>
<g><path style="opacity:1" fill="#1d231d" d="M 123.5,124.5 C 122.761,128.746 124.427,131.413 128.5,132.5C 128.5,132.833 128.5,133.167 128.5,133.5C 129.087,134.767 129.087,135.767 128.5,136.5C 126.118,134.929 123.451,134.096 120.5,134C 119.624,132.415 118.291,131.415 116.5,131C 118.112,130.28 119.612,130.446 121,131.5C 122.188,130.437 122.688,129.103 122.5,127.5C 121.448,127.649 120.448,127.483 119.5,127C 120.471,125.519 121.804,124.685 123.5,124.5 Z"/></g>
<g><path style="opacity:1" fill="#49398d" d="M 110.5,131.5 C 112.262,132.262 113.262,133.596 113.5,135.5C 111.784,135.371 110.117,135.038 108.5,134.5C 108.5,134.167 108.5,133.833 108.5,133.5C 109.833,133.5 110.5,132.833 110.5,131.5 Z"/></g>
<g><path style="opacity:1" fill="#4b504e" d="M 121.5,114.5 C 122.531,116.961 123.198,119.627 123.5,122.5C 123.5,123.167 123.5,123.833 123.5,124.5C 121.804,124.685 120.471,125.519 119.5,127C 120.448,127.483 121.448,127.649 122.5,127.5C 122.688,129.103 122.188,130.437 121,131.5C 119.612,130.446 118.112,130.28 116.5,131C 118.291,131.415 119.624,132.415 120.5,134C 123.451,134.096 126.118,134.929 128.5,136.5C 129.087,135.767 129.087,134.767 128.5,133.5C 129.482,134.141 130.482,134.807 131.5,135.5C 132.308,133.577 132.808,131.577 133,129.5C 135.987,130.276 136.82,131.943 135.5,134.5C 136.727,135.59 137.56,136.924 138,138.5C 138.889,137.112 139.389,137.278 139.5,139C 136.396,141.379 135.063,144.545 135.5,148.5C 136.833,148.5 138.167,148.5 139.5,148.5C 139.5,149.5 139.5,150.5 139.5,151.5C 138.4,152.558 137.066,153.392 135.5,154C 132.183,154.498 128.85,154.665 125.5,154.5C 125.737,155.791 125.404,156.791 124.5,157.5C 123.508,157.672 122.842,157.338 122.5,156.5C 125.125,155.542 125.125,154.376 122.5,153C 126.852,151.993 130.852,150.327 134.5,148C 133.285,145.904 132.451,146.071 132,148.5C 131.667,148.167 131.333,147.833 131,147.5C 130.577,148.956 129.744,149.456 128.5,149C 129.719,146.717 129.719,144.384 128.5,142C 127.381,140.124 125.714,139.291 123.5,139.5C 123.557,135.867 122.557,135.7 120.5,139C 121.5,139.833 122.5,140.667 123.5,141.5C 122.397,141.998 121.397,142.331 120.5,142.5C 122.978,143.722 123.978,145.722 123.5,148.5C 122.127,148.343 120.793,148.51 119.5,149C 118.111,151.188 116.111,152.354 113.5,152.5C 113.866,150.095 114.533,147.762 115.5,145.5C 114.019,142.038 113.352,138.705 113.5,135.5C 113.262,133.596 112.262,132.262 110.5,131.5C 109.139,129.473 107.473,127.806 105.5,126.5C 106.833,126.5 108.167,126.5 109.5,126.5C 115.379,130.72 119.046,129.053 120.5,121.5C 121.468,119.393 121.802,117.059 121.5,114.5 Z"/></g>
<g><path style="opacity:1" fill="#797d7e" d="M 145.5,132.5 C 148.212,140.31 146.212,146.643 139.5,151.5C 139.5,150.5 139.5,149.5 139.5,148.5C 138.167,148.5 136.833,148.5 135.5,148.5C 135.063,144.545 136.396,141.379 139.5,139C 139.389,137.278 138.889,137.112 138,138.5C 137.56,136.924 136.727,135.59 135.5,134.5C 136.82,131.943 135.987,130.276 133,129.5C 132.808,131.577 132.308,133.577 131.5,135.5C 130.482,134.807 129.482,134.141 128.5,133.5C 128.5,133.167 128.5,132.833 128.5,132.5C 128.5,131.833 128.5,131.167 128.5,130.5C 129.451,129.081 129.784,127.415 129.5,125.5C 131.144,124.634 132.811,124.134 134.5,124C 136.181,125.945 136.848,127.945 136.5,130C 138.577,130.192 140.577,130.692 142.5,131.5C 140.96,132.532 140.46,133.865 141,135.5C 141.388,134.572 142.055,133.905 143,133.5C 144.726,135.098 145.559,134.765 145.5,132.5 Z"/></g>
<g><path style="opacity:1" fill="#343838" d="M 185.5,122.5 C 186.656,130.323 186.823,138.323 186,146.5C 185.82,155.348 182.986,163.182 177.5,170C 175.117,170.065 174.45,170.898 175.5,172.5C 173.089,176.998 169.589,180.332 165,182.5C 163.992,185.599 161.825,187.599 158.5,188.5C 130.773,201.407 106.606,196.74 86,174.5C 84.2492,171.748 83.4158,168.748 83.5,165.5C 100.502,190.666 123.502,198.166 152.5,188C 174.406,175.704 185.072,156.87 184.5,131.5C 185.299,128.57 185.632,125.57 185.5,122.5 Z"/></g>
<g><path style="opacity:1" fill="#444946" d="M 64.5,124.5 C 67.4867,129.487 71.4867,133.487 76.5,136.5C 76.5,137.5 76.5,138.5 76.5,139.5C 72.2916,136.109 68.2916,132.443 64.5,128.5C 63.188,130.736 63.5213,132.736 65.5,134.5C 62.8333,136.167 62.8333,137.833 65.5,139.5C 62.8645,141.064 63.0311,142.397 66,143.5C 67.4287,152.135 69.9287,160.468 73.5,168.5C 72.7745,169.867 72.1079,171.2 71.5,172.5C 69.4409,169.389 67.6076,166.056 66,162.5C 62.8849,150.709 61.7182,138.709 62.5,126.5C 62.5,125.167 63.1667,124.5 64.5,124.5 Z"/></g>
<g><path style="opacity:1" fill="#303430" d="M 122.5,156.5 C 120.084,159.104 117.917,158.771 116,155.5C 114.763,159.429 114.263,163.263 114.5,167C 114.439,168.711 115.106,170.044 116.5,171C 114.892,171.658 113.725,171.158 113,169.5C 112.583,170.756 111.75,171.423 110.5,171.5C 109.463,169.262 109.297,166.929 110,164.5C 111.011,163.663 112.178,163.33 113.5,163.5C 113.956,159.889 113.289,156.556 111.5,153.5C 111.957,152.702 112.624,152.369 113.5,152.5C 116.111,152.354 118.111,151.188 119.5,149C 120.793,148.51 122.127,148.343 123.5,148.5C 123.978,145.722 122.978,143.722 120.5,142.5C 121.397,142.331 122.397,141.998 123.5,141.5C 122.5,140.667 121.5,139.833 120.5,139C 122.557,135.7 123.557,135.867 123.5,139.5C 125.714,139.291 127.381,140.124 128.5,142C 129.719,144.384 129.719,146.717 128.5,149C 129.744,149.456 130.577,148.956 131,147.5C 131.333,147.833 131.667,148.167 132,148.5C 132.451,146.071 133.285,145.904 134.5,148C 130.852,150.327 126.852,151.993 122.5,153C 125.125,154.376 125.125,155.542 122.5,156.5 Z"/></g>
<g><path style="opacity:1" fill="#747676" d="M 122.5,156.5 C 122.842,157.338 123.508,157.672 124.5,157.5C 122.7,159.05 120.533,160.05 118,160.5C 117.501,164.486 117.334,168.486 117.5,172.5C 114.941,172.802 112.607,172.468 110.5,171.5C 111.75,171.423 112.583,170.756 113,169.5C 113.725,171.158 114.892,171.658 116.5,171C 115.106,170.044 114.439,168.711 114.5,167C 114.263,163.263 114.763,159.429 116,155.5C 117.917,158.771 120.084,159.104 122.5,156.5 Z"/></g>
<g><path style="opacity:1" fill="#373c39" d="M 198.5,135.5 C 198.784,156.598 191.451,174.431 176.5,189C 173.833,191.526 170.833,193.359 167.5,194.5C 166.972,193.153 166.805,191.819 167,190.5C 179.629,181.379 188.129,169.379 192.5,154.5C 192.435,154.938 192.601,155.272 193,155.5C 195.114,148.042 196.114,140.375 196,132.5C 196.333,131.833 196.667,131.167 197,130.5C 197.198,132.382 197.698,134.048 198.5,135.5 Z"/></g>
<g><path style="opacity:1" fill="#414742" d="M 167.5,194.5 C 167.063,196.074 166.063,197.241 164.5,198C 138.469,211.69 113.469,210.19 89.5,193.5C 90.4959,193.414 91.3292,193.748 92,194.5C 92.3879,193.572 93.0546,192.905 94,192.5C 102.36,196.843 111.193,200.01 120.5,202C 135.395,204.725 149.061,202.059 161.5,194C 163.598,193.322 165.598,193.489 167.5,194.5 Z"/></g>
</svg>
