<?xml version="1.0" encoding="UTF-8"?>
<!DOCTYPE svg PUBLIC "-//W3C//DTD SVG 1.1//EN" "http://www.w3.org/Graphics/SVG/1.1/DTD/svg11.dtd">
<svg xmlns="http://www.w3.org/2000/svg" version="1.1" width="720px" height="132px" style="shape-rendering:geometricPrecision; text-rendering:geometricPrecision; image-rendering:optimizeQuality; fill-rule:evenodd; clip-rule:evenodd" xmlns:xlink="http://www.w3.org/1999/xlink">
<g><path style="opacity:0.974" fill="#fcb72d" d="M 39.5,-0.5 C 55.5,-0.5 71.5,-0.5 87.5,-0.5C 87.5,0.833333 87.5,2.16667 87.5,3.5C 90.1667,3.5 92.8333,3.5 95.5,3.5C 95.5,4.83333 95.5,6.16667 95.5,7.5C 96.8333,7.5 98.1667,7.5 99.5,7.5C 100.833,7.5 102.167,7.5 103.5,7.5C 103.5,8.83333 103.5,10.1667 103.5,11.5C 104.833,11.5 106.167,11.5 107.5,11.5C 107.5,12.8333 107.5,14.1667 107.5,15.5C 108.833,15.5 110.167,15.5 111.5,15.5C 111.5,16.8333 111.5,18.1667 111.5,19.5C 112.833,19.5 114.167,19.5 115.5,19.5C 115.5,20.8333 115.5,22.1667 115.5,23.5C 116.833,23.5 118.167,23.5 119.5,23.5C 119.5,24.8333 119.5,26.1667 119.5,27.5C 119.5,28.8333 119.5,30.1667 119.5,31.5C 120.833,31.5 122.167,31.5 123.5,31.5C 123.5,32.8333 123.5,34.1667 123.5,35.5C 123.5,36.8333 123.5,38.1667 123.5,39.5C 124.833,39.5 126.167,39.5 127.5,39.5C 127.5,43.5 127.5,47.5 127.5,51.5C 128.833,51.5 130.167,51.5 131.5,51.5C 131.5,59.5 131.5,67.5 131.5,75.5C 130.167,75.5 128.833,75.5 127.5,75.5C 127.5,76.8333 127.5,78.1667 127.5,79.5C 127.5,83.5 127.5,87.5 127.5,91.5C 126.167,91.5 124.833,91.5 123.5,91.5C 123.5,94.1667 123.5,96.8333 123.5,99.5C 122.167,99.5 120.833,99.5 119.5,99.5C 119.5,100.833 119.5,102.167 119.5,103.5C 118.167,103.5 116.833,103.5 115.5,103.5C 115.5,102.167 115.5,100.833 115.5,99.5C 114.167,99.5 112.833,99.5 111.5,99.5C 111.5,96.8333 111.5,94.1667 111.5,91.5C 111.5,90.1667 111.5,88.8333 111.5,87.5C 110.167,87.5 108.833,87.5 107.5,87.5C 107.5,86.1667 107.5,84.8333 107.5,83.5C 106.167,83.5 104.833,83.5 103.5,83.5C 103.5,82.1667 103.5,80.8333 103.5,79.5C 103.5,78.1667 103.5,76.8333 103.5,75.5C 102.167,75.5 100.833,75.5 99.5,75.5C 98.1667,75.5 96.8333,75.5 95.5,75.5C 95.5,74.1667 95.5,72.8333 95.5,71.5C 94.1667,71.5 92.8333,71.5 91.5,71.5C 91.5,70.1667 91.5,68.8333 91.5,67.5C 90.1667,67.5 88.8333,67.5 87.5,67.5C 86.1667,67.5 84.8333,67.5 83.5,67.5C 83.5,66.1667 83.5,64.8333 83.5,63.5C 80.8333,63.5 78.1667,63.5 75.5,63.5C 75.5,64.8333 75.5,66.1667 75.5,67.5C 75.5,68.8333 75.5,70.1667 75.5,71.5C 76.8333,71.5 78.1667,71.5 79.5,71.5C 79.5,72.8333 79.5,74.1667 79.5,75.5C 80.8333,75.5 82.1667,75.5 83.5,75.5C 84.8333,75.5 86.1667,75.5 87.5,75.5C 87.5,76.8333 87.5,78.1667 87.5,79.5C 88.8333,79.5 90.1667,79.5 91.5,79.5C 92.8333,79.5 94.1667,79.5 95.5,79.5C 95.5,80.8333 95.5,82.1667 95.5,83.5C 96.8333,83.5 98.1667,83.5 99.5,83.5C 99.5,84.8333 99.5,86.1667 99.5,87.5C 99.5,88.8333 99.5,90.1667 99.5,91.5C 100.833,91.5 102.167,91.5 103.5,91.5C 103.5,92.8333 103.5,94.1667 103.5,95.5C 103.5,96.8333 103.5,98.1667 103.5,99.5C 104.833,99.5 106.167,99.5 107.5,99.5C 107.5,103.5 107.5,107.5 107.5,111.5C 107.5,112.833 107.5,114.167 107.5,115.5C 106.167,115.5 104.833,115.5 103.5,115.5C 103.5,116.833 103.5,118.167 103.5,119.5C 102.167,119.5 100.833,119.5 99.5,119.5C 98.1667,119.5 96.8333,119.5 95.5,119.5C 95.5,120.833 95.5,122.167 95.5,123.5C 94.1667,123.5 92.8333,123.5 91.5,123.5C 91.5,124.833 91.5,126.167 91.5,127.5C 87.5,127.5 83.5,127.5 79.5,127.5C 78.1667,127.5 76.8333,127.5 75.5,127.5C 75.5,128.833 75.5,130.167 75.5,131.5C 67.5,131.5 59.5,131.5 51.5,131.5C 51.5,130.167 51.5,128.833 51.5,127.5C 50.1667,127.5 48.8333,127.5 47.5,127.5C 43.5,127.5 39.5,127.5 35.5,127.5C 35.5,126.167 35.5,124.833 35.5,123.5C 34.1667,123.5 32.8333,123.5 31.5,123.5C 31.5,122.167 31.5,120.833 31.5,119.5C 31.5,112.833 31.5,106.167 31.5,99.5C 31.5,98.1667 31.5,96.8333 31.5,95.5C 31.5,94.1667 31.5,92.8333 31.5,91.5C 32.8333,91.5 34.1667,91.5 35.5,91.5C 35.5,90.1667 35.5,88.8333 35.5,87.5C 36.8333,87.5 38.1667,87.5 39.5,87.5C 39.5,86.1667 39.5,84.8333 39.5,83.5C 39.5,82.1667 39.5,80.8333 39.5,79.5C 40.8333,79.5 42.1667,79.5 43.5,79.5C 44.8333,79.5 46.1667,79.5 47.5,79.5C 47.5,78.1667 47.5,76.8333 47.5,75.5C 47.5,74.1667 47.5,72.8333 47.5,71.5C 44.8333,71.5 42.1667,71.5 39.5,71.5C 39.5,72.8333 39.5,74.1667 39.5,75.5C 38.1667,75.5 36.8333,75.5 35.5,75.5C 35.5,76.8333 35.5,78.1667 35.5,79.5C 34.1667,79.5 32.8333,79.5 31.5,79.5C 31.5,80.8333 31.5,82.1667 31.5,83.5C 30.1667,83.5 28.8333,83.5 27.5,83.5C 27.5,84.8333 27.5,86.1667 27.5,87.5C 27.5,88.8333 27.5,90.1667 27.5,91.5C 26.1667,91.5 24.8333,91.5 23.5,91.5C 23.5,92.8333 23.5,94.1667 23.5,95.5C 23.5,96.8333 23.5,98.1667 23.5,99.5C 22.1667,99.5 20.8333,99.5 19.5,99.5C 19.5,103.5 19.5,107.5 19.5,111.5C 18.1667,111.5 16.8333,111.5 15.5,111.5C 15.5,110.167 15.5,108.833 15.5,107.5C 14.1667,107.5 12.8333,107.5 11.5,107.5C 11.5,106.167 11.5,104.833 11.5,103.5C 10.1667,103.5 8.83333,103.5 7.5,103.5C 7.5,102.167 7.5,100.833 7.5,99.5C 7.5,98.1667 7.5,96.8333 7.5,95.5C 6.16667,95.5 4.83333,95.5 3.5,95.5C 3.5,92.8333 3.5,90.1667 3.5,87.5C 2.16667,87.5 0.833333,87.5 -0.5,87.5C -0.5,76.8333 -0.5,66.1667 -0.5,55.5C 16.8333,55.5 34.1667,55.5 51.5,55.5C 51.5,58.1667 51.5,60.8333 51.5,63.5C 52.8333,63.5 54.1667,63.5 55.5,63.5C 55.5,66.1667 55.5,68.8333 55.5,71.5C 55.5,74.1667 55.5,76.8333 55.5,79.5C 56.8333,79.5 58.1667,79.5 59.5,79.5C 59.5,82.1667 59.5,84.8333 59.5,87.5C 59.5,90.1667 59.5,92.8333 59.5,95.5C 60.8333,95.5 62.1667,95.5 63.5,95.5C 63.5,98.1667 63.5,100.833 63.5,103.5C 63.5,104.833 63.5,106.167 63.5,107.5C 63.5,108.833 63.5,110.167 63.5,111.5C 64.8333,111.5 66.1667,111.5 67.5,111.5C 67.5,112.833 67.5,114.167 67.5,115.5C 68.8333,115.5 70.1667,115.5 71.5,115.5C 72.8333,115.5 74.1667,115.5 75.5,115.5C 75.5,111.5 75.5,107.5 75.5,103.5C 74.1667,103.5 72.8333,103.5 71.5,103.5C 71.5,99.5 71.5,95.5 71.5,91.5C 71.5,90.1667 71.5,88.8333 71.5,87.5C 70.1667,87.5 68.8333,87.5 67.5,87.5C 67.5,84.8333 67.5,82.1667 67.5,79.5C 67.5,78.1667 67.5,76.8333 67.5,75.5C 67.5,74.1667 67.5,72.8333 67.5,71.5C 66.1667,71.5 64.8333,71.5 63.5,71.5C 63.5,68.8333 63.5,66.1667 63.5,63.5C 63.5,60.8333 63.5,58.1667 63.5,55.5C 64.8333,55.5 66.1667,55.5 67.5,55.5C 71.5,55.5 75.5,55.5 79.5,55.5C 79.5,54.1667 79.5,52.8333 79.5,51.5C 80.8333,51.5 82.1667,51.5 83.5,51.5C 83.5,50.1667 83.5,48.8333 83.5,47.5C 84.8333,47.5 86.1667,47.5 87.5,47.5C 87.5,44.8333 87.5,42.1667 87.5,39.5C 86.1667,39.5 84.8333,39.5 83.5,39.5C 83.5,38.1667 83.5,36.8333 83.5,35.5C 83.5,34.1667 83.5,32.8333 83.5,31.5C 82.1667,31.5 80.8333,31.5 79.5,31.5C 78.1667,31.5 76.8333,31.5 75.5,31.5C 75.5,30.1667 75.5,28.8333 75.5,27.5C 67.5,27.5 59.5,27.5 51.5,27.5C 51.5,28.8333 51.5,30.1667 51.5,31.5C 50.1667,31.5 48.8333,31.5 47.5,31.5C 47.5,34.1667 47.5,36.8333 47.5,39.5C 47.5,40.8333 47.5,42.1667 47.5,43.5C 31.5,43.5 15.5,43.5 -0.5,43.5C -0.5,42.1667 -0.5,40.8333 -0.5,39.5C 0.833333,39.5 2.16667,39.5 3.5,39.5C 3.5,36.8333 3.5,34.1667 3.5,31.5C 4.83333,31.5 6.16667,31.5 7.5,31.5C 7.5,28.8333 7.5,26.1667 7.5,23.5C 8.83333,23.5 10.1667,23.5 11.5,23.5C 11.5,22.1667 11.5,20.8333 11.5,19.5C 12.8333,19.5 14.1667,19.5 15.5,19.5C 15.5,18.1667 15.5,16.8333 15.5,15.5C 16.8333,15.5 18.1667,15.5 19.5,15.5C 19.5,14.1667 19.5,12.8333 19.5,11.5C 20.8333,11.5 22.1667,11.5 23.5,11.5C 23.5,10.1667 23.5,8.83333 23.5,7.5C 24.8333,7.5 26.1667,7.5 27.5,7.5C 28.8333,7.5 30.1667,7.5 31.5,7.5C 31.5,6.16667 31.5,4.83333 31.5,3.5C 34.1667,3.5 36.8333,3.5 39.5,3.5C 39.5,2.16667 39.5,0.833333 39.5,-0.5 Z"/></g>
<g><path style="opacity:0.004" fill="#feff00" d="M 31.5,3.5 C 31.5,4.83333 31.5,6.16667 31.5,7.5C 30.1667,7.5 28.8333,7.5 27.5,7.5C 27.5,6.16667 27.5,4.83333 27.5,3.5C 28.8333,3.5 30.1667,3.5 31.5,3.5 Z"/></g>
<g><path style="opacity:0.008" fill="#fe7f00" d="M 95.5,3.5 C 96.8333,3.5 98.1667,3.5 99.5,3.5C 99.5,4.83333 99.5,6.16667 99.5,7.5C 99.5,6.16667 99.5,4.83333 99.5,3.5C 98.1667,3.5 96.8333,3.5 95.5,3.5 Z"/></g>
<g><path style="opacity:0.737" fill="#fefffe" d="M 395.5,15.5 C 403.5,15.5 411.5,15.5 419.5,15.5C 419.5,47.5 419.5,79.5 419.5,111.5C 402.167,111.5 384.833,111.5 367.5,111.5C 367.5,110.167 367.5,108.833 367.5,107.5C 366.167,107.5 364.833,107.5 363.5,107.5C 363.5,106.167 363.5,104.833 363.5,103.5C 362.167,103.5 360.833,103.5 359.5,103.5C 359.5,100.833 359.5,98.1667 359.5,95.5C 358.167,95.5 356.833,95.5 355.5,95.5C 355.5,83.5 355.5,71.5 355.5,59.5C 356.833,59.5 358.167,59.5 359.5,59.5C 359.5,55.5 359.5,51.5 359.5,47.5C 360.833,47.5 362.167,47.5 363.5,47.5C 363.5,46.1667 363.5,44.8333 363.5,43.5C 374.167,43.5 384.833,43.5 395.5,43.5C 395.5,34.1667 395.5,24.8333 395.5,15.5 Z M 379.5,59.5 C 384.833,59.5 390.167,59.5 395.5,59.5C 395.5,70.1667 395.5,80.8333 395.5,91.5C 390.167,91.5 384.833,91.5 379.5,91.5C 379.5,80.8333 379.5,70.1667 379.5,59.5 Z"/></g>
<g><path style="opacity:0.813" fill="#fefffe" d="M 603.5,15.5 C 610.167,15.5 616.833,15.5 623.5,15.5C 623.5,47.5 623.5,79.5 623.5,111.5C 607.5,111.5 591.5,111.5 575.5,111.5C 575.5,110.167 575.5,108.833 575.5,107.5C 572.833,107.5 570.167,107.5 567.5,107.5C 567.5,106.167 567.5,104.833 567.5,103.5C 566.167,103.5 564.833,103.5 563.5,103.5C 563.5,86.1667 563.5,68.8333 563.5,51.5C 564.833,51.5 566.167,51.5 567.5,51.5C 567.5,48.8333 567.5,46.1667 567.5,43.5C 579.5,43.5 591.5,43.5 603.5,43.5C 603.5,34.1667 603.5,24.8333 603.5,15.5 Z M 587.5,59.5 C 592.833,59.5 598.167,59.5 603.5,59.5C 603.5,70.1667 603.5,80.8333 603.5,91.5C 596.833,91.5 590.167,91.5 583.5,91.5C 583.5,82.1667 583.5,72.8333 583.5,63.5C 584.833,63.5 586.167,63.5 587.5,63.5C 587.5,62.1667 587.5,60.8333 587.5,59.5 Z"/></g>
<g><path style="opacity:0.713" fill="#fefffe" d="M 719.5,91.5 C 719.5,98.1667 719.5,104.833 719.5,111.5C 714.167,111.5 708.833,111.5 703.5,111.5C 703.5,110.167 703.5,108.833 703.5,107.5C 702.167,107.5 700.833,107.5 699.5,107.5C 699.5,106.167 699.5,104.833 699.5,103.5C 698.167,103.5 696.833,103.5 695.5,103.5C 695.5,102.167 695.5,100.833 695.5,99.5C 694.167,99.5 692.833,99.5 691.5,99.5C 691.5,71.5 691.5,43.5 691.5,15.5C 699.5,15.5 707.5,15.5 715.5,15.5C 715.5,40.8333 715.5,66.1667 715.5,91.5C 716.833,91.5 718.167,91.5 719.5,91.5 Z"/></g>
<g><path style="opacity:0.74" fill="#fefffe" d="M 159.5,19.5 C 175.5,19.5 191.5,19.5 207.5,19.5C 207.5,20.8333 207.5,22.1667 207.5,23.5C 211.5,23.5 215.5,23.5 219.5,23.5C 219.5,26.1667 219.5,28.8333 219.5,31.5C 220.833,31.5 222.167,31.5 223.5,31.5C 223.5,44.8333 223.5,58.1667 223.5,71.5C 222.167,71.5 220.833,71.5 219.5,71.5C 219.5,72.8333 219.5,74.1667 219.5,75.5C 218.167,75.5 216.833,75.5 215.5,75.5C 215.5,79.5 215.5,83.5 215.5,87.5C 216.833,87.5 218.167,87.5 219.5,87.5C 219.5,90.1667 219.5,92.8333 219.5,95.5C 220.833,95.5 222.167,95.5 223.5,95.5C 223.5,98.1667 223.5,100.833 223.5,103.5C 224.833,103.5 226.167,103.5 227.5,103.5C 227.5,104.833 227.5,106.167 227.5,107.5C 226.167,107.5 224.833,107.5 223.5,107.5C 223.5,108.833 223.5,110.167 223.5,111.5C 216.833,111.5 210.167,111.5 203.5,111.5C 203.5,110.167 203.5,108.833 203.5,107.5C 202.167,107.5 200.833,107.5 199.5,107.5C 199.5,104.833 199.5,102.167 199.5,99.5C 198.167,99.5 196.833,99.5 195.5,99.5C 195.5,95.5 195.5,91.5 195.5,87.5C 194.167,87.5 192.833,87.5 191.5,87.5C 191.5,84.8333 191.5,82.1667 191.5,79.5C 187.5,79.5 183.5,79.5 179.5,79.5C 179.5,90.1667 179.5,100.833 179.5,111.5C 171.5,111.5 163.5,111.5 155.5,111.5C 155.5,82.1667 155.5,52.8333 155.5,23.5C 156.833,23.5 158.167,23.5 159.5,23.5C 159.5,22.1667 159.5,20.8333 159.5,19.5 Z M 179.5,43.5 C 186.167,43.5 192.833,43.5 199.5,43.5C 199.5,48.8333 199.5,54.1667 199.5,59.5C 192.833,59.5 186.167,59.5 179.5,59.5C 179.5,54.1667 179.5,48.8333 179.5,43.5 Z"/></g>
<g><path style="opacity:0.808" fill="#fefffe" d="M 427.5,19.5 C 443.5,19.5 459.5,19.5 475.5,19.5C 475.5,20.8333 475.5,22.1667 475.5,23.5C 479.5,23.5 483.5,23.5 487.5,23.5C 487.5,24.8333 487.5,26.1667 487.5,27.5C 488.833,27.5 490.167,27.5 491.5,27.5C 491.5,43.5 491.5,59.5 491.5,75.5C 490.167,75.5 488.833,75.5 487.5,75.5C 487.5,76.8333 487.5,78.1667 487.5,79.5C 486.167,79.5 484.833,79.5 483.5,79.5C 483.5,80.8333 483.5,82.1667 483.5,83.5C 471.5,83.5 459.5,83.5 447.5,83.5C 447.5,92.8333 447.5,102.167 447.5,111.5C 440.833,111.5 434.167,111.5 427.5,111.5C 427.5,80.8333 427.5,50.1667 427.5,19.5 Z M 447.5,43.5 C 455.5,43.5 463.5,43.5 471.5,43.5C 471.5,50.1667 471.5,56.8333 471.5,63.5C 463.5,63.5 455.5,63.5 447.5,63.5C 447.5,56.8333 447.5,50.1667 447.5,43.5 Z"/></g>
<g><path style="opacity:1" fill="#fdc860" d="M 75.5,31.5 C 67.5,31.5 59.5,31.5 51.5,31.5C 51.5,30.1667 51.5,28.8333 51.5,27.5C 59.5,27.5 67.5,27.5 75.5,27.5C 75.5,28.8333 75.5,30.1667 75.5,31.5 Z"/></g>
<g><path style="opacity:0.004" fill="#feff00" d="M 119.5,27.5 C 120.833,27.5 122.167,27.5 123.5,27.5C 123.5,28.8333 123.5,30.1667 123.5,31.5C 123.5,30.1667 123.5,28.8333 123.5,27.5C 122.167,27.5 120.833,27.5 119.5,27.5 Z"/></g>
<g><path style="opacity:0.981" fill="#fffefc" d="M 51.5,31.5 C 59.5,31.5 67.5,31.5 75.5,31.5C 76.8333,31.5 78.1667,31.5 79.5,31.5C 80.8333,31.5 82.1667,31.5 83.5,31.5C 83.5,32.8333 83.5,34.1667 83.5,35.5C 83.5,36.8333 83.5,38.1667 83.5,39.5C 83.5,42.1667 83.5,44.8333 83.5,47.5C 82.1667,47.5 80.8333,47.5 79.5,47.5C 79.5,44.8333 79.5,42.1667 79.5,39.5C 78.1667,39.5 76.8333,39.5 75.5,39.5C 75.5,38.1667 75.5,36.8333 75.5,35.5C 68.8333,35.5 62.1667,35.5 55.5,35.5C 55.5,39.5 55.5,43.5 55.5,47.5C 56.8333,47.5 58.1667,47.5 59.5,47.5C 59.5,48.8333 59.5,50.1667 59.5,51.5C 59.5,52.8333 59.5,54.1667 59.5,55.5C 59.5,58.1667 59.5,60.8333 59.5,63.5C 60.8333,63.5 62.1667,63.5 63.5,63.5C 63.5,66.1667 63.5,68.8333 63.5,71.5C 63.5,72.8333 63.5,74.1667 63.5,75.5C 63.5,76.8333 63.5,78.1667 63.5,79.5C 62.1667,79.5 60.8333,79.5 59.5,79.5C 59.5,76.8333 59.5,74.1667 59.5,71.5C 58.1667,71.5 56.8333,71.5 55.5,71.5C 55.5,68.8333 55.5,66.1667 55.5,63.5C 55.5,60.8333 55.5,58.1667 55.5,55.5C 55.5,54.1667 55.5,52.8333 55.5,51.5C 36.8333,51.5 18.1667,51.5 -0.5,51.5C -0.5,50.1667 -0.5,48.8333 -0.5,47.5C 15.5,47.5 31.5,47.5 47.5,47.5C 48.8333,47.5 50.1667,47.5 51.5,47.5C 51.5,44.8333 51.5,42.1667 51.5,39.5C 51.5,36.8333 51.5,34.1667 51.5,31.5 Z"/></g>
<g><path style="opacity:1" fill="#fdd786" d="M 79.5,31.5 C 80.8333,31.5 82.1667,31.5 83.5,31.5C 83.5,32.8333 83.5,34.1667 83.5,35.5C 82.1667,35.5 80.8333,35.5 79.5,35.5C 79.5,34.1667 79.5,32.8333 79.5,31.5 Z"/></g>
<g><path style="opacity:1" fill="#fee5b1" d="M 51.5,31.5 C 51.5,34.1667 51.5,36.8333 51.5,39.5C 50.1667,39.5 48.8333,39.5 47.5,39.5C 47.5,36.8333 47.5,34.1667 47.5,31.5C 48.8333,31.5 50.1667,31.5 51.5,31.5 Z"/></g>
<g><path style="opacity:1" fill="#ffe7b7" d="M 75.5,39.5 C 70.1667,39.5 64.8333,39.5 59.5,39.5C 59.5,42.1667 59.5,44.8333 59.5,47.5C 58.1667,47.5 56.8333,47.5 55.5,47.5C 55.5,43.5 55.5,39.5 55.5,35.5C 62.1667,35.5 68.8333,35.5 75.5,35.5C 75.5,36.8333 75.5,38.1667 75.5,39.5 Z"/></g>
<g><path style="opacity:0.004" fill="#feff00" d="M 123.5,35.5 C 124.833,35.5 126.167,35.5 127.5,35.5C 127.5,36.8333 127.5,38.1667 127.5,39.5C 127.5,38.1667 127.5,36.8333 127.5,35.5C 126.167,35.5 124.833,35.5 123.5,35.5 Z"/></g>
<g><path style="opacity:1" fill="#fdb934" d="M 75.5,39.5 C 75.5,42.1667 75.5,44.8333 75.5,47.5C 72.8333,47.5 70.1667,47.5 67.5,47.5C 66.1667,47.5 64.8333,47.5 63.5,47.5C 63.5,48.8333 63.5,50.1667 63.5,51.5C 62.1667,51.5 60.8333,51.5 59.5,51.5C 59.5,50.1667 59.5,48.8333 59.5,47.5C 59.5,44.8333 59.5,42.1667 59.5,39.5C 64.8333,39.5 70.1667,39.5 75.5,39.5 Z"/></g>
<g><path style="opacity:1" fill="#fdc047" d="M -0.5,43.5 C 15.5,43.5 31.5,43.5 47.5,43.5C 47.5,44.8333 47.5,46.1667 47.5,47.5C 31.5,47.5 15.5,47.5 -0.5,47.5C -0.5,46.1667 -0.5,44.8333 -0.5,43.5 Z"/></g>
<g><path style="opacity:1" fill="#fece6c" d="M 47.5,39.5 C 48.8333,39.5 50.1667,39.5 51.5,39.5C 51.5,42.1667 51.5,44.8333 51.5,47.5C 50.1667,47.5 48.8333,47.5 47.5,47.5C 47.5,46.1667 47.5,44.8333 47.5,43.5C 47.5,42.1667 47.5,40.8333 47.5,39.5 Z"/></g>
<g><path style="opacity:1" fill="#fee5b1" d="M 75.5,39.5 C 76.8333,39.5 78.1667,39.5 79.5,39.5C 79.5,42.1667 79.5,44.8333 79.5,47.5C 78.1667,47.5 76.8333,47.5 75.5,47.5C 75.5,44.8333 75.5,42.1667 75.5,39.5 Z"/></g>
<g><path style="opacity:1" fill="#fed173" d="M 83.5,39.5 C 84.8333,39.5 86.1667,39.5 87.5,39.5C 87.5,42.1667 87.5,44.8333 87.5,47.5C 86.1667,47.5 84.8333,47.5 83.5,47.5C 83.5,44.8333 83.5,42.1667 83.5,39.5 Z"/></g>
<g><path style="opacity:0.782" fill="#fefffe" d="M 235.5,43.5 C 251.5,43.5 267.5,43.5 283.5,43.5C 283.5,44.8333 283.5,46.1667 283.5,47.5C 284.833,47.5 286.167,47.5 287.5,47.5C 287.5,48.8333 287.5,50.1667 287.5,51.5C 288.833,51.5 290.167,51.5 291.5,51.5C 291.5,62.1667 291.5,72.8333 291.5,83.5C 292.833,83.5 294.167,83.5 295.5,83.5C 295.5,80.8333 295.5,78.1667 295.5,75.5C 296.833,75.5 298.167,75.5 299.5,75.5C 299.5,74.1667 299.5,72.8333 299.5,71.5C 300.833,71.5 302.167,71.5 303.5,71.5C 303.5,70.1667 303.5,68.8333 303.5,67.5C 312.833,67.5 322.167,67.5 331.5,67.5C 331.5,64.8333 331.5,62.1667 331.5,59.5C 320.833,59.5 310.167,59.5 299.5,59.5C 299.5,55.5 299.5,51.5 299.5,47.5C 300.833,47.5 302.167,47.5 303.5,47.5C 303.5,46.1667 303.5,44.8333 303.5,43.5C 316.833,43.5 330.167,43.5 343.5,43.5C 343.5,44.8333 343.5,46.1667 343.5,47.5C 344.833,47.5 346.167,47.5 347.5,47.5C 347.5,48.8333 347.5,50.1667 347.5,51.5C 348.833,51.5 350.167,51.5 351.5,51.5C 351.5,71.5 351.5,91.5 351.5,111.5C 335.5,111.5 319.5,111.5 303.5,111.5C 303.5,110.167 303.5,108.833 303.5,107.5C 302.167,107.5 300.833,107.5 299.5,107.5C 299.5,106.167 299.5,104.833 299.5,103.5C 298.167,103.5 296.833,103.5 295.5,103.5C 295.5,100.833 295.5,98.1667 295.5,95.5C 294.167,95.5 292.833,95.5 291.5,95.5C 291.5,96.8333 291.5,98.1667 291.5,99.5C 290.167,99.5 288.833,99.5 287.5,99.5C 287.5,102.167 287.5,104.833 287.5,107.5C 284.833,107.5 282.167,107.5 279.5,107.5C 279.5,108.833 279.5,110.167 279.5,111.5C 266.167,111.5 252.833,111.5 239.5,111.5C 239.5,110.167 239.5,108.833 239.5,107.5C 236.833,107.5 234.167,107.5 231.5,107.5C 231.5,103.5 231.5,99.5 231.5,95.5C 230.167,95.5 228.833,95.5 227.5,95.5C 227.5,82.1667 227.5,68.8333 227.5,55.5C 228.833,55.5 230.167,55.5 231.5,55.5C 231.5,52.8333 231.5,50.1667 231.5,47.5C 232.833,47.5 234.167,47.5 235.5,47.5C 235.5,46.1667 235.5,44.8333 235.5,43.5 Z M 251.5,59.5 C 256.833,59.5 262.167,59.5 267.5,59.5C 267.5,60.8333 267.5,62.1667 267.5,63.5C 268.833,63.5 270.167,63.5 271.5,63.5C 271.5,71.5 271.5,79.5 271.5,87.5C 270.167,87.5 268.833,87.5 267.5,87.5C 267.5,88.8333 267.5,90.1667 267.5,91.5C 262.167,91.5 256.833,91.5 251.5,91.5C 251.5,80.8333 251.5,70.1667 251.5,59.5 Z M 315.5,83.5 C 320.833,83.5 326.167,83.5 331.5,83.5C 331.5,86.1667 331.5,88.8333 331.5,91.5C 326.167,91.5 320.833,91.5 315.5,91.5C 315.5,88.8333 315.5,86.1667 315.5,83.5 Z"/></g>
<g><path style="opacity:0.759" fill="#fefffe" d="M 503.5,43.5 C 519.5,43.5 535.5,43.5 551.5,43.5C 551.5,44.8333 551.5,46.1667 551.5,47.5C 552.833,47.5 554.167,47.5 555.5,47.5C 555.5,50.1667 555.5,52.8333 555.5,55.5C 556.833,55.5 558.167,55.5 559.5,55.5C 559.5,64.8333 559.5,74.1667 559.5,83.5C 546.167,83.5 532.833,83.5 519.5,83.5C 519.5,86.1667 519.5,88.8333 519.5,91.5C 531.5,91.5 543.5,91.5 555.5,91.5C 555.5,96.8333 555.5,102.167 555.5,107.5C 552.833,107.5 550.167,107.5 547.5,107.5C 547.5,108.833 547.5,110.167 547.5,111.5C 534.167,111.5 520.833,111.5 507.5,111.5C 507.5,110.167 507.5,108.833 507.5,107.5C 504.833,107.5 502.167,107.5 499.5,107.5C 499.5,104.833 499.5,102.167 499.5,99.5C 498.167,99.5 496.833,99.5 495.5,99.5C 495.5,84.8333 495.5,70.1667 495.5,55.5C 496.833,55.5 498.167,55.5 499.5,55.5C 499.5,52.8333 499.5,50.1667 499.5,47.5C 500.833,47.5 502.167,47.5 503.5,47.5C 503.5,46.1667 503.5,44.8333 503.5,43.5 Z M 519.5,59.5 C 524.833,59.5 530.167,59.5 535.5,59.5C 535.5,62.1667 535.5,64.8333 535.5,67.5C 530.167,67.5 524.833,67.5 519.5,67.5C 519.5,64.8333 519.5,62.1667 519.5,59.5 Z"/></g>
<g><path style="opacity:0.817" fill="#fefffe" d="M 635.5,43.5 C 650.167,43.5 664.833,43.5 679.5,43.5C 679.5,44.8333 679.5,46.1667 679.5,47.5C 680.833,47.5 682.167,47.5 683.5,47.5C 683.5,68.8333 683.5,90.1667 683.5,111.5C 668.833,111.5 654.167,111.5 639.5,111.5C 639.5,110.167 639.5,108.833 639.5,107.5C 636.833,107.5 634.167,107.5 631.5,107.5C 631.5,106.167 631.5,104.833 631.5,103.5C 630.167,103.5 628.833,103.5 627.5,103.5C 627.5,94.1667 627.5,84.8333 627.5,75.5C 628.833,75.5 630.167,75.5 631.5,75.5C 631.5,74.1667 631.5,72.8333 631.5,71.5C 632.833,71.5 634.167,71.5 635.5,71.5C 635.5,70.1667 635.5,68.8333 635.5,67.5C 644.833,67.5 654.167,67.5 663.5,67.5C 663.5,64.8333 663.5,62.1667 663.5,59.5C 654.167,59.5 644.833,59.5 635.5,59.5C 635.5,54.1667 635.5,48.8333 635.5,43.5 Z M 651.5,83.5 C 655.5,83.5 659.5,83.5 663.5,83.5C 663.5,86.1667 663.5,88.8333 663.5,91.5C 658.167,91.5 652.833,91.5 647.5,91.5C 647.5,90.1667 647.5,88.8333 647.5,87.5C 648.833,87.5 650.167,87.5 651.5,87.5C 651.5,86.1667 651.5,84.8333 651.5,83.5 Z"/></g>
<g><path style="opacity:1" fill="#fff8ec" d="M 67.5,47.5 C 70.1667,47.5 72.8333,47.5 75.5,47.5C 76.8333,47.5 78.1667,47.5 79.5,47.5C 80.8333,47.5 82.1667,47.5 83.5,47.5C 83.5,48.8333 83.5,50.1667 83.5,51.5C 82.1667,51.5 80.8333,51.5 79.5,51.5C 79.5,52.8333 79.5,54.1667 79.5,55.5C 75.5,55.5 71.5,55.5 67.5,55.5C 67.5,52.8333 67.5,50.1667 67.5,47.5 Z"/></g>
<g><path style="opacity:0.981" fill="#fff6e5" d="M -0.5,51.5 C 18.1667,51.5 36.8333,51.5 55.5,51.5C 55.5,52.8333 55.5,54.1667 55.5,55.5C 54.1667,55.5 52.8333,55.5 51.5,55.5C 34.1667,55.5 16.8333,55.5 -0.5,55.5C -0.5,54.1667 -0.5,52.8333 -0.5,51.5 Z"/></g>
<g><path style="opacity:1" fill="#fdcf71" d="M 67.5,47.5 C 67.5,50.1667 67.5,52.8333 67.5,55.5C 66.1667,55.5 64.8333,55.5 63.5,55.5C 62.1667,55.5 60.8333,55.5 59.5,55.5C 59.5,54.1667 59.5,52.8333 59.5,51.5C 60.8333,51.5 62.1667,51.5 63.5,51.5C 63.5,50.1667 63.5,48.8333 63.5,47.5C 64.8333,47.5 66.1667,47.5 67.5,47.5 Z"/></g>
<g><path style="opacity:1" fill="#fdca63" d="M 51.5,55.5 C 52.8333,55.5 54.1667,55.5 55.5,55.5C 55.5,58.1667 55.5,60.8333 55.5,63.5C 54.1667,63.5 52.8333,63.5 51.5,63.5C 51.5,60.8333 51.5,58.1667 51.5,55.5 Z"/></g>
<g><path style="opacity:1" fill="#fee8ba" d="M 59.5,55.5 C 60.8333,55.5 62.1667,55.5 63.5,55.5C 63.5,58.1667 63.5,60.8333 63.5,63.5C 62.1667,63.5 60.8333,63.5 59.5,63.5C 59.5,60.8333 59.5,58.1667 59.5,55.5 Z"/></g>
<g><path style="opacity:1" fill="#fed37c" d="M 83.5,67.5 C 80.8333,67.5 78.1667,67.5 75.5,67.5C 75.5,66.1667 75.5,64.8333 75.5,63.5C 78.1667,63.5 80.8333,63.5 83.5,63.5C 83.5,64.8333 83.5,66.1667 83.5,67.5 Z"/></g>
<g><path style="opacity:1" fill="#fddc95" d="M 87.5,67.5 C 88.8333,67.5 90.1667,67.5 91.5,67.5C 91.5,68.8333 91.5,70.1667 91.5,71.5C 90.1667,71.5 88.8333,71.5 87.5,71.5C 87.5,70.1667 87.5,68.8333 87.5,67.5 Z"/></g>
<g><path style="opacity:1" fill="#fdd684" d="M 63.5,71.5 C 64.8333,71.5 66.1667,71.5 67.5,71.5C 67.5,72.8333 67.5,74.1667 67.5,75.5C 66.1667,75.5 64.8333,75.5 63.5,75.5C 63.5,74.1667 63.5,72.8333 63.5,71.5 Z"/></g>
<g><path style="opacity:1" fill="#fdd379" d="M 79.5,71.5 C 80.8333,71.5 82.1667,71.5 83.5,71.5C 83.5,72.8333 83.5,74.1667 83.5,75.5C 83.5,74.1667 83.5,72.8333 83.5,71.5C 82.1667,71.5 80.8333,71.5 79.5,71.5 Z"/></g>
<g><path style="opacity:1" fill="#fdd682" d="M 47.5,75.5 C 47.5,76.8333 47.5,78.1667 47.5,79.5C 46.1667,79.5 44.8333,79.5 43.5,79.5C 43.5,78.1667 43.5,76.8333 43.5,75.5C 44.8333,75.5 46.1667,75.5 47.5,75.5 Z"/></g>
<g><path style="opacity:1" fill="#fed27a" d="M 55.5,71.5 C 56.8333,71.5 58.1667,71.5 59.5,71.5C 59.5,74.1667 59.5,76.8333 59.5,79.5C 58.1667,79.5 56.8333,79.5 55.5,79.5C 55.5,76.8333 55.5,74.1667 55.5,71.5 Z"/></g>
<g><path style="opacity:1" fill="#fde9b8" d="M 63.5,75.5 C 64.8333,75.5 66.1667,75.5 67.5,75.5C 67.5,76.8333 67.5,78.1667 67.5,79.5C 66.1667,79.5 64.8333,79.5 63.5,79.5C 63.5,78.1667 63.5,76.8333 63.5,75.5 Z"/></g>
<g><path style="opacity:1" fill="#fdd379" d="M 87.5,75.5 C 88.8333,75.5 90.1667,75.5 91.5,75.5C 91.5,76.8333 91.5,78.1667 91.5,79.5C 91.5,78.1667 91.5,76.8333 91.5,75.5C 90.1667,75.5 88.8333,75.5 87.5,75.5 Z"/></g>
<g><path style="opacity:1" fill="#fdcd68" d="M 99.5,75.5 C 100.833,75.5 102.167,75.5 103.5,75.5C 103.5,76.8333 103.5,78.1667 103.5,79.5C 102.167,79.5 100.833,79.5 99.5,79.5C 99.5,78.1667 99.5,76.8333 99.5,75.5 Z"/></g>
<g><path style="opacity:0.008" fill="#fe7f00" d="M 131.5,75.5 C 131.5,76.8333 131.5,78.1667 131.5,79.5C 130.167,79.5 128.833,79.5 127.5,79.5C 127.5,78.1667 127.5,76.8333 127.5,75.5C 128.833,75.5 130.167,75.5 131.5,75.5 Z"/></g>
<g><path style="opacity:1" fill="#fff9ed" d="M 47.5,75.5 C 46.1667,75.5 44.8333,75.5 43.5,75.5C 43.5,76.8333 43.5,78.1667 43.5,79.5C 42.1667,79.5 40.8333,79.5 39.5,79.5C 39.5,80.8333 39.5,82.1667 39.5,83.5C 38.1667,83.5 36.8333,83.5 35.5,83.5C 35.5,84.8333 35.5,86.1667 35.5,87.5C 34.1667,87.5 32.8333,87.5 31.5,87.5C 31.5,86.1667 31.5,84.8333 31.5,83.5C 31.5,82.1667 31.5,80.8333 31.5,79.5C 32.8333,79.5 34.1667,79.5 35.5,79.5C 35.5,78.1667 35.5,76.8333 35.5,75.5C 36.8333,75.5 38.1667,75.5 39.5,75.5C 39.5,74.1667 39.5,72.8333 39.5,71.5C 42.1667,71.5 44.8333,71.5 47.5,71.5C 47.5,72.8333 47.5,74.1667 47.5,75.5 Z"/></g>
<g><path style="opacity:1" fill="#fffaef" d="M 75.5,67.5 C 78.1667,67.5 80.8333,67.5 83.5,67.5C 84.8333,67.5 86.1667,67.5 87.5,67.5C 87.5,68.8333 87.5,70.1667 87.5,71.5C 88.8333,71.5 90.1667,71.5 91.5,71.5C 92.8333,71.5 94.1667,71.5 95.5,71.5C 95.5,72.8333 95.5,74.1667 95.5,75.5C 96.8333,75.5 98.1667,75.5 99.5,75.5C 99.5,76.8333 99.5,78.1667 99.5,79.5C 100.833,79.5 102.167,79.5 103.5,79.5C 103.5,80.8333 103.5,82.1667 103.5,83.5C 104.833,83.5 106.167,83.5 107.5,83.5C 107.5,84.8333 107.5,86.1667 107.5,87.5C 108.833,87.5 110.167,87.5 111.5,87.5C 111.5,88.8333 111.5,90.1667 111.5,91.5C 111.5,94.1667 111.5,96.8333 111.5,99.5C 112.833,99.5 114.167,99.5 115.5,99.5C 115.5,100.833 115.5,102.167 115.5,103.5C 115.5,104.833 115.5,106.167 115.5,107.5C 114.167,107.5 112.833,107.5 111.5,107.5C 111.5,108.833 111.5,110.167 111.5,111.5C 110.167,111.5 108.833,111.5 107.5,111.5C 107.5,107.5 107.5,103.5 107.5,99.5C 106.167,99.5 104.833,99.5 103.5,99.5C 103.5,98.1667 103.5,96.8333 103.5,95.5C 103.5,94.1667 103.5,92.8333 103.5,91.5C 102.167,91.5 100.833,91.5 99.5,91.5C 99.5,90.1667 99.5,88.8333 99.5,87.5C 99.5,86.1667 99.5,84.8333 99.5,83.5C 98.1667,83.5 96.8333,83.5 95.5,83.5C 95.5,82.1667 95.5,80.8333 95.5,79.5C 94.1667,79.5 92.8333,79.5 91.5,79.5C 91.5,78.1667 91.5,76.8333 91.5,75.5C 90.1667,75.5 88.8333,75.5 87.5,75.5C 86.1667,75.5 84.8333,75.5 83.5,75.5C 83.5,74.1667 83.5,72.8333 83.5,71.5C 82.1667,71.5 80.8333,71.5 79.5,71.5C 78.1667,71.5 76.8333,71.5 75.5,71.5C 75.5,70.1667 75.5,68.8333 75.5,67.5 Z"/></g>
<g><path style="opacity:1" fill="#fee7b3" d="M 31.5,83.5 C 31.5,84.8333 31.5,86.1667 31.5,87.5C 30.1667,87.5 28.8333,87.5 27.5,87.5C 27.5,86.1667 27.5,84.8333 27.5,83.5C 28.8333,83.5 30.1667,83.5 31.5,83.5 Z"/></g>
<g><path style="opacity:1" fill="#fdd072" d="M 39.5,83.5 C 39.5,84.8333 39.5,86.1667 39.5,87.5C 38.1667,87.5 36.8333,87.5 35.5,87.5C 35.5,86.1667 35.5,84.8333 35.5,83.5C 36.8333,83.5 38.1667,83.5 39.5,83.5 Z"/></g>
<g><path style="opacity:1" fill="#fffaf0" d="M 59.5,79.5 C 60.8333,79.5 62.1667,79.5 63.5,79.5C 64.8333,79.5 66.1667,79.5 67.5,79.5C 67.5,82.1667 67.5,84.8333 67.5,87.5C 68.8333,87.5 70.1667,87.5 71.5,87.5C 71.5,88.8333 71.5,90.1667 71.5,91.5C 71.5,95.5 71.5,99.5 71.5,103.5C 71.5,107.5 71.5,111.5 71.5,115.5C 70.1667,115.5 68.8333,115.5 67.5,115.5C 67.5,114.167 67.5,112.833 67.5,111.5C 67.5,110.167 67.5,108.833 67.5,107.5C 67.5,106.167 67.5,104.833 67.5,103.5C 66.1667,103.5 64.8333,103.5 63.5,103.5C 63.5,100.833 63.5,98.1667 63.5,95.5C 63.5,92.8333 63.5,90.1667 63.5,87.5C 62.1667,87.5 60.8333,87.5 59.5,87.5C 59.5,84.8333 59.5,82.1667 59.5,79.5 Z"/></g>
<g><path style="opacity:1" fill="#fde6b2" d="M 31.5,87.5 C 32.8333,87.5 34.1667,87.5 35.5,87.5C 35.5,88.8333 35.5,90.1667 35.5,91.5C 34.1667,91.5 32.8333,91.5 31.5,91.5C 31.5,90.1667 31.5,88.8333 31.5,87.5 Z"/></g>
<g><path style="opacity:1" fill="#fdd47c" d="M 67.5,87.5 C 68.8333,87.5 70.1667,87.5 71.5,87.5C 71.5,88.8333 71.5,90.1667 71.5,91.5C 70.1667,91.5 68.8333,91.5 67.5,91.5C 67.5,90.1667 67.5,88.8333 67.5,87.5 Z"/></g>
<g><path style="opacity:1" fill="#fdd98a" d="M 99.5,87.5 C 100.833,87.5 102.167,87.5 103.5,87.5C 103.5,88.8333 103.5,90.1667 103.5,91.5C 103.5,90.1667 103.5,88.8333 103.5,87.5C 102.167,87.5 100.833,87.5 99.5,87.5 Z"/></g>
<g><path style="opacity:1" fill="#fdd682" d="M 107.5,87.5 C 108.833,87.5 110.167,87.5 111.5,87.5C 111.5,88.8333 111.5,90.1667 111.5,91.5C 110.167,91.5 108.833,91.5 107.5,91.5C 107.5,90.1667 107.5,88.8333 107.5,87.5 Z"/></g>
<g><path style="opacity:1" fill="#fee8ba" d="M 27.5,91.5 C 27.5,92.8333 27.5,94.1667 27.5,95.5C 26.1667,95.5 24.8333,95.5 23.5,95.5C 23.5,94.1667 23.5,92.8333 23.5,91.5C 24.8333,91.5 26.1667,91.5 27.5,91.5 Z"/></g>
<g><path style="opacity:1" fill="#fffcf6" d="M 27.5,87.5 C 28.8333,87.5 30.1667,87.5 31.5,87.5C 31.5,88.8333 31.5,90.1667 31.5,91.5C 31.5,92.8333 31.5,94.1667 31.5,95.5C 30.1667,95.5 28.8333,95.5 27.5,95.5C 27.5,94.1667 27.5,92.8333 27.5,91.5C 27.5,90.1667 27.5,88.8333 27.5,87.5 Z"/></g>
<g><path style="opacity:1" fill="#fed480" d="M 59.5,87.5 C 60.8333,87.5 62.1667,87.5 63.5,87.5C 63.5,90.1667 63.5,92.8333 63.5,95.5C 62.1667,95.5 60.8333,95.5 59.5,95.5C 59.5,92.8333 59.5,90.1667 59.5,87.5 Z"/></g>
<g><path style="opacity:0.004" fill="#feff00" d="M 3.5,95.5 C 4.83333,95.5 6.16667,95.5 7.5,95.5C 7.5,96.8333 7.5,98.1667 7.5,99.5C 6.16667,99.5 4.83333,99.5 3.5,99.5C 3.5,98.1667 3.5,96.8333 3.5,95.5 Z"/></g>
<g><path style="opacity:1" fill="#fde9ba" d="M 27.5,95.5 C 28.8333,95.5 30.1667,95.5 31.5,95.5C 31.5,96.8333 31.5,98.1667 31.5,99.5C 30.1667,99.5 28.8333,99.5 27.5,99.5C 27.5,98.1667 27.5,96.8333 27.5,95.5 Z"/></g>
<g><path style="opacity:1" fill="#fde0a1" d="M 103.5,95.5 C 104.833,95.5 106.167,95.5 107.5,95.5C 107.5,96.8333 107.5,98.1667 107.5,99.5C 107.5,98.1667 107.5,96.8333 107.5,95.5C 106.167,95.5 104.833,95.5 103.5,95.5 Z"/></g>
<g><path style="opacity:0.795" fill="#fffefb" d="M 23.5,95.5 C 24.8333,95.5 26.1667,95.5 27.5,95.5C 27.5,96.8333 27.5,98.1667 27.5,99.5C 27.5,106.167 27.5,112.833 27.5,119.5C 26.1667,119.5 24.8333,119.5 23.5,119.5C 23.5,118.167 23.5,116.833 23.5,115.5C 22.1667,115.5 20.8333,115.5 19.5,115.5C 19.5,114.167 19.5,112.833 19.5,111.5C 20.8333,111.5 22.1667,111.5 23.5,111.5C 23.5,107.5 23.5,103.5 23.5,99.5C 23.5,98.1667 23.5,96.8333 23.5,95.5 Z"/></g>
<g><path style="opacity:0.973" fill="#fdda8c" d="M 111.5,99.5 C 112.833,99.5 114.167,99.5 115.5,99.5C 115.5,100.833 115.5,102.167 115.5,103.5C 114.167,103.5 112.833,103.5 111.5,103.5C 111.5,102.167 111.5,100.833 111.5,99.5 Z"/></g>
<g><path style="opacity:1" fill="#fed685" d="M 23.5,99.5 C 23.5,103.5 23.5,107.5 23.5,111.5C 22.1667,111.5 20.8333,111.5 19.5,111.5C 19.5,107.5 19.5,103.5 19.5,99.5C 20.8333,99.5 22.1667,99.5 23.5,99.5 Z"/></g>
<g><path style="opacity:1" fill="#fde7b6" d="M 63.5,103.5 C 64.8333,103.5 66.1667,103.5 67.5,103.5C 67.5,104.833 67.5,106.167 67.5,107.5C 66.1667,107.5 64.8333,107.5 63.5,107.5C 63.5,106.167 63.5,104.833 63.5,103.5 Z"/></g>
<g><path style="opacity:1" fill="#fdd681" d="M 63.5,107.5 C 64.8333,107.5 66.1667,107.5 67.5,107.5C 67.5,108.833 67.5,110.167 67.5,111.5C 66.1667,111.5 64.8333,111.5 63.5,111.5C 63.5,110.167 63.5,108.833 63.5,107.5 Z"/></g>
<g><path style="opacity:1" fill="#fed88b" d="M 71.5,103.5 C 72.8333,103.5 74.1667,103.5 75.5,103.5C 75.5,107.5 75.5,111.5 75.5,115.5C 74.1667,115.5 72.8333,115.5 71.5,115.5C 71.5,111.5 71.5,107.5 71.5,103.5 Z"/></g>
<g><path style="opacity:1" fill="#fdc655" d="M 27.5,99.5 C 28.8333,99.5 30.1667,99.5 31.5,99.5C 31.5,106.167 31.5,112.833 31.5,119.5C 30.1667,119.5 28.8333,119.5 27.5,119.5C 27.5,112.833 27.5,106.167 27.5,99.5 Z"/></g>
<g><path style="opacity:0.008" fill="#fe7f00" d="M 27.5,119.5 C 28.8333,119.5 30.1667,119.5 31.5,119.5C 31.5,120.833 31.5,122.167 31.5,123.5C 30.1667,123.5 28.8333,123.5 27.5,123.5C 27.5,122.167 27.5,120.833 27.5,119.5 Z"/></g>
<g><path style="opacity:0.008" fill="#fe7f00" d="M 99.5,119.5 C 99.5,120.833 99.5,122.167 99.5,123.5C 98.1667,123.5 96.8333,123.5 95.5,123.5C 95.5,122.167 95.5,120.833 95.5,119.5C 96.8333,119.5 98.1667,119.5 99.5,119.5 Z"/></g>
<g><path style="opacity:0.004" fill="#feff00" d="M 47.5,127.5 C 48.8333,127.5 50.1667,127.5 51.5,127.5C 51.5,128.833 51.5,130.167 51.5,131.5C 50.1667,131.5 48.8333,131.5 47.5,131.5C 47.5,130.167 47.5,128.833 47.5,127.5 Z"/></g>
<g><path style="opacity:0.004" fill="#feff00" d="M 79.5,127.5 C 79.5,128.833 79.5,130.167 79.5,131.5C 78.1667,131.5 76.8333,131.5 75.5,131.5C 75.5,130.167 75.5,128.833 75.5,127.5C 76.8333,127.5 78.1667,127.5 79.5,127.5 Z"/></g>
</svg>
