<?xml version="1.0" encoding="UTF-8"?>
<!DOCTYPE svg PUBLIC "-//W3C//DTD SVG 1.1//EN" "http://www.w3.org/Graphics/SVG/1.1/DTD/svg11.dtd">
<svg xmlns="http://www.w3.org/2000/svg" version="1.1" width="587px" height="337px" style="shape-rendering:geometricPrecision; text-rendering:geometricPrecision; image-rendering:optimizeQuality; fill-rule:evenodd; clip-rule:evenodd" xmlns:xlink="http://www.w3.org/1999/xlink">
<g><path style="opacity:1" fill="#222221" d="M -0.5,-0.5 C 9.83333,-0.5 20.1667,-0.5 30.5,-0.5C 27.8157,7.5258 25.149,15.5258 22.5,23.5C 20.9286,35.9212 21.2619,48.2545 23.5,60.5C 23.6245,65.0485 24.2911,69.3819 25.5,73.5C 26.4824,77.3164 27.1491,81.3164 27.5,85.5C 28.7995,94.6577 30.4661,103.658 32.5,112.5C 32.5,120.833 32.5,129.167 32.5,137.5C 30.5397,144.335 28.7064,151.335 27,158.5C 18.4877,177.232 9.32105,195.565 -0.5,213.5C -0.5,142.167 -0.5,70.8333 -0.5,-0.5 Z"/></g>
<g><path style="opacity:1" fill="#222221" d="M 33.5,-0.5 C 76.5,-0.5 119.5,-0.5 162.5,-0.5C 150.431,7.52309 137.097,12.1898 122.5,13.5C 115.512,14.0659 108.512,14.5659 101.5,15C 100.058,15.3768 99.0577,16.2101 98.5,17.5C 88.0013,22.8614 82.5013,31.5281 82,43.5C 80.572,64.1267 80.072,84.7933 80.5,105.5C 79.5899,116.626 77.9232,127.626 75.5,138.5C 59.3567,174.869 43.3567,211.535 27.5,248.5C 26.2502,248.577 25.4169,249.244 25,250.5C 23.5699,253.353 22.7366,256.353 22.5,259.5C 16.5193,271.736 10.686,284.069 5,296.5C 2.897,299.059 1.06366,301.726 -0.5,304.5C -0.5,275.833 -0.5,247.167 -0.5,218.5C 1.55755,216.073 3.39089,213.407 5,210.5C 15.0663,191.03 24.0663,171.03 32,150.5C 33.0666,145.864 33.8999,141.198 34.5,136.5C 34.5,129.5 34.5,122.5 34.5,115.5C 34.3672,105.107 32.7005,95.1068 29.5,85.5C 28.9262,80.8169 28.2596,76.1502 27.5,71.5C 26.8333,66.1667 26.1667,60.8333 25.5,55.5C 24.8342,46.5154 24.5009,37.5154 24.5,28.5C 24.5,27.1667 24.5,25.8333 24.5,24.5C 26.9039,15.9552 29.9039,7.62182 33.5,-0.5 Z"/></g>
<g><path style="opacity:1" fill="#222221" d="M 167.5,-0.5 C 179.5,-0.5 191.5,-0.5 203.5,-0.5C 203.768,1.09903 203.434,2.43236 202.5,3.5C 200.6,6.51782 199.267,9.85116 198.5,13.5C 195.236,29.7003 187.569,43.367 175.5,54.5C 153.283,70.0355 136.616,90.0355 125.5,114.5C 123.755,116.033 122.755,118.033 122.5,120.5C 121.113,123.639 119.946,126.972 119,130.5C 115.103,137.016 112.269,144.016 110.5,151.5C 108.6,154.518 107.267,157.851 106.5,161.5C 103.021,172.555 99.3546,183.555 95.5,194.5C 94.0762,196.515 93.4095,198.848 93.5,201.5C 89.3603,212.777 83.8603,223.444 77,233.5C 63.5734,250.683 49.9067,267.683 36,284.5C 28.5203,297.261 20.8537,309.928 13,322.5C 8.97745,327.022 4.47745,331.022 -0.5,334.5C -0.5,325.833 -0.5,317.167 -0.5,308.5C 3.72201,303.745 7.22201,298.412 10,292.5C 13.7438,282.024 18.2438,272.024 23.5,262.5C 24.5173,259.456 25.8506,256.456 27.5,253.5C 42.7304,218.362 58.5638,183.362 75,148.5C 75.4935,146.866 75.6602,145.199 75.5,143.5C 79.5215,133.731 81.8548,123.398 82.5,112.5C 83.0614,88.6347 83.8947,64.6347 85,40.5C 86.0136,32.6381 89.5136,26.1381 95.5,21C 97.0249,19.9914 98.6916,19.4914 100.5,19.5C 111.433,19.1792 122.099,17.8458 132.5,15.5C 137.145,13.2494 142.145,11.7494 147.5,11C 154.506,7.62304 161.173,3.78971 167.5,-0.5 Z"/></g>
<g><path style="opacity:1" fill="#493c1b" d="M 203.5,-0.5 C 205.5,-0.5 207.5,-0.5 209.5,-0.5C 206.37,5.44734 204.037,11.7807 202.5,18.5C 200.345,20.6174 199.345,23.284 199.5,26.5C 197.153,34.1941 193.486,41.1941 188.5,47.5C 186.413,48.5846 185.08,50.2512 184.5,52.5C 178.25,59.2521 171.25,65.0854 163.5,70C 148.345,84.1543 136.511,100.654 128,119.5C 123.872,128.27 120.372,137.27 117.5,146.5C 115.755,148.033 114.755,150.033 114.5,152.5C 110.3,165.101 106.3,177.767 102.5,190.5C 100.755,192.033 99.7549,194.033 99.5,196.5C 95.986,208.867 90.8193,220.534 84,231.5C 71.1473,248.532 57.8139,265.198 44,281.5C 35.8072,291.878 29.1405,303.212 24,315.5C 18.369,322.965 12.2023,329.965 5.5,336.5C 3.5,336.5 1.5,336.5 -0.5,336.5C -0.5,335.833 -0.5,335.167 -0.5,334.5C 4.47745,331.022 8.97745,327.022 13,322.5C 20.8537,309.928 28.5203,297.261 36,284.5C 49.9067,267.683 63.5734,250.683 77,233.5C 83.8603,223.444 89.3603,212.777 93.5,201.5C 94.9238,199.485 95.5905,197.152 95.5,194.5C 99.3546,183.555 103.021,172.555 106.5,161.5C 108.897,158.691 110.23,155.358 110.5,151.5C 112.269,144.016 115.103,137.016 119,130.5C 119.946,126.972 121.113,123.639 122.5,120.5C 124.245,118.967 125.245,116.967 125.5,114.5C 136.616,90.0355 153.283,70.0355 175.5,54.5C 187.569,43.367 195.236,29.7003 198.5,13.5C 200.897,10.691 202.23,7.35764 202.5,3.5C 203.434,2.43236 203.768,1.09903 203.5,-0.5 Z"/></g>
<g><path style="opacity:1" fill="#222221" d="M 209.5,-0.5 C 215.833,-0.5 222.167,-0.5 228.5,-0.5C 223.164,8.83901 218.33,18.5057 214,28.5C 210.082,37.92 206.748,47.5867 204,57.5C 192.609,68.5558 181.609,79.8892 171,91.5C 164.94,98.6056 159.607,106.272 155,114.5C 153.942,119.405 152.276,124.071 150,128.5C 144.59,155.549 138.924,182.549 133,209.5C 129.891,218.268 127.558,227.268 126,236.5C 122.853,244.737 119.853,253.07 117,261.5C 110.411,273.016 103.078,284.016 95,294.5C 82.2462,309.075 69.0796,323.075 55.5,336.5C 38.8333,336.5 22.1667,336.5 5.5,336.5C 12.2023,329.965 18.369,322.965 24,315.5C 29.1405,303.212 35.8072,291.878 44,281.5C 57.8139,265.198 71.1473,248.532 84,231.5C 90.8193,220.534 95.986,208.867 99.5,196.5C 101.379,195.105 102.379,193.105 102.5,190.5C 106.3,177.767 110.3,165.101 114.5,152.5C 116.245,150.967 117.245,148.967 117.5,146.5C 120.372,137.27 123.872,128.27 128,119.5C 136.511,100.654 148.345,84.1543 163.5,70C 171.25,65.0854 178.25,59.2521 184.5,52.5C 186.587,51.4154 187.92,49.7488 188.5,47.5C 193.486,41.1941 197.153,34.1941 199.5,26.5C 201.097,24.1522 202.097,21.4855 202.5,18.5C 204.037,11.7807 206.37,5.44734 209.5,-0.5 Z"/></g>
<g><path style="opacity:1" fill="#222221" d="M 231.5,-0.5 C 238.167,-0.5 244.833,-0.5 251.5,-0.5C 247.73,10.298 242.897,20.6313 237,30.5C 233.556,38.832 231.556,47.4987 231,56.5C 218.47,81.3643 203.137,104.364 185,125.5C 183.171,129.828 180.838,133.828 178,137.5C 173,150.476 169,163.809 166,177.5C 164.506,185.465 163.34,193.465 162.5,201.5C 160.116,208.169 158.783,215.169 158.5,222.5C 156.676,239.105 153.509,255.438 149,271.5C 144.331,280.502 138.497,288.669 131.5,296C 116.319,307.425 101.319,319.092 86.5,331C 84.5612,332.432 83.2279,334.265 82.5,336.5C 74.5,336.5 66.5,336.5 58.5,336.5C 74.5071,320.991 89.6737,304.658 104,287.5C 111.443,276.281 118.11,264.614 124,252.5C 125.689,245.747 127.689,239.08 130,232.5C 135.437,212.36 139.937,192.027 143.5,171.5C 145.074,169.898 145.741,167.898 145.5,165.5C 147.947,147.679 152.113,130.346 158,113.5C 171.809,94.3473 187.476,76.6807 205,60.5C 209.515,48.1038 214.182,35.7705 219,23.5C 223.45,15.5992 227.616,7.59917 231.5,-0.5 Z"/></g>
<g><path style="opacity:1" fill="#222221" d="M 254.5,-0.5 C 260.833,-0.5 267.167,-0.5 273.5,-0.5C 272.192,2.73023 271.192,6.06356 270.5,9.5C 269.542,11.3024 268.875,13.3024 268.5,15.5C 268.5,15.8333 268.5,16.1667 268.5,16.5C 266.552,18.3204 265.552,20.6538 265.5,23.5C 255.179,47.9307 242.679,71.264 228,93.5C 223.691,102.153 219.358,110.819 215,119.5C 213.595,123.072 213.262,126.739 214,130.5C 215.039,131.71 216.206,132.71 217.5,133.5C 220.146,134.164 222.979,134.498 226,134.5C 230.133,134.714 233.966,134.048 237.5,132.5C 245.407,127.866 253.074,122.699 260.5,117C 285.276,93.2178 310.943,70.5512 337.5,49C 343.997,44.9613 350.997,42.2947 358.5,41C 399.137,38.3091 439.137,41.4758 478.5,50.5C 481.149,52.1094 484.149,52.9428 487.5,53C 495.012,53.8218 502.345,53.6552 509.5,52.5C 511.5,52.5 513.5,52.5 515.5,52.5C 518.482,52.0371 521.482,51.7038 524.5,51.5C 537.396,50.1358 550.062,48.1358 562.5,45.5C 570.515,44.6318 578.515,43.6318 586.5,42.5C 586.5,49.5 586.5,56.5 586.5,63.5C 584.473,63.3379 582.473,63.5045 580.5,64C 561.054,70.9791 541.054,75.8124 520.5,78.5C 510.521,79.2961 500.521,79.6295 490.5,79.5C 489.5,79.5 488.5,79.5 487.5,79.5C 480.077,77.7454 472.411,77.0787 464.5,77.5C 456.95,76.6556 449.283,75.6556 441.5,74.5C 436.146,72.4925 430.479,71.4925 424.5,71.5C 417.764,70.9329 411.098,69.9329 404.5,68.5C 404.082,67.7784 403.416,67.2784 402.5,67C 397.514,66.0025 392.514,65.1692 387.5,64.5C 366.135,58.4673 347.135,62.634 330.5,77C 316.4,90.8885 302.067,104.555 287.5,118C 281.167,121.667 274.833,125.333 268.5,129C 258.623,135.877 250.456,144.377 244,154.5C 241.385,162.629 239.885,170.962 239.5,179.5C 239.746,185.559 239.413,191.559 238.5,197.5C 236.5,198.976 234.833,200.809 233.5,203C 230.13,204.455 227.13,206.455 224.5,209C 220.757,210.136 217.09,211.47 213.5,213C 206.235,216.432 199.235,220.432 192.5,225C 185.669,231.175 181.335,238.675 179.5,247.5C 178.653,255.006 177.986,262.672 177.5,270.5C 175.246,281.413 170.412,291.08 163,299.5C 159.833,302.667 156.667,305.833 153.5,309C 140.784,318.681 127.784,327.847 114.5,336.5C 104.833,336.5 95.1667,336.5 85.5,336.5C 89.331,331.836 93.6643,327.67 98.5,324C 113.826,314.015 127.993,302.515 141,289.5C 142.513,286.476 144.513,283.809 147,281.5C 148.264,277.364 150.097,273.53 152.5,270C 154.236,262.046 155.903,254.213 157.5,246.5C 159.138,241.752 160.138,236.752 160.5,231.5C 161.199,221.943 162.532,212.61 164.5,203.5C 166.138,198.752 167.138,193.752 167.5,188.5C 170.348,167.458 176.514,147.458 186,128.5C 201.816,109.523 216.149,89.5233 229,68.5C 230.802,63.9668 232.302,59.3001 233.5,54.5C 234.117,54.3893 234.617,54.056 235,53.5C 235.583,49.1679 236.083,44.8346 236.5,40.5C 242.874,27.0598 248.874,13.3931 254.5,-0.5 Z"/></g>
<g><path style="opacity:1" fill="#222221" d="M 275.5,-0.5 C 283.167,-0.5 290.833,-0.5 298.5,-0.5C 297.705,5.47865 297.038,11.4787 296.5,17.5C 296.667,19.8333 296.833,22.1667 297,24.5C 297.2,26.3197 298.034,27.653 299.5,28.5C 299.611,29.1174 299.944,29.6174 300.5,30C 304.358,30.8099 308.024,30.6433 311.5,29.5C 312.873,29.6567 314.207,29.49 315.5,29C 318.222,26.6422 321.222,24.8089 324.5,23.5C 326.966,22.7023 328.966,21.369 330.5,19.5C 331.391,18.8902 332.391,18.5569 333.5,18.5C 336.943,17.3543 340.277,16.0209 343.5,14.5C 351.341,13.4224 359.341,13.4224 367.5,14.5C 376.287,16.375 385.287,17.7084 394.5,18.5C 400.102,19.5752 405.769,20.2418 411.5,20.5C 412.514,21.7647 414.014,22.4313 416,22.5C 420.811,23.1978 425.644,23.5312 430.5,23.5C 440.257,25.6375 450.257,26.9708 460.5,27.5C 460.611,28.1174 460.944,28.6174 461.5,29C 464.482,29.498 467.482,29.6646 470.5,29.5C 471.5,29.5 472.5,29.5 473.5,29.5C 485.322,30.4951 497.322,30.8284 509.5,30.5C 521.515,30.4028 533.515,29.9028 545.5,29C 547.382,28.8019 549.048,28.3019 550.5,27.5C 562.323,26.4156 574.323,25.7489 586.5,25.5C 586.5,30.5 586.5,35.5 586.5,40.5C 578.953,40.4055 571.62,41.0722 564.5,42.5C 562.833,42.5 561.167,42.5 559.5,42.5C 555.147,42.7646 550.813,43.2646 546.5,44C 545.944,44.3826 545.611,44.8826 545.5,45.5C 539.516,46.2968 533.516,46.9634 527.5,47.5C 516.569,49.1159 505.569,49.7826 494.5,49.5C 484.012,48.7355 473.679,47.0688 463.5,44.5C 455.439,42.2795 447.105,40.9462 438.5,40.5C 430.833,39.8333 423.167,39.1667 415.5,38.5C 405.884,36.9554 396.05,36.2887 386,36.5C 378.833,36.6667 371.667,36.8333 364.5,37C 363.584,37.2784 362.918,37.7784 362.5,38.5C 357.384,38.593 352.384,39.4263 347.5,41C 341.035,44.4004 334.702,48.067 328.5,52C 307.62,70.4242 286.953,89.0909 266.5,108C 259.5,113.667 252.5,119.333 245.5,125C 237.257,130.31 228.257,132.31 218.5,131C 217.106,130.044 216.439,128.711 216.5,127C 217.277,122.725 218.444,118.558 220,114.5C 225.3,104.52 230.633,94.5198 236,84.5C 247.948,66.9477 258.114,48.281 266.5,28.5C 266.971,26.4214 267.637,24.4214 268.5,22.5C 269.117,22.3893 269.617,22.056 270,21.5C 271.171,17.4815 272.337,13.4815 273.5,9.5C 274.482,6.23654 275.149,2.9032 275.5,-0.5 Z"/></g>
<g><path style="opacity:1" fill="#493d1b" d="M 298.5,-0.5 C 300.167,-0.5 301.833,-0.5 303.5,-0.5C 302.101,7.78638 301.601,16.1197 302,24.5C 305.499,25.7965 308.999,25.7965 312.5,24.5C 314.967,24.2451 316.967,23.2451 318.5,21.5C 323.307,16.9215 328.974,13.5882 335.5,11.5C 344.422,9.96306 353.422,9.29639 362.5,9.5C 367.633,10.6649 372.966,11.3315 378.5,11.5C 381.764,12.3242 385.098,12.6576 388.5,12.5C 394.52,14.669 400.853,15.669 407.5,15.5C 413.051,16.4213 418.718,17.4213 424.5,18.5C 428.466,19.1621 432.466,19.4955 436.5,19.5C 442.52,21.669 448.853,22.669 455.5,22.5C 455.833,22.5 456.167,22.5 456.5,22.5C 464.964,24.0431 473.63,25.0431 482.5,25.5C 495.859,25.7373 509.192,25.404 522.5,24.5C 530.816,23.8148 539.149,23.4815 547.5,23.5C 556.741,23.39 565.741,22.39 574.5,20.5C 578.5,20.5 582.5,20.5 586.5,20.5C 586.5,22.1667 586.5,23.8333 586.5,25.5C 574.323,25.7489 562.323,26.4156 550.5,27.5C 542.16,27.691 533.826,28.0244 525.5,28.5C 508.169,28.9285 490.836,29.2618 473.5,29.5C 472.5,29.5 471.5,29.5 470.5,29.5C 467.456,27.9886 464.122,27.322 460.5,27.5C 450.257,26.9708 440.257,25.6375 430.5,23.5C 424.316,22.4019 417.982,21.4019 411.5,20.5C 405.769,20.2418 400.102,19.5752 394.5,18.5C 394.389,17.8826 394.056,17.3826 393.5,17C 384.875,15.6716 376.208,14.8383 367.5,14.5C 359.341,13.4224 351.341,13.4224 343.5,14.5C 339.433,14.2063 336.1,15.5397 333.5,18.5C 332.391,18.5569 331.391,18.8902 330.5,19.5C 327.802,19.8449 325.802,21.1782 324.5,23.5C 321.222,24.8089 318.222,26.6422 315.5,29C 314.207,29.49 312.873,29.6567 311.5,29.5C 307.434,29.693 303.434,29.3597 299.5,28.5C 298.034,27.653 297.2,26.3197 297,24.5C 296.833,22.1667 296.667,19.8333 296.5,17.5C 297.038,11.4787 297.705,5.47865 298.5,-0.5 Z"/></g>
<g><path style="opacity:1" fill="#222221" d="M 303.5,-0.5 C 341.5,-0.5 379.5,-0.5 417.5,-0.5C 438.603,3.61077 459.937,7.11077 481.5,10C 500.191,10.7814 518.858,10.6147 537.5,9.5C 548.02,9.37228 558.353,8.70561 568.5,7.5C 574.559,7.74611 580.559,7.41277 586.5,6.5C 586.5,11.1667 586.5,15.8333 586.5,20.5C 582.5,20.5 578.5,20.5 574.5,20.5C 568.155,20.6527 561.822,20.986 555.5,21.5C 545.837,21.9823 536.17,22.4823 526.5,23C 524.942,23.21 523.609,23.71 522.5,24.5C 509.192,25.404 495.859,25.7373 482.5,25.5C 474.096,23.4574 465.429,22.4574 456.5,22.5C 456.167,22.5 455.833,22.5 455.5,22.5C 449.387,20.9399 443.053,19.9399 436.5,19.5C 432.466,19.4955 428.466,19.1621 424.5,18.5C 423.848,17.2749 422.681,16.6083 421,16.5C 416.53,15.7363 412.03,15.403 407.5,15.5C 401.413,13.7765 395.08,12.7765 388.5,12.5C 385.098,12.6576 381.764,12.3242 378.5,11.5C 378.082,10.7784 377.416,10.2784 376.5,10C 371.845,9.50085 367.179,9.33418 362.5,9.5C 355.679,8.3454 348.679,8.17874 341.5,9C 339.148,9.24013 337.148,10.0735 335.5,11.5C 328.974,13.5882 323.307,16.9215 318.5,21.5C 316.033,21.7549 314.033,22.7549 312.5,24.5C 308.999,25.7965 305.499,25.7965 302,24.5C 301.601,16.1197 302.101,7.78638 303.5,-0.5 Z"/></g>
<g><path style="opacity:1" fill="#222221" d="M 431.5,-0.5 C 483.167,-0.5 534.833,-0.5 586.5,-0.5C 586.5,0.833333 586.5,2.16667 586.5,3.5C 576.833,4.16667 567.167,4.83333 557.5,5.5C 547.981,5.67688 538.648,6.34354 529.5,7.5C 496.239,8.95888 463.573,6.29221 431.5,-0.5 Z"/></g>
<g><path style="opacity:1" fill="#45391c" d="M 273.5,-0.5 C 274.167,-0.5 274.833,-0.5 275.5,-0.5C 275.149,2.9032 274.482,6.23654 273.5,9.5C 272.034,10.347 271.2,11.6803 271,13.5C 270.51,12.2068 270.343,10.8734 270.5,9.5C 271.192,6.06356 272.192,2.73023 273.5,-0.5 Z"/></g>
<g><path style="opacity:1" fill="#40361d" d="M 417.5,-0.5 C 422.167,-0.5 426.833,-0.5 431.5,-0.5C 463.573,6.29221 496.239,8.95888 529.5,7.5C 535.842,7.33379 542.175,7.50046 548.5,8C 544.644,8.1773 540.977,8.6773 537.5,9.5C 518.858,10.6147 500.191,10.7814 481.5,10C 459.937,7.11077 438.603,3.61077 417.5,-0.5 Z"/></g>
<g><path style="opacity:1" fill="#453a1c" d="M 586.5,3.5 C 586.5,4.16667 586.5,4.83333 586.5,5.5C 580.35,6.03735 574.35,6.70402 568.5,7.5C 563.156,7.66602 557.823,7.49935 552.5,7C 554.382,6.80192 556.048,6.30192 557.5,5.5C 567.167,4.83333 576.833,4.16667 586.5,3.5 Z"/></g>
<g><path style="opacity:1" fill="#39321e" d="M 557.5,5.5 C 556.048,6.30192 554.382,6.80192 552.5,7C 557.823,7.49935 563.156,7.66602 568.5,7.5C 558.353,8.70561 548.02,9.37228 537.5,9.5C 540.977,8.6773 544.644,8.1773 548.5,8C 542.175,7.50046 535.842,7.33379 529.5,7.5C 538.648,6.34354 547.981,5.67688 557.5,5.5 Z"/></g>
<g><path style="opacity:1" fill="#2e2a20" d="M 586.5,5.5 C 586.5,5.83333 586.5,6.16667 586.5,6.5C 580.559,7.41277 574.559,7.74611 568.5,7.5C 574.35,6.70402 580.35,6.03735 586.5,5.5 Z"/></g>
<g><path style="opacity:1" fill="#3b331d" d="M 202.5,3.5 C 202.23,7.35764 200.897,10.691 198.5,13.5C 199.267,9.85116 200.6,6.51782 202.5,3.5 Z"/></g>
<g><path style="opacity:1" fill="#302b20" d="M 362.5,9.5 C 353.422,9.29639 344.422,9.96306 335.5,11.5C 337.148,10.0735 339.148,9.24013 341.5,9C 348.679,8.17874 355.679,8.3454 362.5,9.5 Z"/></g>
<g><path style="opacity:1" fill="#2f2b20" d="M 362.5,9.5 C 367.179,9.33418 371.845,9.50085 376.5,10C 377.416,10.2784 378.082,10.7784 378.5,11.5C 372.966,11.3315 367.633,10.6649 362.5,9.5 Z"/></g>
<g><path style="opacity:1" fill="#3a321e" d="M 270.5,9.5 C 270.343,10.8734 270.51,12.2068 271,13.5C 271.2,11.6803 272.034,10.347 273.5,9.5C 272.337,13.4815 271.171,17.4815 270,21.5C 269.617,22.056 269.117,22.3893 268.5,22.5C 269.545,19.8862 270.045,17.2196 270,14.5C 269.617,15.056 269.117,15.3893 268.5,15.5C 268.875,13.3024 269.542,11.3024 270.5,9.5 Z"/></g>
<g><path style="opacity:1" fill="#37301e" d="M 388.5,12.5 C 395.08,12.7765 401.413,13.7765 407.5,15.5C 400.853,15.669 394.52,14.669 388.5,12.5 Z"/></g>
<g><path style="opacity:1" fill="#352e1e" d="M 122.5,13.5 C 114.655,14.9692 106.655,16.3026 98.5,17.5C 99.0577,16.2101 100.058,15.3768 101.5,15C 108.512,14.5659 115.512,14.0659 122.5,13.5 Z"/></g>
<g><path style="opacity:1" fill="#40361d" d="M 367.5,14.5 C 376.208,14.8383 384.875,15.6716 393.5,17C 394.056,17.3826 394.389,17.8826 394.5,18.5C 385.287,17.7084 376.287,16.375 367.5,14.5 Z"/></g>
<g><path style="opacity:1" fill="#332d1f" d="M 343.5,14.5 C 340.277,16.0209 336.943,17.3543 333.5,18.5C 336.1,15.5397 339.433,14.2063 343.5,14.5 Z"/></g>
<g><path style="opacity:1" fill="#2f2b1f" d="M 407.5,15.5 C 412.03,15.403 416.53,15.7363 421,16.5C 422.681,16.6083 423.848,17.2749 424.5,18.5C 418.718,17.4213 413.051,16.4213 407.5,15.5 Z"/></g>
<g><path style="opacity:1" fill="#2b2820" d="M 132.5,15.5 C 122.099,17.8458 111.433,19.1792 100.5,19.5C 110.955,17.6975 121.622,16.3642 132.5,15.5 Z"/></g>
<g><path style="opacity:1" fill="#493d1b" d="M 268.5,22.5 C 267.637,24.4214 266.971,26.4214 266.5,28.5C 265.637,29.463 264.97,29.463 264.5,28.5C 265.309,26.9291 265.643,25.2624 265.5,23.5C 267.065,21.4907 268.065,19.1573 268.5,16.5C 268.5,16.1667 268.5,15.8333 268.5,15.5C 269.117,15.3893 269.617,15.056 270,14.5C 270.045,17.2196 269.545,19.8862 268.5,22.5 Z"/></g>
<g><path style="opacity:1" fill="#37301f" d="M 202.5,18.5 C 202.097,21.4855 201.097,24.1522 199.5,26.5C 199.345,23.284 200.345,20.6174 202.5,18.5 Z"/></g>
<g><path style="opacity:1" fill="#38311e" d="M 436.5,19.5 C 443.053,19.9399 449.387,20.9399 455.5,22.5C 448.853,22.669 442.52,21.669 436.5,19.5 Z"/></g>
<g><path style="opacity:1" fill="#41371d" d="M 30.5,-0.5 C 31.5,-0.5 32.5,-0.5 33.5,-0.5C 29.9039,7.62182 26.9039,15.9552 24.5,24.5C 24.1583,23.6618 23.4916,23.3284 22.5,23.5C 25.149,15.5258 27.8157,7.5258 30.5,-0.5 Z"/></g>
<g><path style="opacity:1" fill="#41371c" d="M 162.5,-0.5 C 164.167,-0.5 165.833,-0.5 167.5,-0.5C 161.173,3.78971 154.506,7.62304 147.5,11C 142.145,11.7494 137.145,13.2494 132.5,15.5C 121.622,16.3642 110.955,17.6975 100.5,19.5C 98.6916,19.4914 97.0249,19.9914 95.5,21C 89.5136,26.1381 86.0136,32.6381 85,40.5C 83.8947,64.6347 83.0614,88.6347 82.5,112.5C 82.6666,91.8306 82.5,71.164 82,50.5C 81.8317,69.0046 81.3317,87.3379 80.5,105.5C 80.072,84.7933 80.572,64.1267 82,43.5C 82.5013,31.5281 88.0013,22.8614 98.5,17.5C 106.655,16.3026 114.655,14.9692 122.5,13.5C 137.097,12.1898 150.431,7.52309 162.5,-0.5 Z"/></g>
<g><path style="opacity:1" fill="#302b1f" d="M 268.5,16.5 C 268.065,19.1573 267.065,21.4907 265.5,23.5C 265.552,20.6538 266.552,18.3204 268.5,16.5 Z"/></g>
<g><path style="opacity:1" fill="#322c1f" d="M 330.5,19.5 C 328.966,21.369 326.966,22.7023 324.5,23.5C 325.802,21.1782 327.802,19.8449 330.5,19.5 Z"/></g>
<g><path style="opacity:1" fill="#39311e" d="M 574.5,20.5 C 565.741,22.39 556.741,23.39 547.5,23.5C 550.167,22.8333 552.833,22.1667 555.5,21.5C 561.822,20.986 568.155,20.6527 574.5,20.5 Z"/></g>
<g><path style="opacity:1" fill="#362f1e" d="M 411.5,20.5 C 417.982,21.4019 424.316,22.4019 430.5,23.5C 425.644,23.5312 420.811,23.1978 416,22.5C 414.014,22.4313 412.514,21.7647 411.5,20.5 Z"/></g>
<g><path style="opacity:1" fill="#2f2a1f" d="M 456.5,22.5 C 465.429,22.4574 474.096,23.4574 482.5,25.5C 473.63,25.0431 464.964,24.0431 456.5,22.5 Z"/></g>
<g><path style="opacity:1" fill="#312c1f" d="M 555.5,21.5 C 552.833,22.1667 550.167,22.8333 547.5,23.5C 539.149,23.4815 530.816,23.8148 522.5,24.5C 523.609,23.71 524.942,23.21 526.5,23C 536.17,22.4823 545.837,21.9823 555.5,21.5 Z"/></g>
<g><path style="opacity:1" fill="#37301f" d="M 318.5,21.5 C 316.967,23.2451 314.967,24.2451 312.5,24.5C 314.033,22.7549 316.033,21.7549 318.5,21.5 Z"/></g>
<g><path style="opacity:1" fill="#322d1f" d="M 460.5,27.5 C 464.122,27.322 467.456,27.9886 470.5,29.5C 467.482,29.6646 464.482,29.498 461.5,29C 460.944,28.6174 460.611,28.1174 460.5,27.5 Z"/></g>
<g><path style="opacity:1" fill="#39311e" d="M 299.5,28.5 C 303.434,29.3597 307.434,29.693 311.5,29.5C 308.024,30.6433 304.358,30.8099 300.5,30C 299.944,29.6174 299.611,29.1174 299.5,28.5 Z"/></g>
<g><path style="opacity:1" fill="#3b331d" d="M 525.5,28.5 C 520.167,29.1667 514.833,29.8333 509.5,30.5C 497.322,30.8284 485.322,30.4951 473.5,29.5C 490.836,29.2618 508.169,28.9285 525.5,28.5 Z"/></g>
<g><path style="opacity:1" fill="#2b2820" d="M 550.5,27.5 C 549.048,28.3019 547.382,28.8019 545.5,29C 533.515,29.9028 521.515,30.4028 509.5,30.5C 514.833,29.8333 520.167,29.1667 525.5,28.5C 533.826,28.0244 542.16,27.691 550.5,27.5 Z"/></g>
<g><path style="opacity:1" fill="#473b1b" d="M 22.5,23.5 C 23.4916,23.3284 24.1583,23.6618 24.5,24.5C 24.5,25.8333 24.5,27.1667 24.5,28.5C 23.2382,37.3589 23.2382,46.3589 24.5,55.5C 24.7845,57.4147 24.4511,59.0813 23.5,60.5C 21.2619,48.2545 20.9286,35.9212 22.5,23.5 Z"/></g>
<g><path style="opacity:1" fill="#38311e" d="M 24.5,28.5 C 24.5009,37.5154 24.8342,46.5154 25.5,55.5C 25.1667,55.5 24.8333,55.5 24.5,55.5C 23.2382,46.3589 23.2382,37.3589 24.5,28.5 Z"/></g>
<g><path style="opacity:1" fill="#2d2920" d="M 415.5,38.5 C 397.823,37.2957 380.156,37.2957 362.5,38.5C 362.918,37.7784 363.584,37.2784 364.5,37C 371.667,36.8333 378.833,36.6667 386,36.5C 396.05,36.2887 405.884,36.9554 415.5,38.5 Z"/></g>
<g><path style="opacity:1" fill="#37301f" d="M 438.5,40.5 C 447.105,40.9462 455.439,42.2795 463.5,44.5C 454.914,43.8948 446.581,42.5615 438.5,40.5 Z"/></g>
<g><path style="opacity:1" fill="#3e351d" d="M 586.5,40.5 C 586.5,41.1667 586.5,41.8333 586.5,42.5C 578.515,43.6318 570.515,44.6318 562.5,45.5C 562.167,45.5 561.833,45.5 561.5,45.5C 564.534,43.9823 567.867,43.1489 571.5,43C 569.19,42.5034 566.857,42.3367 564.5,42.5C 571.62,41.0722 578.953,40.4055 586.5,40.5 Z"/></g>
<g><path style="opacity:1" fill="#342e1f" d="M 559.5,42.5 C 555.138,44.3438 550.471,45.3438 545.5,45.5C 545.611,44.8826 545.944,44.3826 546.5,44C 550.813,43.2646 555.147,42.7646 559.5,42.5 Z"/></g>
<g><path style="opacity:1" fill="#43381c" d="M 228.5,-0.5 C 229.5,-0.5 230.5,-0.5 231.5,-0.5C 227.616,7.59917 223.45,15.5992 219,23.5C 214.182,35.7705 209.515,48.1038 205,60.5C 187.476,76.6807 171.809,94.3473 158,113.5C 152.113,130.346 147.947,147.679 145.5,165.5C 143.926,167.102 143.259,169.102 143.5,171.5C 139.937,192.027 135.437,212.36 130,232.5C 127.689,239.08 125.689,245.747 124,252.5C 118.11,264.614 111.443,276.281 104,287.5C 89.6737,304.658 74.5071,320.991 58.5,336.5C 57.5,336.5 56.5,336.5 55.5,336.5C 69.0796,323.075 82.2462,309.075 95,294.5C 103.078,284.016 110.411,273.016 117,261.5C 119.853,253.07 122.853,244.737 126,236.5C 127.558,227.268 129.891,218.268 133,209.5C 138.924,182.549 144.59,155.549 150,128.5C 152.276,124.071 153.942,119.405 155,114.5C 159.607,106.272 164.94,98.6056 171,91.5C 181.609,79.8892 192.609,68.5558 204,57.5C 206.748,47.5867 210.082,37.92 214,28.5C 218.33,18.5057 223.164,8.83901 228.5,-0.5 Z"/></g>
<g><path style="opacity:1" fill="#302b1f" d="M 236.5,40.5 C 236.083,44.8346 235.583,49.1679 235,53.5C 234.617,54.056 234.117,54.3893 233.5,54.5C 233.856,49.5687 234.856,44.902 236.5,40.5 Z"/></g>
<g><path style="opacity:1" fill="#2c2920" d="M 561.5,45.5 C 561.833,45.5 562.167,45.5 562.5,45.5C 550.062,48.1358 537.396,50.1358 524.5,51.5C 525.833,50.8333 527.167,50.1667 528.5,49.5C 539.51,48.2487 550.51,46.9154 561.5,45.5 Z"/></g>
<g><path style="opacity:1" fill="#45391c" d="M 559.5,42.5 C 561.167,42.5 562.833,42.5 564.5,42.5C 566.857,42.3367 569.19,42.5034 571.5,43C 567.867,43.1489 564.534,43.9823 561.5,45.5C 550.51,46.9154 539.51,48.2487 528.5,49.5C 525.075,49.6332 524.742,48.9665 527.5,47.5C 533.516,46.9634 539.516,46.2968 545.5,45.5C 550.471,45.3438 555.138,44.3438 559.5,42.5 Z"/></g>
<g><path style="opacity:1" fill="#342e1f" d="M 188.5,47.5 C 187.92,49.7488 186.587,51.4154 184.5,52.5C 185.08,50.2512 186.413,48.5846 188.5,47.5 Z"/></g>
<g><path style="opacity:1" fill="#3b331d" d="M 527.5,47.5 C 524.742,48.9665 525.075,49.6332 528.5,49.5C 527.167,50.1667 525.833,50.8333 524.5,51.5C 521.482,51.7038 518.482,52.0371 515.5,52.5C 515.918,51.7784 516.584,51.2784 517.5,51C 509.656,50.829 501.989,50.329 494.5,49.5C 505.569,49.7826 516.569,49.1159 527.5,47.5 Z"/></g>
<g><path style="opacity:1" fill="#2f2b20" d="M 478.5,50.5 C 488.752,52.1789 499.086,52.8456 509.5,52.5C 502.345,53.6552 495.012,53.8218 487.5,53C 484.149,52.9428 481.149,52.1094 478.5,50.5 Z"/></g>
<g><path style="opacity:1" fill="#41371d" d="M 24.5,55.5 C 24.8333,55.5 25.1667,55.5 25.5,55.5C 26.1667,60.8333 26.8333,66.1667 27.5,71.5C 26.7784,71.0825 26.2784,70.4158 26,69.5C 25.51,70.7932 25.3433,72.1266 25.5,73.5C 24.2911,69.3819 23.6245,65.0485 23.5,60.5C 24.4511,59.0813 24.7845,57.4147 24.5,55.5 Z"/></g>
<g><path style="opacity:1" fill="#2d2920" d="M 387.5,64.5 C 392.514,65.1692 397.514,66.0025 402.5,67C 403.416,67.2784 404.082,67.7784 404.5,68.5C 398.539,67.9119 392.873,66.5785 387.5,64.5 Z"/></g>
<g><path style="opacity:1" fill="#222221" d="M 401.5,70.5 C 413.452,72.7142 425.452,74.7142 437.5,76.5C 447.906,78.7943 458.573,80.1276 469.5,80.5C 476.508,81.1117 483.508,81.7784 490.5,82.5C 498.656,83.6566 506.99,83.8232 515.5,83C 520.747,82.8177 525.747,81.9843 530.5,80.5C 531.167,80.5 531.833,80.5 532.5,80.5C 537.826,79.9206 542.826,78.5873 547.5,76.5C 560.396,73.2096 573.396,69.8763 586.5,66.5C 586.5,75.1667 586.5,83.8333 586.5,92.5C 583.284,92.3455 580.617,93.3455 578.5,95.5C 574.488,97.1897 570.488,98.8563 566.5,100.5C 563.941,102.679 561.274,104.679 558.5,106.5C 554.463,107.065 550.797,108.399 547.5,110.5C 531.667,112.298 516.001,111.298 500.5,107.5C 497.829,105.882 494.829,105.215 491.5,105.5C 462.136,104.982 432.802,103.982 403.5,102.5C 403.389,101.883 403.056,101.383 402.5,101C 396.151,100.594 389.817,100.094 383.5,99.5C 376.306,96.7248 368.973,96.0581 361.5,97.5C 357.569,98.1322 354.235,99.7989 351.5,102.5C 346.404,105.43 341.737,108.93 337.5,113C 327.473,125.43 316.14,136.43 303.5,146C 295.752,150.735 287.752,155.069 279.5,159C 276.319,161.551 274.319,164.718 273.5,168.5C 272.698,186.7 272.365,205.033 272.5,223.5C 270.211,225.448 267.878,227.448 265.5,229.5C 256.675,232.421 248.342,236.087 240.5,240.5C 237.654,240.552 235.32,241.552 233.5,243.5C 222.017,247.165 212.184,253.498 204,262.5C 202.333,264.833 200.667,267.167 199,269.5C 194.573,282.312 190.906,295.312 188,308.5C 184.998,314.185 181.165,319.351 176.5,324C 170.851,328.839 164.851,333.006 158.5,336.5C 145.5,336.5 132.5,336.5 119.5,336.5C 133.456,326.842 147.122,316.675 160.5,306C 168.382,298.612 174.049,289.779 177.5,279.5C 179.067,278.319 179.901,276.653 180,274.5C 181.142,266.875 181.642,259.208 181.5,251.5C 182.349,240.974 187.015,232.474 195.5,226C 204.062,220.053 213.395,215.72 223.5,213C 228.519,210.157 233.186,206.824 237.5,203C 238.823,202.184 239.489,201.017 239.5,199.5C 239.833,198.833 240.167,198.167 240.5,197.5C 241.117,197.389 241.617,197.056 242,196.5C 242.5,189.508 242.666,182.508 242.5,175.5C 242.5,173.833 242.5,172.167 242.5,170.5C 244.163,168.562 244.829,166.228 244.5,163.5C 247.799,151.69 254.466,142.19 264.5,135C 274.838,129.166 284.838,122.833 294.5,116C 308.084,103.418 321.418,90.4176 334.5,77C 339.642,73.0956 345.309,70.2623 351.5,68.5C 357.403,67.1039 363.403,66.4372 369.5,66.5C 380.218,67.4438 390.885,68.7771 401.5,70.5 Z"/></g>
<g><path style="opacity:1" fill="#42381c" d="M 265.5,23.5 C 265.643,25.2624 265.309,26.9291 264.5,28.5C 264.97,29.463 265.637,29.463 266.5,28.5C 258.114,48.281 247.948,66.9477 236,84.5C 230.633,94.5198 225.3,104.52 220,114.5C 218.444,118.558 217.277,122.725 216.5,127C 216.439,128.711 217.106,130.044 218.5,131C 228.257,132.31 237.257,130.31 245.5,125C 252.5,119.333 259.5,113.667 266.5,108C 286.953,89.0909 307.62,70.4242 328.5,52C 334.702,48.067 341.035,44.4004 347.5,41C 352.384,39.4263 357.384,38.593 362.5,38.5C 380.156,37.2957 397.823,37.2957 415.5,38.5C 423.167,39.1667 430.833,39.8333 438.5,40.5C 446.581,42.5615 454.914,43.8948 463.5,44.5C 473.679,47.0688 484.012,48.7355 494.5,49.5C 501.989,50.329 509.656,50.829 517.5,51C 516.584,51.2784 515.918,51.7784 515.5,52.5C 513.5,52.5 511.5,52.5 509.5,52.5C 499.086,52.8456 488.752,52.1789 478.5,50.5C 439.137,41.4758 399.137,38.3091 358.5,41C 350.997,42.2947 343.997,44.9613 337.5,49C 310.943,70.5512 285.276,93.2178 260.5,117C 253.074,122.699 245.407,127.866 237.5,132.5C 230.869,133.331 224.202,133.664 217.5,133.5C 216.206,132.71 215.039,131.71 214,130.5C 213.262,126.739 213.595,123.072 215,119.5C 219.358,110.819 223.691,102.153 228,93.5C 242.679,71.264 255.179,47.9307 265.5,23.5 Z"/></g>
<g><path style="opacity:1" fill="#2f2b20" d="M 424.5,71.5 C 430.479,71.4925 436.146,72.4925 441.5,74.5C 435.575,74.2242 429.908,73.2242 424.5,71.5 Z"/></g>
<g><path style="opacity:1" fill="#39311e" d="M 437.5,76.5 C 444.363,76.8389 451.196,77.5056 458,78.5C 460.361,78.4961 462.527,78.1627 464.5,77.5C 472.411,77.0787 480.077,77.7454 487.5,79.5C 480.836,78.8784 474.169,78.7118 467.5,79C 468.416,79.2784 469.082,79.7784 469.5,80.5C 458.573,80.1276 447.906,78.7943 437.5,76.5 Z"/></g>
<g><path style="opacity:1" fill="#4a3d1b" d="M 27.5,71.5 C 28.2596,76.1502 28.9262,80.8169 29.5,85.5C 29.6495,86.552 29.4828,87.552 29,88.5C 28.7679,87.2625 28.2679,86.2625 27.5,85.5C 27.1491,81.3164 26.4824,77.3164 25.5,73.5C 25.3433,72.1266 25.51,70.7932 26,69.5C 26.2784,70.4158 26.7784,71.0825 27.5,71.5 Z"/></g>
<g><path style="opacity:1" fill="#42371c" d="M 387.5,64.5 C 392.873,66.5785 398.539,67.9119 404.5,68.5C 411.098,69.9329 417.764,70.9329 424.5,71.5C 429.908,73.2242 435.575,74.2242 441.5,74.5C 449.283,75.6556 456.95,76.6556 464.5,77.5C 462.527,78.1627 460.361,78.4961 458,78.5C 451.196,77.5056 444.363,76.8389 437.5,76.5C 425.452,74.7142 413.452,72.7142 401.5,70.5C 388.207,66.5472 374.541,64.7139 360.5,65C 357.269,65.8611 354.269,67.0278 351.5,68.5C 345.309,70.2623 339.642,73.0956 334.5,77C 321.418,90.4176 308.084,103.418 294.5,116C 284.838,122.833 274.838,129.166 264.5,135C 254.466,142.19 247.799,151.69 244.5,163.5C 243.076,165.515 242.41,167.848 242.5,170.5C 242.5,172.167 242.5,173.833 242.5,175.5C 242.167,175.5 241.833,175.5 241.5,175.5C 241.649,174.448 241.483,173.448 241,172.5C 240.814,175.036 240.314,177.369 239.5,179.5C 239.885,170.962 241.385,162.629 244,154.5C 250.456,144.377 258.623,135.877 268.5,129C 274.833,125.333 281.167,121.667 287.5,118C 302.067,104.555 316.4,90.8885 330.5,77C 347.135,62.634 366.135,58.4673 387.5,64.5 Z"/></g>
<g><path style="opacity:1" fill="#2d2920" d="M 401.5,70.5 C 390.885,68.7771 380.218,67.4438 369.5,66.5C 363.403,66.4372 357.403,67.1039 351.5,68.5C 354.269,67.0278 357.269,65.8611 360.5,65C 374.541,64.7139 388.207,66.5472 401.5,70.5 Z"/></g>
<g><path style="opacity:1" fill="#43381c" d="M 586.5,63.5 C 586.5,64.5 586.5,65.5 586.5,66.5C 573.396,69.8763 560.396,73.2096 547.5,76.5C 541.94,76.3354 536.94,77.6688 532.5,80.5C 531.833,80.5 531.167,80.5 530.5,80.5C 517.219,82.0534 503.885,82.7201 490.5,82.5C 483.508,81.7784 476.508,81.1117 469.5,80.5C 469.082,79.7784 468.416,79.2784 467.5,79C 474.169,78.7118 480.836,78.8784 487.5,79.5C 488.5,79.5 489.5,79.5 490.5,79.5C 499.324,80.6573 508.324,80.824 517.5,80C 518.737,79.7679 519.737,79.2679 520.5,78.5C 541.054,75.8124 561.054,70.9791 580.5,64C 582.473,63.5045 584.473,63.3379 586.5,63.5 Z"/></g>
<g><path style="opacity:1" fill="#322d1f" d="M 520.5,78.5 C 519.737,79.2679 518.737,79.7679 517.5,80C 508.324,80.824 499.324,80.6573 490.5,79.5C 500.521,79.6295 510.521,79.2961 520.5,78.5 Z"/></g>
<g><path style="opacity:1" fill="#2d2920" d="M 547.5,76.5 C 542.826,78.5873 537.826,79.9206 532.5,80.5C 536.94,77.6688 541.94,76.3354 547.5,76.5 Z"/></g>
<g><path style="opacity:1" fill="#2c2920" d="M 530.5,80.5 C 525.747,81.9843 520.747,82.8177 515.5,83C 506.99,83.8232 498.656,83.6566 490.5,82.5C 503.885,82.7201 517.219,82.0534 530.5,80.5 Z"/></g>
<g><path style="opacity:1" fill="#42381c" d="M 27.5,85.5 C 28.2679,86.2625 28.7679,87.2625 29,88.5C 29.4828,87.552 29.6495,86.552 29.5,85.5C 32.7005,95.1068 34.3672,105.107 34.5,115.5C 33.8333,114.5 33.1667,113.5 32.5,112.5C 30.4661,103.658 28.7995,94.6577 27.5,85.5 Z"/></g>
<g><path style="opacity:1" fill="#332d1f" d="M 586.5,92.5 C 586.5,92.8333 586.5,93.1667 586.5,93.5C 583.833,94.1667 581.167,94.8333 578.5,95.5C 580.617,93.3455 583.284,92.3455 586.5,92.5 Z"/></g>
<g><path style="opacity:1" fill="#493c1b" d="M 586.5,93.5 C 586.5,94.8333 586.5,96.1667 586.5,97.5C 583.654,97.5516 581.32,98.5516 579.5,100.5C 573.833,102.318 568.833,105.151 564.5,109C 561.931,109.898 559.598,111.065 557.5,112.5C 555.102,112.259 553.102,112.926 551.5,114.5C 549.097,114.448 546.764,114.781 544.5,115.5C 534.825,115.362 525.158,115.029 515.5,114.5C 506.55,112.876 497.55,111.542 488.5,110.5C 488.389,109.883 488.056,109.383 487.5,109C 467.503,108.5 447.503,108.333 427.5,108.5C 423.833,108.5 420.167,108.5 416.5,108.5C 404.316,106.66 391.983,104.993 379.5,103.5C 365.84,99.2129 354.507,102.546 345.5,113.5C 342.833,114.167 341.167,115.833 340.5,118.5C 330.161,128.839 319.494,138.839 308.5,148.5C 305.802,148.845 303.802,150.178 302.5,152.5C 300.181,152.992 298.181,153.992 296.5,155.5C 294.326,155.75 292.659,156.75 291.5,158.5C 287.012,159.576 283.345,161.909 280.5,165.5C 278.883,166.589 278.05,168.256 278,170.5C 278.014,188.211 277.848,205.877 277.5,223.5C 275.833,228.5 272.5,231.833 267.5,233.5C 265.326,233.75 263.659,234.75 262.5,236.5C 254.791,238.909 247.458,241.909 240.5,245.5C 234.766,246.537 229.766,248.87 225.5,252.5C 223.821,252.892 222.154,253.392 220.5,254C 212.545,259.121 206.545,265.954 202.5,274.5C 200.299,278.114 198.966,282.114 198.5,286.5C 196.109,299.511 191.276,311.511 184,322.5C 179.235,327.772 174.069,332.439 168.5,336.5C 165.167,336.5 161.833,336.5 158.5,336.5C 164.851,333.006 170.851,328.839 176.5,324C 181.165,319.351 184.998,314.185 188,308.5C 190.906,295.312 194.573,282.312 199,269.5C 200.667,267.167 202.333,264.833 204,262.5C 212.184,253.498 222.017,247.165 233.5,243.5C 236.157,243.065 238.491,242.065 240.5,240.5C 248.342,236.087 256.675,232.421 265.5,229.5C 267.878,227.448 270.211,225.448 272.5,223.5C 274.055,219.797 274.722,215.797 274.5,211.5C 273.677,197.178 273.343,182.845 273.5,168.5C 274.319,164.718 276.319,161.551 279.5,159C 287.752,155.069 295.752,150.735 303.5,146C 316.14,136.43 327.473,125.43 337.5,113C 341.737,108.93 346.404,105.43 351.5,102.5C 355.431,101.868 358.765,100.201 361.5,97.5C 368.973,96.0581 376.306,96.7248 383.5,99.5C 389.886,101.468 396.552,102.468 403.5,102.5C 432.802,103.982 462.136,104.982 491.5,105.5C 494.219,106.913 497.219,107.58 500.5,107.5C 516.001,111.298 531.667,112.298 547.5,110.5C 551.644,110.223 555.311,108.89 558.5,106.5C 561.274,104.679 563.941,102.679 566.5,100.5C 570.488,98.8563 574.488,97.1897 578.5,95.5C 581.167,94.8333 583.833,94.1667 586.5,93.5 Z"/></g>
<g><path style="opacity:1" fill="#342e1f" d="M 586.5,97.5 C 586.5,97.8333 586.5,98.1667 586.5,98.5C 584.167,99.1667 581.833,99.8333 579.5,100.5C 581.32,98.5516 583.654,97.5516 586.5,97.5 Z"/></g>
<g><path style="opacity:1" fill="#3d351d" d="M 361.5,97.5 C 358.765,100.201 355.431,101.868 351.5,102.5C 354.235,99.7989 357.569,98.1322 361.5,97.5 Z"/></g>
<g><path style="opacity:1" fill="#222221" d="M 586.5,98.5 C 586.5,114.833 586.5,131.167 586.5,147.5C 580.445,149.017 574.445,150.851 568.5,153C 548.615,156.219 528.615,157.219 508.5,156C 503.094,155.385 497.761,154.385 492.5,153C 478.563,148.083 464.896,142.917 451.5,137.5C 447.079,135.898 442.412,134.898 437.5,134.5C 430.167,134.5 422.833,134.5 415.5,134.5C 411.466,134.672 407.466,135.172 403.5,136C 402.944,136.383 402.611,136.883 402.5,137.5C 376.286,143.306 352.953,154.639 332.5,171.5C 324.132,179.714 317.965,189.38 314,200.5C 311.385,216.962 307.218,232.962 301.5,248.5C 297.653,255.023 292.32,259.689 285.5,262.5C 279.542,263.096 273.875,264.43 268.5,266.5C 253.604,266.04 241.438,271.373 232,282.5C 223.166,303.209 210.666,321.209 194.5,336.5C 185.833,336.5 177.167,336.5 168.5,336.5C 174.069,332.439 179.235,327.772 184,322.5C 191.276,311.511 196.109,299.511 198.5,286.5C 199.117,286.389 199.617,286.056 200,285.5C 200.852,281.811 201.685,278.144 202.5,274.5C 206.545,265.954 212.545,259.121 220.5,254C 222.154,253.392 223.821,252.892 225.5,252.5C 228.599,250.855 231.932,249.688 235.5,249C 237.584,248.303 239.251,247.136 240.5,245.5C 247.458,241.909 254.791,238.909 262.5,236.5C 264.848,236.408 266.514,235.408 267.5,233.5C 272.5,231.833 275.833,228.5 277.5,223.5C 278.117,223.389 278.617,223.056 279,222.5C 279.485,210.829 279.319,199.162 278.5,187.5C 278.447,180.049 279.113,172.716 280.5,165.5C 283.345,161.909 287.012,159.576 291.5,158.5C 293.848,158.408 295.514,157.408 296.5,155.5C 298.181,153.992 300.181,152.992 302.5,152.5C 304.853,151.66 306.853,150.326 308.5,148.5C 319.494,138.839 330.161,128.839 340.5,118.5C 342.5,117.167 344.167,115.5 345.5,113.5C 354.507,102.546 365.84,99.2129 379.5,103.5C 381.877,104.887 384.543,105.721 387.5,106C 397.152,107.082 406.818,107.915 416.5,108.5C 420.167,108.5 423.833,108.5 427.5,108.5C 447.682,109.226 468.015,109.892 488.5,110.5C 497.55,111.542 506.55,112.876 515.5,114.5C 518.053,115.255 520.72,115.922 523.5,116.5C 530.989,117.656 538.655,117.822 546.5,117C 548.175,116.015 549.842,115.181 551.5,114.5C 553.898,114.741 555.898,114.074 557.5,112.5C 559.598,111.065 561.931,109.898 564.5,109C 568.833,105.151 573.833,102.318 579.5,100.5C 581.833,99.8333 584.167,99.1667 586.5,98.5 Z"/></g>
<g><path style="opacity:1" fill="#322c1f" d="M 383.5,99.5 C 389.817,100.094 396.151,100.594 402.5,101C 403.056,101.383 403.389,101.883 403.5,102.5C 396.552,102.468 389.886,101.468 383.5,99.5 Z"/></g>
<g><path style="opacity:1" fill="#352f1f" d="M 379.5,103.5 C 391.983,104.993 404.316,106.66 416.5,108.5C 406.818,107.915 397.152,107.082 387.5,106C 384.543,105.721 381.877,104.887 379.5,103.5 Z"/></g>
<g><path style="opacity:1" fill="#342e1e" d="M 491.5,105.5 C 494.829,105.215 497.829,105.882 500.5,107.5C 497.219,107.58 494.219,106.913 491.5,105.5 Z"/></g>
<g><path style="opacity:1" fill="#312c1f" d="M 558.5,106.5 C 555.311,108.89 551.644,110.223 547.5,110.5C 550.797,108.399 554.463,107.065 558.5,106.5 Z"/></g>
<g><path style="opacity:1" fill="#3f351c" d="M 427.5,108.5 C 447.503,108.333 467.503,108.5 487.5,109C 488.056,109.383 488.389,109.883 488.5,110.5C 468.015,109.892 447.682,109.226 427.5,108.5 Z"/></g>
<g><path style="opacity:1" fill="#322d1f" d="M 557.5,112.5 C 555.898,114.074 553.898,114.741 551.5,114.5C 553.102,112.926 555.102,112.259 557.5,112.5 Z"/></g>
<g><path style="opacity:1" fill="#4b3e1b" d="M 32.5,112.5 C 33.1667,113.5 33.8333,114.5 34.5,115.5C 34.5,122.5 34.5,129.5 34.5,136.5C 33.8333,136.833 33.1667,137.167 32.5,137.5C 32.5,129.167 32.5,120.833 32.5,112.5 Z"/></g>
<g><path style="opacity:1" fill="#40361c" d="M 515.5,114.5 C 525.158,115.029 534.825,115.362 544.5,115.5C 537.687,116.491 530.687,116.825 523.5,116.5C 520.72,115.922 518.053,115.255 515.5,114.5 Z"/></g>
<g><path style="opacity:1" fill="#302b1f" d="M 345.5,113.5 C 344.167,115.5 342.5,117.167 340.5,118.5C 341.167,115.833 342.833,114.167 345.5,113.5 Z"/></g>
<g><path style="opacity:1" fill="#302b20" d="M 551.5,114.5 C 549.842,115.181 548.175,116.015 546.5,117C 538.655,117.822 530.989,117.656 523.5,116.5C 530.687,116.825 537.687,116.491 544.5,115.5C 546.764,114.781 549.097,114.448 551.5,114.5 Z"/></g>
<g><path style="opacity:1" fill="#342e1e" d="M 125.5,114.5 C 125.245,116.967 124.245,118.967 122.5,120.5C 122.755,118.033 123.755,116.033 125.5,114.5 Z"/></g>
<g><path style="opacity:1" fill="#473b1c" d="M 82.5,112.5 C 81.8548,123.398 79.5215,133.731 75.5,143.5C 74.506,142.001 74.506,140.334 75.5,138.5C 77.9232,127.626 79.5899,116.626 80.5,105.5C 81.3317,87.3379 81.8317,69.0046 82,50.5C 82.5,71.164 82.6666,91.8306 82.5,112.5 Z"/></g>
<g><path style="opacity:1" fill="#2f2a1f" d="M 237.5,132.5 C 233.966,134.048 230.133,134.714 226,134.5C 222.979,134.498 220.146,134.164 217.5,133.5C 224.202,133.664 230.869,133.331 237.5,132.5 Z"/></g>
<g><path style="opacity:1" fill="#332d1f" d="M 415.5,134.5 C 411.382,135.955 407.049,136.955 402.5,137.5C 402.611,136.883 402.944,136.383 403.5,136C 407.466,135.172 411.466,134.672 415.5,134.5 Z"/></g>
<g><path style="opacity:1" fill="#322c1f" d="M 437.5,134.5 C 442.412,134.898 447.079,135.898 451.5,137.5C 446.469,137.557 441.802,136.557 437.5,134.5 Z"/></g>
<g><path style="opacity:1" fill="#222221" d="M 512.5,159.5 C 522.992,160.659 533.659,160.825 544.5,160C 551.819,159.876 558.819,158.709 565.5,156.5C 572.316,154.283 579.316,152.283 586.5,150.5C 586.5,158.5 586.5,166.5 586.5,174.5C 569.944,178.211 553.277,181.545 536.5,184.5C 523.16,185.723 509.827,185.723 496.5,184.5C 490.751,183.813 485.084,182.647 479.5,181C 471.676,177.255 464.009,173.255 456.5,169C 438.523,163.146 420.523,163.146 402.5,169C 387.288,175.034 371.954,180.701 356.5,186C 347.434,193.071 340.601,201.904 336,212.5C 331.657,227.526 327.323,242.526 323,257.5C 320.515,265.974 316.349,273.474 310.5,280C 307.931,280.898 305.598,282.065 303.5,283.5C 300.478,283.804 297.478,284.304 294.5,285C 293.944,285.383 293.611,285.883 293.5,286.5C 282.71,287.861 272.71,291.361 263.5,297C 258.327,302.174 254.827,308.341 253,315.5C 248.65,322.877 243.817,329.877 238.5,336.5C 225.167,336.5 211.833,336.5 198.5,336.5C 214.313,321.552 226.147,303.885 234,283.5C 238.583,277.79 244.416,273.957 251.5,272C 261.842,270.094 272.175,268.094 282.5,266C 294.476,262.28 302.643,254.446 307,242.5C 308.944,236.613 310.444,230.613 311.5,224.5C 312.222,224.082 312.722,223.416 313,222.5C 313.642,218.509 314.142,214.509 314.5,210.5C 318.284,192.765 327.284,178.265 341.5,167C 362.48,152.727 385.48,143.061 410.5,138C 422.206,137.168 433.872,137.501 445.5,139C 459.706,143.402 473.706,148.402 487.5,154C 495.712,156.443 504.045,158.276 512.5,159.5 Z"/></g>
<g><path style="opacity:1" fill="#322d1f" d="M 308.5,148.5 C 306.853,150.326 304.853,151.66 302.5,152.5C 303.802,150.178 305.802,148.845 308.5,148.5 Z"/></g>
<g><path style="opacity:1" fill="#38311e" d="M 117.5,146.5 C 117.245,148.967 116.245,150.967 114.5,152.5C 114.755,150.033 115.755,148.033 117.5,146.5 Z"/></g>
<g><path style="opacity:1" fill="#3b331d" d="M 110.5,151.5 C 110.23,155.358 108.897,158.691 106.5,161.5C 107.267,157.851 108.6,154.518 110.5,151.5 Z"/></g>
<g><path style="opacity:1" fill="#342d1f" d="M 296.5,155.5 C 295.514,157.408 293.848,158.408 291.5,158.5C 292.659,156.75 294.326,155.75 296.5,155.5 Z"/></g>
<g><path style="opacity:1" fill="#43381c" d="M 75.5,138.5 C 74.506,140.334 74.506,142.001 75.5,143.5C 75.6602,145.199 75.4935,146.866 75,148.5C 58.5638,183.362 42.7304,218.362 27.5,253.5C 26.6236,253.631 25.9569,253.298 25.5,252.5C 26.1799,251.14 26.8466,249.807 27.5,248.5C 43.3567,211.535 59.3567,174.869 75.5,138.5 Z"/></g>
<g><path style="opacity:1" fill="#2b2720" d="M 565.5,156.5 C 558.819,158.709 551.819,159.876 544.5,160C 533.659,160.825 522.992,160.659 512.5,159.5C 530.268,160.024 547.935,159.024 565.5,156.5 Z"/></g>
<g><path style="opacity:1" fill="#342d1f" d="M 244.5,163.5 C 244.829,166.228 244.163,168.562 242.5,170.5C 242.41,167.848 243.076,165.515 244.5,163.5 Z"/></g>
<g><path style="opacity:1" fill="#222221" d="M 553.5,184.5 C 558.831,184.579 563.831,183.579 568.5,181.5C 574.452,180.042 580.452,178.709 586.5,177.5C 586.5,186.5 586.5,195.5 586.5,204.5C 576.128,205.264 565.795,206.43 555.5,208C 554.944,208.383 554.611,208.883 554.5,209.5C 546.535,210.49 538.535,211.157 530.5,211.5C 518.513,212.206 506.513,212.539 494.5,212.5C 489.213,211.285 483.88,210.285 478.5,209.5C 478.389,208.883 478.056,208.383 477.5,208C 474.173,207.39 470.839,206.89 467.5,206.5C 462.681,204.951 457.681,203.617 452.5,202.5C 452.389,201.883 452.056,201.383 451.5,201C 447.93,199.69 444.263,198.857 440.5,198.5C 420.369,194.14 401.036,196.307 382.5,205C 373.578,212.612 367.245,221.946 363.5,233C 360.784,248.473 356.951,263.64 352,278.5C 348.218,285.948 342.718,291.782 335.5,296C 321.055,300.556 307.055,306.223 293.5,313C 284.269,319.397 276.602,327.23 270.5,336.5C 260.833,336.5 251.167,336.5 241.5,336.5C 250.049,326.739 256.549,315.739 261,303.5C 267.341,296.706 275.175,292.539 284.5,291C 292.21,289.156 299.876,287.156 307.5,285C 314.298,281.246 319.131,275.746 322,268.5C 327.608,249.011 333.608,229.677 340,210.5C 343.587,202.501 348.754,195.668 355.5,190C 369.175,184.721 382.842,179.555 396.5,174.5C 404.09,173.014 411.423,171.014 418.5,168.5C 429.444,166.954 440.444,167.454 451.5,170C 460.979,174.669 470.313,179.502 479.5,184.5C 504.291,190.901 528.957,190.901 553.5,184.5 Z"/></g>
<g><path style="opacity:1" fill="#322d1f" d="M 145.5,165.5 C 145.741,167.898 145.074,169.898 143.5,171.5C 143.259,169.102 143.926,167.102 145.5,165.5 Z"/></g>
<g><path style="opacity:1" fill="#4c3e1b" d="M 241.5,175.5 C 241.764,182.89 241.43,190.223 240.5,197.5C 240.167,198.167 239.833,198.833 239.5,199.5C 238.662,199.158 238.328,198.492 238.5,197.5C 239.413,191.559 239.746,185.559 239.5,179.5C 240.314,177.369 240.814,175.036 241,172.5C 241.483,173.448 241.649,174.448 241.5,175.5 Z"/></g>
<g><path style="opacity:1" fill="#2c2920" d="M 273.5,168.5 C 273.343,182.845 273.677,197.178 274.5,211.5C 274.722,215.797 274.055,219.797 272.5,223.5C 272.365,205.033 272.698,186.7 273.5,168.5 Z"/></g>
<g><path style="opacity:1" fill="#322c1f" d="M 280.5,165.5 C 279.113,172.716 278.447,180.049 278.5,187.5C 279.319,199.162 279.485,210.829 279,222.5C 278.617,223.056 278.117,223.389 277.5,223.5C 277.848,205.877 278.014,188.211 278,170.5C 278.05,168.256 278.883,166.589 280.5,165.5 Z"/></g>
<g><path style="opacity:1" fill="#44391c" d="M 34.5,136.5 C 33.8999,141.198 33.0666,145.864 32,150.5C 24.0663,171.03 15.0663,191.03 5,210.5C 3.39089,213.407 1.55755,216.073 -0.5,218.5C -0.5,216.833 -0.5,215.167 -0.5,213.5C 9.32105,195.565 18.4877,177.232 27,158.5C 28.7064,151.335 30.5397,144.335 32.5,137.5C 33.1667,137.167 33.8333,136.833 34.5,136.5 Z"/></g>
<g><path style="opacity:1" fill="#2d2920" d="M 568.5,181.5 C 563.831,183.579 558.831,184.579 553.5,184.5C 558.256,182.882 563.256,181.882 568.5,181.5 Z"/></g>
<g><path style="opacity:1" fill="#2e2a1f" d="M 241.5,175.5 C 241.833,175.5 242.167,175.5 242.5,175.5C 242.666,182.508 242.5,189.508 242,196.5C 241.617,197.056 241.117,197.389 240.5,197.5C 241.43,190.223 241.764,182.89 241.5,175.5 Z"/></g>
<g><path style="opacity:1" fill="#37301e" d="M 102.5,190.5 C 102.379,193.105 101.379,195.105 99.5,196.5C 99.7549,194.033 100.755,192.033 102.5,190.5 Z"/></g>
<g><path style="opacity:1" fill="#39311e" d="M 95.5,194.5 C 95.5905,197.152 94.9238,199.485 93.5,201.5C 93.4095,198.848 94.0762,196.515 95.5,194.5 Z"/></g>
<g><path style="opacity:1" fill="#222221" d="M 480.5,212.5 C 484.921,213.945 489.588,214.778 494.5,215C 506.162,215.5 517.829,215.667 529.5,215.5C 539.155,215.395 548.488,214.061 557.5,211.5C 557.833,211.5 558.167,211.5 558.5,211.5C 563.1,211.72 567.433,211.054 571.5,209.5C 576.43,208.352 581.43,207.685 586.5,207.5C 586.5,217.5 586.5,227.5 586.5,237.5C 574.787,238.422 563.121,239.756 551.5,241.5C 542.18,242.129 532.846,242.462 523.5,242.5C 516.051,240.647 508.385,239.313 500.5,238.5C 484.854,236.005 469.187,233.672 453.5,231.5C 452.737,230.732 451.737,230.232 450.5,230C 439.5,229.333 428.5,229.333 417.5,230C 416.944,230.383 416.611,230.883 416.5,231.5C 405.397,231.781 397.23,236.781 392,246.5C 389.865,261.607 388.032,276.774 386.5,292C 384.496,300.69 381.329,308.857 377,316.5C 370.271,324.244 361.771,328.244 351.5,328.5C 342.827,328.334 334.16,328.5 325.5,329C 324.584,329.278 323.918,329.778 323.5,330.5C 317.479,330.241 312.479,332.241 308.5,336.5C 296.833,336.5 285.167,336.5 273.5,336.5C 281.598,324.569 292.264,315.736 305.5,310C 311.667,307.245 318.001,305.078 324.5,303.5C 328.708,303.323 332.374,301.99 335.5,299.5C 347.347,292.463 354.847,282.13 358,268.5C 359.368,262.325 360.868,256.325 362.5,250.5C 363.768,248.095 364.435,245.428 364.5,242.5C 365.09,238.397 366.09,234.397 367.5,230.5C 369.245,228.967 370.245,226.967 370.5,224.5C 374.249,214.916 380.916,208.083 390.5,204C 403.864,199.817 417.53,198.483 431.5,200C 447.821,204.663 464.154,208.83 480.5,212.5 Z"/></g>
<g><path style="opacity:1" fill="#2f2b1f" d="M 440.5,198.5 C 444.263,198.857 447.93,199.69 451.5,201C 452.056,201.383 452.389,201.883 452.5,202.5C 448.265,201.533 444.265,200.2 440.5,198.5 Z"/></g>
<g><path style="opacity:1" fill="#312c20" d="M 167.5,188.5 C 167.138,193.752 166.138,198.752 164.5,203.5C 164.917,199.165 165.417,194.832 166,190.5C 166.278,189.584 166.778,188.918 167.5,188.5 Z"/></g>
<g><path style="opacity:1" fill="#42381c" d="M 440.5,198.5 C 444.265,200.2 448.265,201.533 452.5,202.5C 457.681,203.617 462.681,204.951 467.5,206.5C 470.854,208.258 474.521,209.258 478.5,209.5C 483.88,210.285 489.213,211.285 494.5,212.5C 490.002,213.375 485.335,213.375 480.5,212.5C 464.154,208.83 447.821,204.663 431.5,200C 417.53,198.483 403.864,199.817 390.5,204C 380.916,208.083 374.249,214.916 370.5,224.5C 368.755,226.033 367.755,228.033 367.5,230.5C 366.09,234.397 365.09,238.397 364.5,242.5C 362.777,244.78 362.111,247.447 362.5,250.5C 360.868,256.325 359.368,262.325 358,268.5C 354.847,282.13 347.347,292.463 335.5,299.5C 331.605,300.462 327.939,301.796 324.5,303.5C 318.001,305.078 311.667,307.245 305.5,310C 292.264,315.736 281.598,324.569 273.5,336.5C 272.5,336.5 271.5,336.5 270.5,336.5C 276.602,327.23 284.269,319.397 293.5,313C 307.055,306.223 321.055,300.556 335.5,296C 342.718,291.782 348.218,285.948 352,278.5C 356.951,263.64 360.784,248.473 363.5,233C 367.245,221.946 373.578,212.612 382.5,205C 401.036,196.307 420.369,194.14 440.5,198.5 Z"/></g>
<g><path style="opacity:1" fill="#312c1f" d="M 586.5,204.5 C 586.5,204.833 586.5,205.167 586.5,205.5C 575.803,206.614 565.136,207.948 554.5,209.5C 554.611,208.883 554.944,208.383 555.5,208C 565.795,206.43 576.128,205.264 586.5,204.5 Z"/></g>
<g><path style="opacity:1" fill="#2d2920" d="M 467.5,206.5 C 470.839,206.89 474.173,207.39 477.5,208C 478.056,208.383 478.389,208.883 478.5,209.5C 474.521,209.258 470.854,208.258 467.5,206.5 Z"/></g>
<g><path style="opacity:1" fill="#42381c" d="M 238.5,197.5 C 238.328,198.492 238.662,199.158 239.5,199.5C 239.489,201.017 238.823,202.184 237.5,203C 233.186,206.824 228.519,210.157 223.5,213C 213.395,215.72 204.062,220.053 195.5,226C 187.015,232.474 182.349,240.974 181.5,251.5C 180.674,255.982 180.174,260.649 180,265.5C 179.501,259.509 179.334,253.509 179.5,247.5C 181.335,238.675 185.669,231.175 192.5,225C 199.235,220.432 206.235,216.432 213.5,213C 217.09,211.47 220.757,210.136 224.5,209C 227.13,206.455 230.13,204.455 233.5,203C 234.833,200.809 236.5,198.976 238.5,197.5 Z"/></g>
<g><path style="opacity:1" fill="#2c2920" d="M 571.5,209.5 C 567.433,211.054 563.1,211.72 558.5,211.5C 562.618,210.291 566.951,209.624 571.5,209.5 Z"/></g>
<g><path style="opacity:1" fill="#42381c" d="M 586.5,205.5 C 586.5,206.167 586.5,206.833 586.5,207.5C 581.43,207.685 576.43,208.352 571.5,209.5C 566.951,209.624 562.618,210.291 558.5,211.5C 558.167,211.5 557.833,211.5 557.5,211.5C 548.22,212.761 538.887,213.761 529.5,214.5C 518.828,214.667 508.161,214.5 497.5,214C 506.5,213.667 515.5,213.333 524.5,213C 526.708,212.809 528.708,212.309 530.5,211.5C 538.535,211.157 546.535,210.49 554.5,209.5C 565.136,207.948 575.803,206.614 586.5,205.5 Z"/></g>
<g><path style="opacity:1" fill="#3b331d" d="M 530.5,211.5 C 528.708,212.309 526.708,212.809 524.5,213C 515.5,213.333 506.5,213.667 497.5,214C 508.161,214.5 518.828,214.667 529.5,214.5C 529.5,214.833 529.5,215.167 529.5,215.5C 517.829,215.667 506.162,215.5 494.5,215C 489.588,214.778 484.921,213.945 480.5,212.5C 485.335,213.375 490.002,213.375 494.5,212.5C 506.513,212.539 518.513,212.206 530.5,211.5 Z"/></g>
<g><path style="opacity:1" fill="#2c2820" d="M 557.5,211.5 C 548.488,214.061 539.155,215.395 529.5,215.5C 529.5,215.167 529.5,214.833 529.5,214.5C 538.887,213.761 548.22,212.761 557.5,211.5 Z"/></g>
<g><path style="opacity:1" fill="#312c1f" d="M 162.5,201.5 C 161.897,208.765 160.563,215.765 158.5,222.5C 158.783,215.169 160.116,208.169 162.5,201.5 Z"/></g>
<g><path style="opacity:1" fill="#312c1f" d="M 314.5,210.5 C 314.142,214.509 313.642,218.509 313,222.5C 312.722,223.416 312.222,224.082 311.5,224.5C 311.87,219.578 312.87,214.911 314.5,210.5 Z"/></g>
<g><path style="opacity:1" fill="#312c1f" d="M 370.5,224.5 C 370.245,226.967 369.245,228.967 367.5,230.5C 367.755,228.033 368.755,226.033 370.5,224.5 Z"/></g>
<g><path style="opacity:1" fill="#2c2820" d="M 453.5,231.5 C 441.138,230.284 428.805,230.284 416.5,231.5C 416.611,230.883 416.944,230.383 417.5,230C 428.5,229.333 439.5,229.333 450.5,230C 451.737,230.232 452.737,230.732 453.5,231.5 Z"/></g>
<g><path style="opacity:1" fill="#222221" d="M 446.5,233.5 C 447.5,233.5 448.5,233.5 449.5,233.5C 449.918,234.222 450.584,234.722 451.5,235C 458.836,235.882 466.169,236.715 473.5,237.5C 480.914,237.983 488.247,238.983 495.5,240.5C 498.273,241.657 501.273,242.324 504.5,242.5C 522.393,245.623 540.393,246.289 558.5,244.5C 567.96,243.984 577.293,242.651 586.5,240.5C 586.5,247.833 586.5,255.167 586.5,262.5C 583.447,262.111 580.78,262.777 578.5,264.5C 569.074,265.066 559.741,266.066 550.5,267.5C 532.508,268.166 514.508,268.5 496.5,268.5C 486.038,267.813 476.038,265.313 466.5,261C 456.995,258.23 447.328,256.897 437.5,257C 429.998,258.834 424.165,263.001 420,269.5C 418.523,273.43 417.356,277.43 416.5,281.5C 415.414,281.62 414.747,282.287 414.5,283.5C 413.444,287.444 412.777,291.444 412.5,295.5C 411.395,305.882 409.895,316.215 408,326.5C 405.85,330.503 403.016,333.836 399.5,336.5C 370.833,336.5 342.167,336.5 313.5,336.5C 313.842,335.662 314.508,335.328 315.5,335.5C 329.024,333.143 342.691,331.976 356.5,332C 357.416,331.722 358.082,331.222 358.5,330.5C 373.852,326.647 383.352,316.981 387,301.5C 388.068,295.524 388.901,289.524 389.5,283.5C 390.748,282.666 391.415,281.333 391.5,279.5C 392.231,274.859 392.564,270.193 392.5,265.5C 392.5,263.167 392.5,260.833 392.5,258.5C 393.475,255.689 394.142,252.689 394.5,249.5C 397.787,240.172 404.453,235.172 414.5,234.5C 425.135,233.596 435.802,233.263 446.5,233.5 Z"/></g>
<g><path style="opacity:1" fill="#322c1f" d="M 267.5,233.5 C 266.514,235.408 264.848,236.408 262.5,236.5C 263.659,234.75 265.326,233.75 267.5,233.5 Z"/></g>
<g><path style="opacity:1" fill="#43381c" d="M 453.5,231.5 C 469.187,233.672 484.854,236.005 500.5,238.5C 507.841,240.934 515.508,242.267 523.5,242.5C 526.817,243.165 530.317,243.499 534,243.5C 540.067,243.61 545.9,242.943 551.5,241.5C 563.121,239.756 574.787,238.422 586.5,237.5C 586.5,238.167 586.5,238.833 586.5,239.5C 576.993,240.885 567.66,242.552 558.5,244.5C 540.393,246.289 522.393,245.623 504.5,242.5C 501.829,240.882 498.829,240.215 495.5,240.5C 488.247,238.983 480.914,237.983 473.5,237.5C 465.771,235.323 457.771,233.99 449.5,233.5C 448.5,233.5 447.5,233.5 446.5,233.5C 436.675,232.342 426.675,232.175 416.5,233C 415.584,233.278 414.918,233.778 414.5,234.5C 404.453,235.172 397.787,240.172 394.5,249.5C 392.735,252.123 392.068,255.123 392.5,258.5C 392.5,260.833 392.5,263.167 392.5,265.5C 391.507,271.368 390.507,277.368 389.5,283.5C 388.901,289.524 388.068,295.524 387,301.5C 383.352,316.981 373.852,326.647 358.5,330.5C 345.489,331.072 332.489,331.905 319.5,333C 317.934,333.608 316.6,334.442 315.5,335.5C 314.508,335.328 313.842,335.662 313.5,336.5C 311.833,336.5 310.167,336.5 308.5,336.5C 312.479,332.241 317.479,330.241 323.5,330.5C 332.977,329.912 342.31,329.245 351.5,328.5C 361.771,328.244 370.271,324.244 377,316.5C 381.329,308.857 384.496,300.69 386.5,292C 388.032,276.774 389.865,261.607 392,246.5C 397.23,236.781 405.397,231.781 416.5,231.5C 428.805,230.284 441.138,230.284 453.5,231.5 Z"/></g>
<g><path style="opacity:1" fill="#2c2820" d="M 449.5,233.5 C 457.771,233.99 465.771,235.323 473.5,237.5C 466.169,236.715 458.836,235.882 451.5,235C 450.584,234.722 449.918,234.222 449.5,233.5 Z"/></g>
<g><path style="opacity:1" fill="#312b1f" d="M 446.5,233.5 C 435.802,233.263 425.135,233.596 414.5,234.5C 414.918,233.778 415.584,233.278 416.5,233C 426.675,232.175 436.675,232.342 446.5,233.5 Z"/></g>
<g><path style="opacity:1" fill="#36301f" d="M 500.5,238.5 C 508.385,239.313 516.051,240.647 523.5,242.5C 515.508,242.267 507.841,240.934 500.5,238.5 Z"/></g>
<g><path style="opacity:1" fill="#332e1f" d="M 495.5,240.5 C 498.829,240.215 501.829,240.882 504.5,242.5C 501.273,242.324 498.273,241.657 495.5,240.5 Z"/></g>
<g><path style="opacity:1" fill="#37301e" d="M 240.5,240.5 C 238.491,242.065 236.157,243.065 233.5,243.5C 235.32,241.552 237.654,240.552 240.5,240.5 Z"/></g>
<g><path style="opacity:1" fill="#2f2b20" d="M 551.5,241.5 C 545.9,242.943 540.067,243.61 534,243.5C 530.317,243.499 526.817,243.165 523.5,242.5C 532.846,242.462 542.18,242.129 551.5,241.5 Z"/></g>
<g><path style="opacity:1" fill="#2c2820" d="M 586.5,239.5 C 586.5,239.833 586.5,240.167 586.5,240.5C 577.293,242.651 567.96,243.984 558.5,244.5C 567.66,242.552 576.993,240.885 586.5,239.5 Z"/></g>
<g><path style="opacity:1" fill="#2f2b20" d="M 160.5,231.5 C 160.138,236.752 159.138,241.752 157.5,246.5C 157.678,241.205 158.678,236.205 160.5,231.5 Z"/></g>
<g><path style="opacity:1" fill="#302b1f" d="M 240.5,245.5 C 239.251,247.136 237.584,248.303 235.5,249C 231.932,249.688 228.599,250.855 225.5,252.5C 229.766,248.87 234.766,246.537 240.5,245.5 Z"/></g>
<g><path style="opacity:1" fill="#312c20" d="M 364.5,242.5 C 364.435,245.428 363.768,248.095 362.5,250.5C 362.111,247.447 362.777,244.78 364.5,242.5 Z"/></g>
<g><path style="opacity:1" fill="#42381c" d="M 415.5,134.5 C 422.833,134.5 430.167,134.5 437.5,134.5C 441.802,136.557 446.469,137.557 451.5,137.5C 464.896,142.917 478.563,148.083 492.5,153C 497.761,154.385 503.094,155.385 508.5,156C 528.615,157.219 548.615,156.219 568.5,153C 574.445,150.851 580.445,149.017 586.5,147.5C 586.5,148.5 586.5,149.5 586.5,150.5C 579.316,152.283 572.316,154.283 565.5,156.5C 547.935,159.024 530.268,160.024 512.5,159.5C 504.045,158.276 495.712,156.443 487.5,154C 473.706,148.402 459.706,143.402 445.5,139C 433.872,137.501 422.206,137.168 410.5,138C 385.48,143.061 362.48,152.727 341.5,167C 327.284,178.265 318.284,192.765 314.5,210.5C 312.87,214.911 311.87,219.578 311.5,224.5C 310.444,230.613 308.944,236.613 307,242.5C 302.643,254.446 294.476,262.28 282.5,266C 272.175,268.094 261.842,270.094 251.5,272C 244.416,273.957 238.583,277.79 234,283.5C 226.147,303.885 214.313,321.552 198.5,336.5C 197.167,336.5 195.833,336.5 194.5,336.5C 210.666,321.209 223.166,303.209 232,282.5C 241.438,271.373 253.604,266.04 268.5,266.5C 274.544,266.237 280.21,264.904 285.5,262.5C 292.32,259.689 297.653,255.023 301.5,248.5C 307.218,232.962 311.385,216.962 314,200.5C 317.965,189.38 324.132,179.714 332.5,171.5C 352.953,154.639 376.286,143.306 402.5,137.5C 407.049,136.955 411.382,135.955 415.5,134.5 Z"/></g>
<g><path style="opacity:1" fill="#3d341d" d="M 27.5,248.5 C 26.8466,249.807 26.1799,251.14 25.5,252.5C 25.9569,253.298 26.6236,253.631 27.5,253.5C 25.8506,256.456 24.5173,259.456 23.5,262.5C 23.7373,261.209 23.404,260.209 22.5,259.5C 22.7366,256.353 23.5699,253.353 25,250.5C 25.4169,249.244 26.2502,248.577 27.5,248.5 Z"/></g>
<g><path style="opacity:1" fill="#44391c" d="M 251.5,-0.5 C 252.5,-0.5 253.5,-0.5 254.5,-0.5C 248.874,13.3931 242.874,27.0598 236.5,40.5C 234.856,44.902 233.856,49.5687 233.5,54.5C 232.302,59.3001 230.802,63.9668 229,68.5C 216.149,89.5233 201.816,109.523 186,128.5C 176.514,147.458 170.348,167.458 167.5,188.5C 166.778,188.918 166.278,189.584 166,190.5C 165.417,194.832 164.917,199.165 164.5,203.5C 162.532,212.61 161.199,221.943 160.5,231.5C 158.678,236.205 157.678,241.205 157.5,246.5C 155.903,254.213 154.236,262.046 152.5,270C 150.097,273.53 148.264,277.364 147,281.5C 144.513,283.809 142.513,286.476 141,289.5C 127.993,302.515 113.826,314.015 98.5,324C 93.6643,327.67 89.331,331.836 85.5,336.5C 84.5,336.5 83.5,336.5 82.5,336.5C 83.2279,334.265 84.5612,332.432 86.5,331C 101.319,319.092 116.319,307.425 131.5,296C 138.497,288.669 144.331,280.502 149,271.5C 153.509,255.438 156.676,239.105 158.5,222.5C 160.563,215.765 161.897,208.765 162.5,201.5C 163.34,193.465 164.506,185.465 166,177.5C 169,163.809 173,150.476 178,137.5C 180.838,133.828 183.171,129.828 185,125.5C 203.137,104.364 218.47,81.3643 231,56.5C 231.556,47.4987 233.556,38.832 237,30.5C 242.897,20.6313 247.73,10.298 251.5,-0.5 Z"/></g>
<g><path style="opacity:1" fill="#38311e" d="M 394.5,249.5 C 394.142,252.689 393.475,255.689 392.5,258.5C 392.068,255.123 392.735,252.123 394.5,249.5 Z"/></g>
<g><path style="opacity:1" fill="#222221" d="M 483.5,269.5 C 486.203,270.963 489.203,271.796 492.5,272C 506.006,272.827 519.34,272.66 532.5,271.5C 540.493,270.789 548.493,270.123 556.5,269.5C 563.072,269.761 569.406,269.094 575.5,267.5C 578.997,266.598 582.663,265.931 586.5,265.5C 586.5,274.167 586.5,282.833 586.5,291.5C 569.206,293.047 551.873,293.714 534.5,293.5C 525.627,293.161 516.96,291.661 508.5,289C 492.257,286.342 475.924,285.342 459.5,286C 452.366,286.479 446.866,289.646 443,295.5C 441.441,311.714 446.608,325.381 458.5,336.5C 440.5,336.5 422.5,336.5 404.5,336.5C 407.295,332.522 409.462,328.189 411,323.5C 412.944,309.224 415.444,295.057 418.5,281C 420.988,273.685 424.988,267.352 430.5,262C 431.833,261.333 433.167,260.667 434.5,260C 439.833,259.333 445.167,259.333 450.5,260C 461.606,262.869 472.606,266.036 483.5,269.5 Z"/></g>
<g><path style="opacity:1" fill="#2e2a1f" d="M 285.5,262.5 C 280.21,264.904 274.544,266.237 268.5,266.5C 273.875,264.43 279.542,263.096 285.5,262.5 Z"/></g>
<g><path style="opacity:1" fill="#342e1f" d="M 586.5,262.5 C 586.5,262.833 586.5,263.167 586.5,263.5C 583.873,264.092 581.206,264.425 578.5,264.5C 580.78,262.777 583.447,262.111 586.5,262.5 Z"/></g>
<g><path style="opacity:1" fill="#3c341d" d="M 179.5,247.5 C 179.334,253.509 179.501,259.509 180,265.5C 180.174,260.649 180.674,255.982 181.5,251.5C 181.642,259.208 181.142,266.875 180,274.5C 179.901,276.653 179.067,278.319 177.5,279.5C 179.078,275.288 179.578,270.955 179,266.5C 178.79,268.058 178.29,269.391 177.5,270.5C 177.986,262.672 178.653,255.006 179.5,247.5 Z"/></g>
<g><path style="opacity:1" fill="#42381c" d="M 586.5,263.5 C 586.5,264.167 586.5,264.833 586.5,265.5C 582.663,265.931 578.997,266.598 575.5,267.5C 569.162,267.767 562.829,268.1 556.5,268.5C 554.265,268.795 552.265,268.461 550.5,267.5C 559.741,266.066 569.074,265.066 578.5,264.5C 581.206,264.425 583.873,264.092 586.5,263.5 Z"/></g>
<g><path style="opacity:1" fill="#3e351d" d="M 550.5,267.5 C 552.265,268.461 554.265,268.795 556.5,268.5C 556.5,268.833 556.5,269.167 556.5,269.5C 548.493,270.123 540.493,270.789 532.5,271.5C 519.656,271.829 506.989,271.495 494.5,270.5C 504.506,270.666 514.506,270.5 524.5,270C 514.991,269.83 505.658,269.33 496.5,268.5C 514.508,268.5 532.508,268.166 550.5,267.5 Z"/></g>
<g><path style="opacity:1" fill="#2f2b1f" d="M 575.5,267.5 C 569.406,269.094 563.072,269.761 556.5,269.5C 556.5,269.167 556.5,268.833 556.5,268.5C 562.829,268.1 569.162,267.767 575.5,267.5 Z"/></g>
<g><path style="opacity:1" fill="#43381c" d="M 496.5,268.5 C 505.658,269.33 514.991,269.83 524.5,270C 514.506,270.5 504.506,270.666 494.5,270.5C 490.821,270.276 487.154,269.942 483.5,269.5C 472.606,266.036 461.606,262.869 450.5,260C 445.167,259.333 439.833,259.333 434.5,260C 433.167,260.667 431.833,261.333 430.5,262C 424.988,267.352 420.988,273.685 418.5,281C 415.444,295.057 412.944,309.224 411,323.5C 409.462,328.189 407.295,332.522 404.5,336.5C 402.833,336.5 401.167,336.5 399.5,336.5C 403.016,333.836 405.85,330.503 408,326.5C 409.895,316.215 411.395,305.882 412.5,295.5C 413.949,290.955 415.283,286.289 416.5,281.5C 417.356,277.43 418.523,273.43 420,269.5C 424.165,263.001 429.998,258.834 437.5,257C 447.328,256.897 456.995,258.23 466.5,261C 476.038,265.313 486.038,267.813 496.5,268.5 Z"/></g>
<g><path style="opacity:1" fill="#2e2920" d="M 392.5,265.5 C 392.564,270.193 392.231,274.859 391.5,279.5C 391.415,281.333 390.748,282.666 389.5,283.5C 390.507,277.368 391.507,271.368 392.5,265.5 Z"/></g>
<g><path style="opacity:1" fill="#292720" d="M 483.5,269.5 C 487.154,269.942 490.821,270.276 494.5,270.5C 506.989,271.495 519.656,271.829 532.5,271.5C 519.34,272.66 506.006,272.827 492.5,272C 489.203,271.796 486.203,270.963 483.5,269.5 Z"/></g>
<g><path style="opacity:1" fill="#322d1f" d="M 202.5,274.5 C 201.685,278.144 200.852,281.811 200,285.5C 199.617,286.056 199.117,286.389 198.5,286.5C 198.966,282.114 200.299,278.114 202.5,274.5 Z"/></g>
<g><path style="opacity:1" fill="#42371c" d="M 496.5,184.5 C 497.609,185.29 498.942,185.79 500.5,186C 505.5,186.167 510.5,186.333 515.5,186.5C 522.736,186.702 529.736,186.035 536.5,184.5C 553.277,181.545 569.944,178.211 586.5,174.5C 586.5,175.5 586.5,176.5 586.5,177.5C 580.452,178.709 574.452,180.042 568.5,181.5C 563.256,181.882 558.256,182.882 553.5,184.5C 528.957,190.901 504.291,190.901 479.5,184.5C 470.313,179.502 460.979,174.669 451.5,170C 440.444,167.454 429.444,166.954 418.5,168.5C 410.605,168.801 403.272,170.801 396.5,174.5C 382.842,179.555 369.175,184.721 355.5,190C 348.754,195.668 343.587,202.501 340,210.5C 333.608,229.677 327.608,249.011 322,268.5C 319.131,275.746 314.298,281.246 307.5,285C 299.876,287.156 292.21,289.156 284.5,291C 275.175,292.539 267.341,296.706 261,303.5C 256.549,315.739 250.049,326.739 241.5,336.5C 240.5,336.5 239.5,336.5 238.5,336.5C 243.817,329.877 248.65,322.877 253,315.5C 254.827,308.341 258.327,302.174 263.5,297C 272.71,291.361 282.71,287.861 293.5,286.5C 297.083,285.993 300.417,284.993 303.5,283.5C 305.598,282.065 307.931,280.898 310.5,280C 316.349,273.474 320.515,265.974 323,257.5C 327.323,242.526 331.657,227.526 336,212.5C 340.601,201.904 347.434,193.071 356.5,186C 371.954,180.701 387.288,175.034 402.5,169C 420.523,163.146 438.523,163.146 456.5,169C 464.009,173.255 471.676,177.255 479.5,181C 485.084,182.647 490.751,183.813 496.5,184.5 Z"/></g>
<g><path style="opacity:1" fill="#302b1f" d="M 496.5,184.5 C 509.827,185.723 523.16,185.723 536.5,184.5C 529.736,186.035 522.736,186.702 515.5,186.5C 510.5,186.333 505.5,186.167 500.5,186C 498.942,185.79 497.609,185.29 496.5,184.5 Z"/></g>
<g><path style="opacity:1" fill="#2e2a20" d="M 418.5,168.5 C 411.423,171.014 404.09,173.014 396.5,174.5C 403.272,170.801 410.605,168.801 418.5,168.5 Z"/></g>
<g><path style="opacity:1" fill="#312c1f" d="M 303.5,283.5 C 300.417,284.993 297.083,285.993 293.5,286.5C 293.611,285.883 293.944,285.383 294.5,285C 297.478,284.304 300.478,283.804 303.5,283.5 Z"/></g>
<g><path style="opacity:1" fill="#44391c" d="M 534.5,293.5 C 540.491,294.166 546.657,294.5 553,294.5C 564.223,294.562 575.39,293.895 586.5,292.5C 586.5,293.167 586.5,293.833 586.5,294.5C 581.87,295.229 577.203,295.563 572.5,295.5C 560.183,296.285 547.85,296.618 535.5,296.5C 528.375,294.959 521.042,293.959 513.5,293.5C 494.45,288.439 475.117,286.939 455.5,289C 445.548,292.402 442.048,299.235 445,309.5C 448.37,320.277 454.204,329.277 462.5,336.5C 461.167,336.5 459.833,336.5 458.5,336.5C 446.608,325.381 441.441,311.714 443,295.5C 446.866,289.646 452.366,286.479 459.5,286C 475.924,285.342 492.257,286.342 508.5,289C 516.96,291.661 525.627,293.161 534.5,293.5 Z"/></g>
<g><path style="opacity:1" fill="#222221" d="M 513.5,293.5 C 520.658,295.099 527.991,296.432 535.5,297.5C 546.172,297.667 556.839,297.5 567.5,297C 569.382,296.802 571.048,296.302 572.5,295.5C 577.203,295.563 581.87,295.229 586.5,294.5C 586.5,299.833 586.5,305.167 586.5,310.5C 583.933,310.721 581.599,311.388 579.5,312.5C 575.99,312.668 572.49,313.001 569,313.5C 567.014,313.569 565.514,314.235 564.5,315.5C 561.187,316.045 557.854,316.545 554.5,317C 548.046,318.736 542.046,321.236 536.5,324.5C 534.983,324.511 533.816,325.177 533,326.5C 532.037,330.149 532.537,333.482 534.5,336.5C 510.5,336.5 486.5,336.5 462.5,336.5C 454.204,329.277 448.37,320.277 445,309.5C 442.048,299.235 445.548,292.402 455.5,289C 475.117,286.939 494.45,288.439 513.5,293.5 Z"/></g>
<g><path style="opacity:1" fill="#2f2b1f" d="M 416.5,281.5 C 415.283,286.289 413.949,290.955 412.5,295.5C 412.777,291.444 413.444,287.444 414.5,283.5C 414.747,282.287 415.414,281.62 416.5,281.5 Z"/></g>
<g><path style="opacity:1" fill="#2b2820" d="M 586.5,291.5 C 586.5,291.833 586.5,292.167 586.5,292.5C 575.39,293.895 564.223,294.562 553,294.5C 546.657,294.5 540.491,294.166 534.5,293.5C 551.873,293.714 569.206,293.047 586.5,291.5 Z"/></g>
<g><path style="opacity:1" fill="#2d2920" d="M 513.5,293.5 C 521.042,293.959 528.375,294.959 535.5,296.5C 535.5,296.833 535.5,297.167 535.5,297.5C 527.991,296.432 520.658,295.099 513.5,293.5 Z"/></g>
<g><path style="opacity:1" fill="#342e1e" d="M 572.5,295.5 C 571.048,296.302 569.382,296.802 567.5,297C 556.839,297.5 546.172,297.667 535.5,297.5C 535.5,297.167 535.5,296.833 535.5,296.5C 547.85,296.618 560.183,296.285 572.5,295.5 Z"/></g>
<g><path style="opacity:1" fill="#44391c" d="M 22.5,259.5 C 23.404,260.209 23.7373,261.209 23.5,262.5C 18.2438,272.024 13.7438,282.024 10,292.5C 7.22201,298.412 3.72201,303.745 -0.5,308.5C -0.5,307.167 -0.5,305.833 -0.5,304.5C 1.06366,301.726 2.897,299.059 5,296.5C 10.686,284.069 16.5193,271.736 22.5,259.5 Z"/></g>
<g><path style="opacity:1" fill="#2c2820" d="M 335.5,299.5 C 332.374,301.99 328.708,303.323 324.5,303.5C 327.939,301.796 331.605,300.462 335.5,299.5 Z"/></g>
<g><path style="opacity:1" fill="#43381c" d="M 177.5,279.5 C 174.049,289.779 168.382,298.612 160.5,306C 147.122,316.675 133.456,326.842 119.5,336.5C 117.833,336.5 116.167,336.5 114.5,336.5C 127.784,327.847 140.784,318.681 153.5,309C 156.667,305.833 159.833,302.667 163,299.5C 170.412,291.08 175.246,281.413 177.5,270.5C 178.29,269.391 178.79,268.058 179,266.5C 179.578,270.955 179.078,275.288 177.5,279.5 Z"/></g>
<g><path style="opacity:1" fill="#493d1b" d="M 586.5,310.5 C 586.5,312.5 586.5,314.5 586.5,316.5C 577.062,316.57 568.062,318.237 559.5,321.5C 557.585,321.216 555.919,321.549 554.5,322.5C 550.856,323.315 547.189,324.148 543.5,325C 541.416,325.697 539.749,326.864 538.5,328.5C 537.147,330.128 537.481,331.462 539.5,332.5C 540.486,334.408 542.152,335.408 544.5,335.5C 544.5,335.833 544.5,336.167 544.5,336.5C 541.833,336.5 539.167,336.5 536.5,336.5C 532.5,332.5 532.5,328.5 536.5,324.5C 542.046,321.236 548.046,318.736 554.5,317C 557.854,316.545 561.187,316.045 564.5,315.5C 569.694,314.901 574.694,313.901 579.5,312.5C 581.599,311.388 583.933,310.721 586.5,310.5 Z"/></g>
<g><path style="opacity:1" fill="#322d1f" d="M 579.5,312.5 C 574.694,313.901 569.694,314.901 564.5,315.5C 565.514,314.235 567.014,313.569 569,313.5C 572.49,313.001 575.99,312.668 579.5,312.5 Z"/></g>
<g><path style="opacity:1" fill="#2f2a1f" d="M 586.5,316.5 C 586.5,316.833 586.5,317.167 586.5,317.5C 577.527,318.993 568.527,320.326 559.5,321.5C 568.062,318.237 577.062,316.57 586.5,316.5 Z"/></g>
<g><path style="opacity:1" fill="#222221" d="M 586.5,317.5 C 586.5,323.833 586.5,330.167 586.5,336.5C 572.5,336.5 558.5,336.5 544.5,336.5C 544.5,336.167 544.5,335.833 544.5,335.5C 543.341,333.75 541.674,332.75 539.5,332.5C 537.481,331.462 537.147,330.128 538.5,328.5C 544.038,326.793 549.371,324.793 554.5,322.5C 555.919,321.549 557.585,321.216 559.5,321.5C 568.527,320.326 577.527,318.993 586.5,317.5 Z"/></g>
<g><path style="opacity:1" fill="#302b1f" d="M 554.5,322.5 C 549.371,324.793 544.038,326.793 538.5,328.5C 539.749,326.864 541.416,325.697 543.5,325C 547.189,324.148 550.856,323.315 554.5,322.5 Z"/></g>
<g><path style="opacity:1" fill="#292720" d="M 351.5,328.5 C 342.31,329.245 332.977,329.912 323.5,330.5C 323.918,329.778 324.584,329.278 325.5,329C 334.16,328.5 342.827,328.334 351.5,328.5 Z"/></g>
<g><path style="opacity:1" fill="#3d341d" d="M 536.5,324.5 C 532.5,328.5 532.5,332.5 536.5,336.5C 535.833,336.5 535.167,336.5 534.5,336.5C 532.537,333.482 532.037,330.149 533,326.5C 533.816,325.177 534.983,324.511 536.5,324.5 Z"/></g>
<g><path style="opacity:1" fill="#302b1f" d="M 358.5,330.5 C 358.082,331.222 357.416,331.722 356.5,332C 342.691,331.976 329.024,333.143 315.5,335.5C 316.6,334.442 317.934,333.608 319.5,333C 332.489,331.905 345.489,331.072 358.5,330.5 Z"/></g>
<g><path style="opacity:1" fill="#312c1f" d="M 539.5,332.5 C 541.674,332.75 543.341,333.75 544.5,335.5C 542.152,335.408 540.486,334.408 539.5,332.5 Z"/></g>
</svg>
