<?xml version="1.0" encoding="UTF-8"?>
<!DOCTYPE svg PUBLIC "-//W3C//DTD SVG 1.1//EN" "http://www.w3.org/Graphics/SVG/1.1/DTD/svg11.dtd">
<svg xmlns="http://www.w3.org/2000/svg" version="1.1" width="64px" height="64px" style="shape-rendering:geometricPrecision; text-rendering:geometricPrecision; image-rendering:optimizeQuality; fill-rule:evenodd; clip-rule:evenodd" xmlns:xlink="http://www.w3.org/1999/xlink">
<g><path style="opacity:0.981" fill="#82502e" d="M 23.5,-0.5 C 23.8333,-0.5 24.1667,-0.5 24.5,-0.5C 24.7683,2.1194 24.435,4.6194 23.5,7C 24.0442,7.71719 24.7109,8.21719 25.5,8.5C 20.2347,12.5425 17.9013,18.0425 18.5,25C 18.452,28.0436 19.452,30.5436 21.5,32.5C 21.5,33.1667 21.5,33.8333 21.5,34.5C 22.7663,38.5323 22.7663,42.5323 21.5,46.5C 18.2308,47.9811 17.8975,49.9811 20.5,52.5C 27.5472,54.838 31.8805,52.5047 33.5,45.5C 34.1667,45.1667 34.8333,44.8333 35.5,44.5C 34.6758,47.7644 34.3424,51.0977 34.5,54.5C 32.1667,54.5 29.8333,54.5 27.5,54.5C 24.4816,54.6646 21.4816,54.498 18.5,54C 16.9721,51.7597 14.9721,50.093 12.5,49C 11.5632,48.3083 10.8966,48.475 10.5,49.5C 9.16667,50.1667 7.83333,50.8333 6.5,51.5C 3.1299,48.0915 0.796565,44.0915 -0.5,39.5C -0.5,34.1667 -0.5,28.8333 -0.5,23.5C 3.83333,11.8333 11.8333,3.83333 23.5,-0.5 Z"/></g>
<g><path style="opacity:0.982" fill="#764828" d="M 24.5,-0.5 C 29.5,-0.5 34.5,-0.5 39.5,-0.5C 51.1667,3.83333 59.1667,11.8333 63.5,23.5C 63.5,28.8333 63.5,34.1667 63.5,39.5C 62.0213,45.1191 59.0213,49.7857 54.5,53.5C 53.0351,52.2632 51.3684,51.2632 49.5,50.5C 42.7408,49.4509 40.0741,45.7842 41.5,39.5C 42.3092,37.9724 42.9759,36.3057 43.5,34.5C 47.1197,26.8944 46.953,19.2277 43,11.5C 38.3513,7.77729 33.1846,6.44396 27.5,7.5C 26.8333,7.83333 26.1667,8.16667 25.5,8.5C 24.7109,8.21719 24.0442,7.71719 23.5,7C 24.435,4.6194 24.7683,2.1194 24.5,-0.5 Z"/></g>
<g><path style="opacity:1" fill="#dfd9d6" d="M 43.5,34.5 C 42.7355,29.961 41.9021,25.2943 41,20.5C 40.6232,19.0577 39.7899,18.0577 38.5,17.5C 37.9423,16.2101 36.9423,15.3768 35.5,15C 33.1902,14.5034 30.8568,14.3367 28.5,14.5C 28.5198,12.857 27.8532,11.5237 26.5,10.5C 28.435,9.78703 28.7683,8.78703 27.5,7.5C 33.1846,6.44396 38.3513,7.77729 43,11.5C 46.953,19.2277 47.1197,26.8944 43.5,34.5 Z"/></g>
<g><path style="opacity:1" fill="#6e5248" d="M 25.5,16.5 C 25.1849,19.2108 25.8516,21.5441 27.5,23.5C 26.5,23.5 25.5,23.5 24.5,23.5C 24.5,24.5 24.5,25.5 24.5,26.5C 26.4147,26.2155 28.0813,26.5489 29.5,27.5C 27.4513,28.6414 25.4513,28.6414 23.5,27.5C 22.7369,29.2285 22.0703,31.5618 21.5,34.5C 21.5,33.8333 21.5,33.1667 21.5,32.5C 21.3354,29.4816 21.502,26.4816 22,23.5C 22.139,20.5547 23.3057,18.2214 25.5,16.5 Z"/></g>
<g><path style="opacity:1" fill="#f1bea8" d="M 38.5,17.5 C 38.9612,19.5504 39.6279,21.5504 40.5,23.5C 40.0302,24.463 39.3635,24.463 38.5,23.5C 37.1667,23.5 35.8333,23.5 34.5,23.5C 32.7354,22.5386 30.7354,22.2053 28.5,22.5C 28.5,20.1667 28.5,17.8333 28.5,15.5C 32.0318,15.31 35.3652,15.9767 38.5,17.5 Z"/></g>
<g><path style="opacity:1" fill="#c78e76" d="M 28.5,14.5 C 30.8568,14.3367 33.1902,14.5034 35.5,15C 36.9423,15.3768 37.9423,16.2101 38.5,17.5C 35.3652,15.9767 32.0318,15.31 28.5,15.5C 28.5,17.8333 28.5,20.1667 28.5,22.5C 30.7354,22.2053 32.7354,22.5386 34.5,23.5C 33.596,24.209 33.2627,25.209 33.5,26.5C 32.8333,26.1667 32.1667,25.8333 31.5,25.5C 31.5,24.1667 30.8333,23.5 29.5,23.5C 28.8333,23.5 28.1667,23.5 27.5,23.5C 25.8516,21.5441 25.1849,19.2108 25.5,16.5C 26.5,15.8333 27.5,15.1667 28.5,14.5 Z"/></g>
<g><path style="opacity:1" fill="#341f19" d="M 27.5,23.5 C 28.1667,23.5 28.8333,23.5 29.5,23.5C 30.6857,24.9613 30.6857,26.2946 29.5,27.5C 28.0813,26.5489 26.4147,26.2155 24.5,26.5C 24.5,25.5 24.5,24.5 24.5,23.5C 25.5,23.5 26.5,23.5 27.5,23.5 Z"/></g>
<g><path style="opacity:1" fill="#b1a9a6" d="M 27.5,7.5 C 28.7683,8.78703 28.435,9.78703 26.5,10.5C 27.8532,11.5237 28.5198,12.857 28.5,14.5C 27.5,15.1667 26.5,15.8333 25.5,16.5C 23.3057,18.2214 22.139,20.5547 22,23.5C 21.502,26.4816 21.3354,29.4816 21.5,32.5C 19.452,30.5436 18.452,28.0436 18.5,25C 17.9013,18.0425 20.2347,12.5425 25.5,8.5C 26.1667,8.16667 26.8333,7.83333 27.5,7.5 Z"/></g>
<g><path style="opacity:1" fill="#784d3f" d="M 34.5,23.5 C 35.8333,23.5 37.1667,23.5 38.5,23.5C 38.5,24.5 38.5,25.5 38.5,26.5C 36.8006,29.151 35.134,29.151 33.5,26.5C 33.2627,25.209 33.596,24.209 34.5,23.5 Z"/></g>
<g><path style="opacity:1" fill="#ecbba9" d="M 31.5,25.5 C 32.1667,25.8333 32.8333,26.1667 33.5,26.5C 35.134,29.151 36.8006,29.151 38.5,26.5C 39.5,26.5 40.5,26.5 41.5,26.5C 41.8128,30.0419 41.4794,33.3752 40.5,36.5C 40.7148,34.8212 40.0481,33.8212 38.5,33.5C 36.0994,30.666 34.9327,31.3327 35,35.5C 34.2904,34.0267 33.1238,33.3601 31.5,33.5C 31.5,30.8333 31.5,28.1667 31.5,25.5 Z"/></g>
<g><path style="opacity:1" fill="#a06d59" d="M 29.5,23.5 C 30.8333,23.5 31.5,24.1667 31.5,25.5C 31.5,28.1667 31.5,30.8333 31.5,33.5C 33.1238,33.3601 34.2904,34.0267 35,35.5C 34.9327,31.3327 36.0994,30.666 38.5,33.5C 38.5,34.5 38.5,35.5 38.5,36.5C 36.5,36.8333 34.5,37.1667 32.5,37.5C 32.4142,36.5041 32.7476,35.6708 33.5,35C 32.9056,34.5357 32.2389,34.369 31.5,34.5C 30.2058,33.7101 29.0391,32.7101 28,31.5C 26.2942,32.3079 25.4609,33.6412 25.5,35.5C 24.469,33.0392 23.8023,30.3725 23.5,27.5C 25.4513,28.6414 27.4513,28.6414 29.5,27.5C 30.6857,26.2946 30.6857,24.9613 29.5,23.5 Z"/></g>
<g><path style="opacity:1" fill="#38211a" d="M 31.5,34.5 C 29.8856,37.8251 27.8856,38.1585 25.5,35.5C 25.4609,33.6412 26.2942,32.3079 28,31.5C 29.0391,32.7101 30.2058,33.7101 31.5,34.5 Z"/></g>
<g><path style="opacity:1" fill="#94786a" d="M 38.5,17.5 C 39.7899,18.0577 40.6232,19.0577 41,20.5C 41.9021,25.2943 42.7355,29.961 43.5,34.5C 42.9759,36.3057 42.3092,37.9724 41.5,39.5C 41.5,38.8333 41.1667,38.5 40.5,38.5C 40.5,37.8333 40.5,37.1667 40.5,36.5C 41.4794,33.3752 41.8128,30.0419 41.5,26.5C 40.5,26.5 39.5,26.5 38.5,26.5C 38.5,25.5 38.5,24.5 38.5,23.5C 39.3635,24.463 40.0302,24.463 40.5,23.5C 39.6279,21.5504 38.9612,19.5504 38.5,17.5 Z"/></g>
<g><path style="opacity:1" fill="#c99884" d="M 38.5,33.5 C 40.0481,33.8212 40.7148,34.8212 40.5,36.5C 40.5,37.1667 40.5,37.8333 40.5,38.5C 38.0517,40.2845 35.385,41.6178 32.5,42.5C 31.9035,40.602 31.9035,38.9354 32.5,37.5C 34.5,37.1667 36.5,36.8333 38.5,36.5C 38.5,35.5 38.5,34.5 38.5,33.5 Z"/></g>
<g><path style="opacity:1" fill="#412f29" d="M 40.5,38.5 C 40.1667,39.1667 39.8333,39.8333 39.5,40.5C 38.5275,42.1392 37.1942,43.4726 35.5,44.5C 34.8333,44.8333 34.1667,45.1667 33.5,45.5C 28.7784,45.9248 26.2784,43.9248 26,39.5C 27.5088,41.9193 29.6755,42.9193 32.5,42.5C 35.385,41.6178 38.0517,40.2845 40.5,38.5 Z"/></g>
<g><path style="opacity:1" fill="#a68b81" d="M 23.5,27.5 C 23.8023,30.3725 24.469,33.0392 25.5,35.5C 24.8694,39.8038 24.3694,44.1371 24,48.5C 22.187,49.6091 21.3537,48.9424 21.5,46.5C 22.7663,42.5323 22.7663,38.5323 21.5,34.5C 22.0703,31.5618 22.7369,29.2285 23.5,27.5 Z"/></g>
<g><path style="opacity:1" fill="#c58a69" d="M 39.5,40.5 C 39.5,44.8333 39.5,49.1667 39.5,53.5C 37.0672,53.2729 35.4006,54.2729 34.5,56.5C 34.762,57.9778 34.4287,59.3112 33.5,60.5C 32.0499,59.1502 31.3832,57.4835 31.5,55.5C 29.6916,55.4914 28.0249,55.9914 26.5,57C 26.12,59.3258 25.12,61.1591 23.5,62.5C 21.2143,62.405 19.2143,61.7384 17.5,60.5C 17.1667,59.8333 16.8333,59.1667 16.5,58.5C 18.604,58.7989 20.604,58.4656 22.5,57.5C 22.2907,56.914 21.9574,56.414 21.5,56C 23.7078,55.8091 25.7078,55.3091 27.5,54.5C 29.8333,54.5 32.1667,54.5 34.5,54.5C 34.3424,51.0977 34.6758,47.7644 35.5,44.5C 37.1942,43.4726 38.5275,42.1392 39.5,40.5 Z"/></g>
<g><path style="opacity:0.92" fill="#eee6e5" d="M 49.5,50.5 C 51.3684,51.2632 53.0351,52.2632 54.5,53.5C 50.5456,58.4634 45.5456,61.7967 39.5,63.5C 37.8333,63.5 36.1667,63.5 34.5,63.5C 34.5,62.8333 34.8333,62.5 35.5,62.5C 40.641,60.5371 45.141,57.5371 49,53.5C 49.4828,52.552 49.6495,51.552 49.5,50.5 Z"/></g>
<g><path style="opacity:1" fill="#603f2f" d="M 31.5,34.5 C 32.2389,34.369 32.9056,34.5357 33.5,35C 32.7476,35.6708 32.4142,36.5041 32.5,37.5C 31.9035,38.9354 31.9035,40.602 32.5,42.5C 29.6755,42.9193 27.5088,41.9193 26,39.5C 26.2784,43.9248 28.7784,45.9248 33.5,45.5C 31.8805,52.5047 27.5472,54.838 20.5,52.5C 17.8975,49.9811 18.2308,47.9811 21.5,46.5C 21.3537,48.9424 22.187,49.6091 24,48.5C 24.3694,44.1371 24.8694,39.8038 25.5,35.5C 27.8856,38.1585 29.8856,37.8251 31.5,34.5 Z"/></g>
<g><path style="opacity:1" fill="#efc1a8" d="M 40.5,38.5 C 41.1667,38.5 41.5,38.8333 41.5,39.5C 40.0741,45.7842 42.7408,49.4509 49.5,50.5C 49.6495,51.552 49.4828,52.552 49,53.5C 45.141,57.5371 40.641,60.5371 35.5,62.5C 35.7947,60.2646 35.4614,58.2646 34.5,56.5C 35.4006,54.2729 37.0672,53.2729 39.5,53.5C 39.5,49.1667 39.5,44.8333 39.5,40.5C 39.8333,39.8333 40.1667,39.1667 40.5,38.5 Z"/></g>
<g><path style="opacity:1" fill="#9d6b51" d="M 10.5,49.5 C 10.8966,48.475 11.5632,48.3083 12.5,49C 14.9721,50.093 16.9721,51.7597 18.5,54C 21.4816,54.498 24.4816,54.6646 27.5,54.5C 25.7078,55.3091 23.7078,55.8091 21.5,56C 21.9574,56.414 22.2907,56.914 22.5,57.5C 20.604,58.4656 18.604,58.7989 16.5,58.5C 12.6097,56.3045 10.6097,53.3045 10.5,49.5 Z"/></g>
<g><path style="opacity:0.72" fill="#cec1be" d="M 10.5,49.5 C 10.6097,53.3045 12.6097,56.3045 16.5,58.5C 16.8333,59.1667 17.1667,59.8333 17.5,60.5C 12.9568,58.6283 9.29011,55.6283 6.5,51.5C 7.83333,50.8333 9.16667,50.1667 10.5,49.5 Z"/></g>
<g><path style="opacity:1" fill="#e1ac90" d="M 34.5,56.5 C 35.4614,58.2646 35.7947,60.2646 35.5,62.5C 34.8333,62.5 34.5,62.8333 34.5,63.5C 30.8333,63.5 27.1667,63.5 23.5,63.5C 23.5,63.1667 23.5,62.8333 23.5,62.5C 25.12,61.1591 26.12,59.3258 26.5,57C 28.0249,55.9914 29.6916,55.4914 31.5,55.5C 31.3832,57.4835 32.0499,59.1502 33.5,60.5C 34.4287,59.3112 34.762,57.9778 34.5,56.5 Z"/></g>
</svg>
