<?xml version="1.0" encoding="UTF-8"?>
<!DOCTYPE svg PUBLIC "-//W3C//DTD SVG 1.1//EN" "http://www.w3.org/Graphics/SVG/1.1/DTD/svg11.dtd">
<svg xmlns="http://www.w3.org/2000/svg" version="1.1" width="64px" height="64px" style="shape-rendering:geometricPrecision; text-rendering:geometricPrecision; image-rendering:optimizeQuality; fill-rule:evenodd; clip-rule:evenodd" xmlns:xlink="http://www.w3.org/1999/xlink">
<g><path style="opacity:0.97" fill="#fdc4bd" d="M 23.5,-0.5 C 28.8333,-0.5 34.1667,-0.5 39.5,-0.5C 51.1667,3.83333 59.1667,11.8333 63.5,23.5C 63.5,28.8333 63.5,34.1667 63.5,39.5C 62.254,43.5655 60.254,47.2322 57.5,50.5C 55.8243,48.1663 53.491,47.1663 50.5,47.5C 49.2223,47.2178 48.2223,46.5511 47.5,45.5C 45.4264,41.3833 44.0931,37.0499 43.5,32.5C 42.9645,28.181 42.4645,23.8477 42,19.5C 41.5762,16.9746 40.4095,14.9746 38.5,13.5C 35.9922,11.0764 32.9922,9.40975 29.5,8.5C 27.2646,8.20528 25.2646,8.53862 23.5,9.5C 21.2901,9.89395 19.9568,11.2273 19.5,13.5C 15.9247,18.5564 13.9247,24.2231 13.5,30.5C 13.5,31.1667 13.5,31.8333 13.5,32.5C 12.596,33.209 12.2627,34.209 12.5,35.5C 10.6603,41.2511 9.32701,47.2511 8.5,53.5C 3.97866,49.7857 0.978656,45.1191 -0.5,39.5C -0.5,34.1667 -0.5,28.8333 -0.5,23.5C 3.83333,11.8333 11.8333,3.83333 23.5,-0.5 Z"/></g>
<g><path style="opacity:1" fill="#3f271b" d="M 29.5,8.5 C 32.9922,9.40975 35.9922,11.0764 38.5,13.5C 38.6503,16.926 37.4837,17.2594 35,14.5C 34.3292,15.2524 33.4959,15.5858 32.5,15.5C 31.5084,15.6716 30.8417,15.3382 30.5,14.5C 30.4828,12.4352 30.1495,10.4352 29.5,8.5 Z"/></g>
<g><path style="opacity:1" fill="#462b1b" d="M 23.5,9.5 C 25.4456,10.0347 26.4456,11.368 26.5,13.5C 23.4884,14.255 20.8217,15.5884 18.5,17.5C 19.2341,16.2921 19.5674,14.9587 19.5,13.5C 19.9568,11.2273 21.2901,9.89395 23.5,9.5 Z"/></g>
<g><path style="opacity:1" fill="#654a3d" d="M 23.5,9.5 C 25.2646,8.53862 27.2646,8.20528 29.5,8.5C 30.1495,10.4352 30.4828,12.4352 30.5,14.5C 30.1667,14.5 29.8333,14.5 29.5,14.5C 28.391,14.5569 27.391,14.8902 26.5,15.5C 26.5,14.8333 26.5,14.1667 26.5,13.5C 26.4456,11.368 25.4456,10.0347 23.5,9.5 Z"/></g>
<g><path style="opacity:1" fill="#c28763" d="M 29.5,14.5 C 26.6296,16.648 25.963,19.3147 27.5,22.5C 26.1667,22.5 24.8333,22.5 23.5,22.5C 23.5,22.1667 23.5,21.8333 23.5,21.5C 24.5,19.5 25.5,17.5 26.5,15.5C 27.391,14.8902 28.391,14.5569 29.5,14.5 Z"/></g>
<g><path style="opacity:1" fill="#edc3ad" d="M 29.5,14.5 C 29.8333,14.5 30.1667,14.5 30.5,14.5C 30.8417,15.3382 31.5084,15.6716 32.5,15.5C 34.5554,16.5588 35.8888,18.2254 36.5,20.5C 36.2504,21.9221 35.417,22.9221 34,23.5C 33.5065,25.1341 33.3398,26.8008 33.5,28.5C 35.2915,28.366 36.9582,28.6993 38.5,29.5C 38.5,29.8333 38.5,30.1667 38.5,30.5C 38.5,31.1667 38.5,31.8333 38.5,32.5C 37.1779,32.67 36.0113,32.3366 35,31.5C 34.5172,32.448 34.3505,33.448 34.5,34.5C 33.1266,34.6567 31.7932,34.49 30.5,34C 31.5981,33.2303 31.5981,32.397 30.5,31.5C 30.8016,28.9407 30.4682,26.6074 29.5,24.5C 29.1667,23.5 28.5,22.8333 27.5,22.5C 25.963,19.3147 26.6296,16.648 29.5,14.5 Z"/></g>
<g><path style="opacity:1" fill="#8f5d45" d="M 23.5,22.5 C 24.8333,22.5 26.1667,22.5 27.5,22.5C 28.5,22.8333 29.1667,23.5 29.5,24.5C 29.5983,27.2476 28.5983,27.9143 26.5,26.5C 24.7706,25.7638 23.7706,24.4305 23.5,22.5 Z"/></g>
<g><path style="opacity:1" fill="#1a0d06" d="M 26.5,13.5 C 26.5,14.1667 26.5,14.8333 26.5,15.5C 25.5,17.5 24.5,19.5 23.5,21.5C 21.7868,22.6354 21.1201,24.302 21.5,26.5C 21.5,30.5 21.5,34.5 21.5,38.5C 20.4667,41.986 19.6334,45.6526 19,49.5C 18.3005,40.5075 17.8005,31.5075 17.5,22.5C 17.366,20.7085 17.6993,19.0418 18.5,17.5C 20.8217,15.5884 23.4884,14.255 26.5,13.5 Z"/></g>
<g><path style="opacity:1" fill="#4f2f20" d="M 23.5,21.5 C 23.5,21.8333 23.5,22.1667 23.5,22.5C 23.7706,24.4305 24.7706,25.7638 26.5,26.5C 25.2946,27.6857 23.9613,27.6857 22.5,26.5C 22.1667,26.5 21.8333,26.5 21.5,26.5C 21.1201,24.302 21.7868,22.6354 23.5,21.5 Z"/></g>
<g><path style="opacity:1" fill="#c08c74" d="M 36.5,20.5 C 36.8333,20.5 37.1667,20.5 37.5,20.5C 37.5,22.1667 37.5,23.8333 37.5,25.5C 36.325,25.281 35.325,25.6143 34.5,26.5C 36.3316,27.0568 37.6649,28.0568 38.5,29.5C 36.9582,28.6993 35.2915,28.366 33.5,28.5C 33.3398,26.8008 33.5065,25.1341 34,23.5C 35.417,22.9221 36.2504,21.9221 36.5,20.5 Z"/></g>
<g><path style="opacity:1" fill="#48271a" d="M 37.5,20.5 C 40.2436,23.5911 41.0769,27.2577 40,31.5C 39.6174,30.944 39.1174,30.6107 38.5,30.5C 38.5,30.1667 38.5,29.8333 38.5,29.5C 37.6649,28.0568 36.3316,27.0568 34.5,26.5C 35.325,25.6143 36.325,25.281 37.5,25.5C 37.5,23.8333 37.5,22.1667 37.5,20.5 Z"/></g>
<g><path style="opacity:1" fill="#dba082" d="M 29.5,24.5 C 30.4682,26.6074 30.8016,28.9407 30.5,31.5C 27.7444,32.2541 25.0777,32.2541 22.5,31.5C 22.5,29.8333 22.5,28.1667 22.5,26.5C 23.9613,27.6857 25.2946,27.6857 26.5,26.5C 28.5983,27.9143 29.5983,27.2476 29.5,24.5 Z"/></g>
<g><path style="opacity:1" fill="#885c40" d="M 19.5,13.5 C 19.5674,14.9587 19.2341,16.2921 18.5,17.5C 17.6993,19.0418 17.366,20.7085 17.5,22.5C 16.6745,26.9819 16.1745,31.6486 16,36.5C 15.4338,34.2774 14.6005,32.2774 13.5,30.5C 13.9247,24.2231 15.9247,18.5564 19.5,13.5 Z"/></g>
<g><path style="opacity:1" fill="#7f5031" d="M 13.5,32.5 C 14.1299,41.5059 14.7966,50.5059 15.5,59.5C 14.2905,59.0679 13.2905,58.4013 12.5,57.5C 13.6018,53.2529 13.7684,48.9196 13,44.5C 12.6401,46.6079 11.9734,48.6079 11,50.5C 10.8333,49.8333 10.6667,49.1667 10.5,48.5C 12.0658,44.3073 12.7325,39.974 12.5,35.5C 12.2627,34.209 12.596,33.209 13.5,32.5 Z"/></g>
<g><path style="opacity:1" fill="#bf7b5b" d="M 22.5,31.5 C 25.0777,32.2541 27.7444,32.2541 30.5,31.5C 31.5981,32.397 31.5981,33.2303 30.5,34C 31.7932,34.49 33.1266,34.6567 34.5,34.5C 34.3505,33.448 34.5172,32.448 35,31.5C 36.0113,32.3366 37.1779,32.67 38.5,32.5C 38.2451,34.9674 37.2451,36.9674 35.5,38.5C 34.0272,35.7526 31.6939,34.9193 28.5,36C 29.1667,36.6667 29.8333,37.3333 30.5,38C 28.5743,38.4224 27.5743,39.5891 27.5,41.5C 26.8333,41.1667 26.1667,40.8333 25.5,40.5C 24.3448,37.5431 23.3448,34.5431 22.5,31.5 Z"/></g>
<g><path style="opacity:1" fill="#ebbda6" d="M 35.5,38.5 C 35.5,39.5 35.5,40.5 35.5,41.5C 34.8333,41.8333 34.1667,42.1667 33.5,42.5C 31.2646,42.7947 29.2646,42.4614 27.5,41.5C 27.5743,39.5891 28.5743,38.4224 30.5,38C 29.8333,37.3333 29.1667,36.6667 28.5,36C 31.6939,34.9193 34.0272,35.7526 35.5,38.5 Z"/></g>
<g><path style="opacity:1" fill="#351d11" d="M 43.5,32.5 C 44.0931,37.0499 45.4264,41.3833 47.5,45.5C 45.1667,46.8333 42.8333,48.1667 40.5,49.5C 39.5178,50.1408 38.5178,50.8075 37.5,51.5C 34.4362,49.3213 33.1029,46.3213 33.5,42.5C 34.1667,42.1667 34.8333,41.8333 35.5,41.5C 36.5,41.5 37.5,41.5 38.5,41.5C 38.3433,42.8734 38.51,44.2068 39,45.5C 40.1304,40.2202 41.1304,34.8868 42,29.5C 42.2321,30.7375 42.7321,31.7375 43.5,32.5 Z"/></g>
<g><path style="opacity:1" fill="#6f3b10" d="M 21.5,26.5 C 21.8333,26.5 22.1667,26.5 22.5,26.5C 22.5,28.1667 22.5,29.8333 22.5,31.5C 23.3448,34.5431 24.3448,37.5431 25.5,40.5C 26.8333,43.8333 26.8333,47.1667 25.5,50.5C 25.8244,53.694 24.6578,54.694 22,53.5C 21.51,54.7932 21.3433,56.1266 21.5,57.5C 21.5,59.1667 21.5,60.8333 21.5,62.5C 20.8333,62.1667 20.1667,61.8333 19.5,61.5C 19.3359,58.8127 19.5026,56.146 20,53.5C 21.049,51.8934 22.549,51.2267 24.5,51.5C 24.5,50.5 24.5,49.5 24.5,48.5C 24.6633,46.1432 24.4966,43.8098 24,41.5C 23.6174,40.944 23.1174,40.6107 22.5,40.5C 22.1667,39.8333 21.8333,39.1667 21.5,38.5C 21.5,34.5 21.5,30.5 21.5,26.5 Z"/></g>
<g><path style="opacity:1" fill="#614233" d="M 38.5,13.5 C 40.4095,14.9746 41.5762,16.9746 42,19.5C 42.4645,23.8477 42.9645,28.181 43.5,32.5C 42.7321,31.7375 42.2321,30.7375 42,29.5C 41.1304,34.8868 40.1304,40.2202 39,45.5C 38.51,44.2068 38.3433,42.8734 38.5,41.5C 37.5,41.5 36.5,41.5 35.5,41.5C 35.5,40.5 35.5,39.5 35.5,38.5C 37.2451,36.9674 38.2451,34.9674 38.5,32.5C 38.5,31.8333 38.5,31.1667 38.5,30.5C 39.1174,30.6107 39.6174,30.944 40,31.5C 41.0769,27.2577 40.2436,23.5911 37.5,20.5C 37.1667,20.5 36.8333,20.5 36.5,20.5C 35.8888,18.2254 34.5554,16.5588 32.5,15.5C 33.4959,15.5858 34.3292,15.2524 35,14.5C 37.4837,17.2594 38.6503,16.926 38.5,13.5 Z"/></g>
<g><path style="opacity:1" fill="#2b0b01" d="M 22.5,40.5 C 23.1174,40.6107 23.6174,40.944 24,41.5C 24.4966,43.8098 24.6633,46.1432 24.5,48.5C 22.631,46.3647 21.9644,43.6981 22.5,40.5 Z"/></g>
<g><path style="opacity:1" fill="#553118" d="M 17.5,22.5 C 17.8005,31.5075 18.3005,40.5075 19,49.5C 19.6334,45.6526 20.4667,41.986 21.5,38.5C 21.8333,39.1667 22.1667,39.8333 22.5,40.5C 21.9644,43.6981 22.631,46.3647 24.5,48.5C 24.5,49.5 24.5,50.5 24.5,51.5C 22.549,51.2267 21.049,51.8934 20,53.5C 19.5026,56.146 19.3359,58.8127 19.5,61.5C 17.847,61.3404 16.5137,60.6737 15.5,59.5C 14.7966,50.5059 14.1299,41.5059 13.5,32.5C 13.5,31.8333 13.5,31.1667 13.5,30.5C 14.6005,32.2774 15.4338,34.2774 16,36.5C 16.1745,31.6486 16.6745,26.9819 17.5,22.5 Z"/></g>
<g><path style="opacity:1" fill="#5c3518" d="M 47.5,45.5 C 48.2223,46.5511 49.2223,47.2178 50.5,47.5C 50.1667,48.1667 49.8333,48.8333 49.5,49.5C 47.5956,49.7376 46.2623,50.7376 45.5,52.5C 44.7181,51.0621 43.0514,50.0621 40.5,49.5C 42.8333,48.1667 45.1667,46.8333 47.5,45.5 Z"/></g>
<g><path style="opacity:1" fill="#cf9c8c" d="M 12.5,35.5 C 12.7325,39.974 12.0658,44.3073 10.5,48.5C 10.6667,49.1667 10.8333,49.8333 11,50.5C 11.9734,48.6079 12.6401,46.6079 13,44.5C 13.7684,48.9196 13.6018,53.2529 12.5,57.5C 10.8333,56.5 9.5,55.1667 8.5,53.5C 9.32701,47.2511 10.6603,41.2511 12.5,35.5 Z"/></g>
<g><path style="opacity:1" fill="#9f602f" d="M 35.5,52.5 C 34.8333,53.5 34.1667,54.5 33.5,55.5C 29.7712,58.0834 25.7712,58.75 21.5,57.5C 21.3433,56.1266 21.51,54.7932 22,53.5C 24.6578,54.694 25.8244,53.694 25.5,50.5C 26.9432,49.6649 27.9432,48.3316 28.5,46.5C 29.3857,47.325 29.719,48.325 29.5,49.5C 32.216,49.3862 34.216,50.3862 35.5,52.5 Z"/></g>
<g><path style="opacity:1" fill="#7f4607" d="M 25.5,40.5 C 26.1667,40.8333 26.8333,41.1667 27.5,41.5C 29.2646,42.4614 31.2646,42.7947 33.5,42.5C 33.1029,46.3213 34.4362,49.3213 37.5,51.5C 38.5178,50.8075 39.5178,50.1408 40.5,49.5C 43.0514,50.0621 44.7181,51.0621 45.5,52.5C 46.1667,52.5 46.5,52.8333 46.5,53.5C 46.1667,54.1667 45.8333,54.8333 45.5,55.5C 42.1563,54.4925 38.8229,53.4925 35.5,52.5C 34.216,50.3862 32.216,49.3862 29.5,49.5C 29.719,48.325 29.3857,47.325 28.5,46.5C 27.9432,48.3316 26.9432,49.6649 25.5,50.5C 26.8333,47.1667 26.8333,43.8333 25.5,40.5 Z"/></g>
<g><path style="opacity:1" fill="#ae6f02" d="M 49.5,49.5 C 51.2922,50.3091 53.2922,50.8091 55.5,51C 52.4535,51.7388 49.4535,52.5721 46.5,53.5C 46.5,52.8333 46.1667,52.5 45.5,52.5C 46.2623,50.7376 47.5956,49.7376 49.5,49.5 Z"/></g>
<g><path style="opacity:0.876" fill="#dea10b" d="M 50.5,47.5 C 53.491,47.1663 55.8243,48.1663 57.5,50.5C 54.3813,54.9573 50.3813,58.2906 45.5,60.5C 45.5,58.8333 45.5,57.1667 45.5,55.5C 45.8333,54.8333 46.1667,54.1667 46.5,53.5C 49.4535,52.5721 52.4535,51.7388 55.5,51C 53.2922,50.8091 51.2922,50.3091 49.5,49.5C 49.8333,48.8333 50.1667,48.1667 50.5,47.5 Z"/></g>
<g><path style="opacity:1" fill="#a96b01" d="M 35.5,52.5 C 38.8229,53.4925 42.1563,54.4925 45.5,55.5C 45.5,57.1667 45.5,58.8333 45.5,60.5C 45.5,61.1667 45.1667,61.5 44.5,61.5C 44.7852,59.712 44.4519,58.0453 43.5,56.5C 40.1537,56.1761 36.8204,55.8428 33.5,55.5C 34.1667,54.5 34.8333,53.5 35.5,52.5 Z"/></g>
<g><path style="opacity:1" fill="#dd9e05" d="M 33.5,55.5 C 36.8204,55.8428 40.1537,56.1761 43.5,56.5C 44.4519,58.0453 44.7852,59.712 44.5,61.5C 42.597,61.7959 40.9303,62.4625 39.5,63.5C 34.1667,63.5 28.8333,63.5 23.5,63.5C 23.1583,62.6618 22.4916,62.3284 21.5,62.5C 21.5,60.8333 21.5,59.1667 21.5,57.5C 25.7712,58.75 29.7712,58.0834 33.5,55.5 Z"/></g>
</svg>
