<?xml version="1.0" encoding="UTF-8"?>
<!DOCTYPE svg PUBLIC "-//W3C//DTD SVG 1.1//EN" "http://www.w3.org/Graphics/SVG/1.1/DTD/svg11.dtd">
<svg xmlns="http://www.w3.org/2000/svg" version="1.1" width="64px" height="64px" style="shape-rendering:geometricPrecision; text-rendering:geometricPrecision; image-rendering:optimizeQuality; fill-rule:evenodd; clip-rule:evenodd" xmlns:xlink="http://www.w3.org/1999/xlink">
<g><path style="opacity:0.992" fill="#171616" d="M 23.5,-0.5 C 28.8333,-0.5 34.1667,-0.5 39.5,-0.5C 51.1667,3.83333 59.1667,11.8333 63.5,23.5C 63.5,28.8333 63.5,34.1667 63.5,39.5C 62.2034,44.0915 59.8701,48.0915 56.5,51.5C 51.2393,50.5275 46.5726,48.5275 42.5,45.5C 42.2503,43.326 41.2503,41.6594 39.5,40.5C 39.5,39.8333 39.5,39.1667 39.5,38.5C 39.5,37.1667 39.5,35.8333 39.5,34.5C 39.5,33.8333 39.5,33.1667 39.5,32.5C 41.3783,31.126 42.3783,29.126 42.5,26.5C 41.1672,23.3727 39.8338,20.3727 38.5,17.5C 38.0679,16.2905 37.4013,15.2905 36.5,14.5C 35.5514,13.8476 34.3847,13.5143 33,13.5C 29.4839,14.6625 25.9839,15.6625 22.5,16.5C 21.4293,20.4072 20.096,24.2406 18.5,28C 18.8306,30.8776 20.164,33.0442 22.5,34.5C 22.5,35.5 22.5,36.5 22.5,37.5C 22.5,39.1667 22.5,40.8333 22.5,42.5C 21.0857,44.918 19.0857,46.5847 16.5,47.5C 15.1779,47.33 14.0113,47.6634 13,48.5C 13.1953,50.1261 13.1953,51.7928 13,53.5C 10.8807,52.3878 8.38066,51.3878 5.5,50.5C 4.66175,50.1583 4.32842,49.4916 4.5,48.5C 4.00751,46.1815 3.00751,44.1815 1.5,42.5C 0.596028,41.791 0.262695,40.791 0.5,39.5C 0.151831,32.0455 0.818498,24.7121 2.5,17.5C 3.90632,17.0269 4.57298,16.0269 4.5,14.5C 6.26242,13.7377 7.26242,12.4044 7.5,10.5C 11.7767,5.21136 17.1101,1.5447 23.5,-0.5 Z"/></g>
<g><path style="opacity:0.937" fill="#6e6e6e" d="M 7.5,10.5 C 7.26242,12.4044 6.26242,13.7377 4.5,14.5C 4.73758,12.5956 5.73758,11.2623 7.5,10.5 Z"/></g>
<g><path style="opacity:1" fill="#402a1d" d="M 36.5,14.5 C 33.1667,15.1667 29.8333,15.8333 26.5,16.5C 25.1667,16.5 23.8333,16.5 22.5,16.5C 25.9839,15.6625 29.4839,14.6625 33,13.5C 34.3847,13.5143 35.5514,13.8476 36.5,14.5 Z"/></g>
<g><path style="opacity:0.561" fill="#9a9a9a" d="M 4.5,14.5 C 4.57298,16.0269 3.90632,17.0269 2.5,17.5C 2.42702,15.9731 3.09368,14.9731 4.5,14.5 Z"/></g>
<g><path style="opacity:1" fill="#ca9578" d="M 36.5,14.5 C 37.4013,15.2905 38.0679,16.2905 38.5,17.5C 38.5,18.1667 38.5,18.8333 38.5,19.5C 37.596,20.209 37.2627,21.209 37.5,22.5C 36.5,22.5 35.5,22.5 34.5,22.5C 34.5,20.5 34.5,18.5 34.5,16.5C 33.1667,16.5 31.8333,16.5 30.5,16.5C 29.9898,19.3878 30.6565,21.7211 32.5,23.5C 32.5,24.5 32.5,25.5 32.5,26.5C 34.4147,26.7845 36.0813,26.4511 37.5,25.5C 38.0431,25.56 38.3764,25.8933 38.5,26.5C 37.1667,27.5 35.8333,28.5 34.5,29.5C 35.3398,30.735 36.3398,31.735 37.5,32.5C 35.1667,32.5 32.8333,32.5 30.5,32.5C 30.7947,30.2646 30.4614,28.2646 29.5,26.5C 29.5,25.1667 28.8333,24.5 27.5,24.5C 27.0825,23.7784 26.4158,23.2784 25.5,23C 26.4231,20.9592 26.7564,18.7925 26.5,16.5C 29.8333,15.8333 33.1667,15.1667 36.5,14.5 Z"/></g>
<g><path style="opacity:1" fill="#714e3b" d="M 32.5,23.5 C 34.7812,23.0773 36.4479,23.744 37.5,25.5C 36.0813,26.4511 34.4147,26.7845 32.5,26.5C 32.5,25.5 32.5,24.5 32.5,23.5 Z"/></g>
<g><path style="opacity:1" fill="#603f2c" d="M 23.5,24.5 C 24.8333,24.5 26.1667,24.5 27.5,24.5C 28.8333,24.5 29.5,25.1667 29.5,26.5C 27.7206,26.3744 25.7206,26.7078 23.5,27.5C 23.5,26.5 23.5,25.5 23.5,24.5 Z"/></g>
<g><path style="opacity:1" fill="#a68271" d="M 22.5,16.5 C 23.8333,16.5 25.1667,16.5 26.5,16.5C 26.7564,18.7925 26.4231,20.9592 25.5,23C 26.4158,23.2784 27.0825,23.7784 27.5,24.5C 26.1667,24.5 24.8333,24.5 23.5,24.5C 23.2172,23.7109 22.7172,23.0442 22,22.5C 21.3064,26.554 21.4731,30.554 22.5,34.5C 20.164,33.0442 18.8306,30.8776 18.5,28C 20.096,24.2406 21.4293,20.4072 22.5,16.5 Z"/></g>
<g><path style="opacity:1" fill="#a27c6c" d="M 38.5,17.5 C 39.8338,20.3727 41.1672,23.3727 42.5,26.5C 42.3783,29.126 41.3783,31.126 39.5,32.5C 39.6282,28.1186 39.2949,23.7853 38.5,19.5C 38.5,18.8333 38.5,18.1667 38.5,17.5 Z"/></g>
<g><path style="opacity:1" fill="#868686" d="M 2.5,17.5 C 0.818498,24.7121 0.151831,32.0455 0.5,39.5C 0.166667,39.5 -0.166667,39.5 -0.5,39.5C -0.5,34.1667 -0.5,28.8333 -0.5,23.5C 0.5,21.5 1.5,19.5 2.5,17.5 Z"/></g>
<g><path style="opacity:1" fill="#d9b09b" d="M 38.5,19.5 C 39.2949,23.7853 39.6282,28.1186 39.5,32.5C 38.8333,32.5 38.1667,32.5 37.5,32.5C 36.3398,31.735 35.3398,30.735 34.5,29.5C 35.8333,28.5 37.1667,27.5 38.5,26.5C 38.3764,25.8933 38.0431,25.56 37.5,25.5C 36.4479,23.744 34.7812,23.0773 32.5,23.5C 30.6565,21.7211 29.9898,19.3878 30.5,16.5C 31.8333,16.5 33.1667,16.5 34.5,16.5C 34.5,18.5 34.5,20.5 34.5,22.5C 35.5,22.5 36.5,22.5 37.5,22.5C 37.2627,21.209 37.596,20.209 38.5,19.5 Z"/></g>
<g><path style="opacity:1" fill="#d0b9b0" d="M 23.5,24.5 C 22.9552,27.8453 22.6218,31.1786 22.5,34.5C 21.4731,30.554 21.3064,26.554 22,22.5C 22.7172,23.0442 23.2172,23.7109 23.5,24.5 Z"/></g>
<g><path style="opacity:1" fill="#b17f6a" d="M 23.5,24.5 C 23.5,25.5 23.5,26.5 23.5,27.5C 25.7206,26.7078 27.7206,26.3744 29.5,26.5C 30.4614,28.2646 30.7947,30.2646 30.5,32.5C 23.0013,33.3361 22.668,35.0028 29.5,37.5C 34.7866,36.039 34.4533,35.3723 28.5,35.5C 30.0789,34.1487 32.4122,34.1487 35.5,35.5C 36.9185,34.9953 37.5852,33.9953 37.5,32.5C 38.1667,32.5 38.8333,32.5 39.5,32.5C 39.5,33.1667 39.5,33.8333 39.5,34.5C 37.8719,36.6528 36.3719,38.9861 35,41.5C 33.2739,42.5762 31.4406,42.7429 29.5,42C 30.6226,40.9563 31.9559,40.2896 33.5,40C 31.2511,39.1368 29.4178,39.6368 28,41.5C 26.7005,39.412 24.8671,38.0786 22.5,37.5C 22.5,36.5 22.5,35.5 22.5,34.5C 22.6218,31.1786 22.9552,27.8453 23.5,24.5 Z"/></g>
<g><path style="opacity:1" fill="#d4afa2" d="M 28.5,35.5 C 34.4533,35.3723 34.7866,36.039 29.5,37.5C 29.1667,36.8333 28.8333,36.1667 28.5,35.5 Z"/></g>
<g><path style="opacity:1" fill="#5e3b2c" d="M 30.5,32.5 C 32.8333,32.5 35.1667,32.5 37.5,32.5C 37.5852,33.9953 36.9185,34.9953 35.5,35.5C 32.4122,34.1487 30.0789,34.1487 28.5,35.5C 28.8333,36.1667 29.1667,36.8333 29.5,37.5C 22.668,35.0028 23.0013,33.3361 30.5,32.5 Z"/></g>
<g><path style="opacity:1" fill="#735340" d="M 39.5,34.5 C 39.5,35.8333 39.5,37.1667 39.5,38.5C 37.4002,40.498 35.4002,42.6647 33.5,45C 31.1902,45.4966 28.8568,45.6633 26.5,45.5C 27.0102,48.3878 26.3435,50.7211 24.5,52.5C 26.01,48.7169 25.3434,45.3835 22.5,42.5C 22.5,40.8333 22.5,39.1667 22.5,37.5C 24.8671,38.0786 26.7005,39.412 28,41.5C 29.4178,39.6368 31.2511,39.1368 33.5,40C 31.9559,40.2896 30.6226,40.9563 29.5,42C 31.4406,42.7429 33.2739,42.5762 35,41.5C 36.3719,38.9861 37.8719,36.6528 39.5,34.5 Z"/></g>
<g><path style="opacity:0.502" fill="#9e9e9e" d="M 1.5,42.5 C 3.00751,44.1815 4.00751,46.1815 4.5,48.5C 2.46095,47.089 1.46095,45.089 1.5,42.5 Z"/></g>
<g><path style="opacity:1" fill="#b2805e" d="M 39.5,38.5 C 39.5,39.1667 39.5,39.8333 39.5,40.5C 39.3841,43.8599 39.0508,47.1933 38.5,50.5C 37.8333,50.8333 37.1667,51.1667 36.5,51.5C 37.0574,49.0509 37.0574,46.7175 36.5,44.5C 34.8689,46.2974 32.8689,47.4641 30.5,48C 28.9963,49.4907 28.1629,51.324 28,53.5C 26.6412,54.365 25.4745,55.365 24.5,56.5C 24.1667,56.5 23.8333,56.5 23.5,56.5C 24.2341,55.2921 24.5674,53.9587 24.5,52.5C 26.3435,50.7211 27.0102,48.3878 26.5,45.5C 28.8568,45.6633 31.1902,45.4966 33.5,45C 35.4002,42.6647 37.4002,40.498 39.5,38.5 Z"/></g>
<g><path style="opacity:1" fill="#1c0805" d="M 22.5,42.5 C 25.3434,45.3835 26.01,48.7169 24.5,52.5C 23.5,52.5 22.5,52.5 21.5,52.5C 18.6342,53.9093 16.3009,53.2426 14.5,50.5C 15.6119,49.7348 16.2786,48.7348 16.5,47.5C 19.0857,46.5847 21.0857,44.918 22.5,42.5 Z"/></g>
<g><path style="opacity:1" fill="#461f18" d="M 39.5,40.5 C 41.2503,41.6594 42.2503,43.326 42.5,45.5C 40.2167,44.9236 39.8834,45.9236 41.5,48.5C 40.5,49.1667 39.5,49.8333 38.5,50.5C 39.0508,47.1933 39.3841,43.8599 39.5,40.5 Z"/></g>
<g><path style="opacity:1" fill="#19080a" d="M 41.5,48.5 C 42.8118,49.1451 43.8118,50.1451 44.5,51.5C 41.8624,53.4395 39.1957,53.7728 36.5,52.5C 36.5,52.1667 36.5,51.8333 36.5,51.5C 37.1667,51.1667 37.8333,50.8333 38.5,50.5C 39.5,49.8333 40.5,49.1667 41.5,48.5 Z"/></g>
<g><path style="opacity:1" fill="#611015" d="M 42.5,45.5 C 46.5726,48.5275 51.2393,50.5275 56.5,51.5C 56.5,52.1667 56.1667,52.5 55.5,52.5C 52.3148,52.9804 49.4815,52.3137 47,50.5C 46.51,51.7932 46.3433,53.1266 46.5,54.5C 45.1667,54.5 43.8333,54.5 42.5,54.5C 42.5,55.5 42.5,56.5 42.5,57.5C 41.1667,57.5 39.8333,57.5 38.5,57.5C 38.5,58.8333 38.5,60.1667 38.5,61.5C 36.8333,61.5 35.1667,61.5 33.5,61.5C 33.5,60.1667 33.5,58.8333 33.5,57.5C 34.7079,58.2341 36.0413,58.5674 37.5,58.5C 37.5,57.1667 37.5,55.8333 37.5,54.5C 36.5,54.5 35.5,54.5 34.5,54.5C 34.8333,53.5 35.5,52.8333 36.5,52.5C 39.1957,53.7728 41.8624,53.4395 44.5,51.5C 43.8118,50.1451 42.8118,49.1451 41.5,48.5C 39.8834,45.9236 40.2167,44.9236 42.5,45.5 Z"/></g>
<g><path style="opacity:1" fill="#571618" d="M 16.5,47.5 C 16.2786,48.7348 15.6119,49.7348 14.5,50.5C 16.3009,53.2426 18.6342,53.9093 21.5,52.5C 21.4142,53.4959 21.7476,54.3292 22.5,55C 21.5509,55.6172 20.7175,55.4506 20,54.5C 19.5172,55.448 19.3505,56.448 19.5,57.5C 20.5,57.5 21.5,57.5 22.5,57.5C 22.8432,59.4832 22.1765,60.8166 20.5,61.5C 18.4471,61.5979 16.7804,60.9313 15.5,59.5C 16.9221,59.2504 17.9221,58.417 18.5,57C 16.9343,56.235 15.6009,56.4017 14.5,57.5C 13.609,56.8902 12.609,56.5569 11.5,56.5C 9.16667,54.8333 7.16667,52.8333 5.5,50.5C 8.38066,51.3878 10.8807,52.3878 13,53.5C 13.1953,51.7928 13.1953,50.1261 13,48.5C 14.0113,47.6634 15.1779,47.33 16.5,47.5 Z"/></g>
<g><path style="opacity:1" fill="#350e10" d="M 55.5,52.5 C 54.8333,53.8333 53.8333,54.8333 52.5,55.5C 51.5343,52.8753 50.5343,52.8753 49.5,55.5C 49.8627,56.1835 50.1961,56.8501 50.5,57.5C 49.7095,58.4013 48.7095,59.0679 47.5,59.5C 47.5,58.8333 47.5,58.1667 47.5,57.5C 47.7373,56.209 47.404,55.209 46.5,54.5C 46.3433,53.1266 46.51,51.7932 47,50.5C 49.4815,52.3137 52.3148,52.9804 55.5,52.5 Z"/></g>
<g><path style="opacity:1" fill="#85080f" d="M 52.5,55.5 C 52.1667,56.5 51.5,57.1667 50.5,57.5C 50.1961,56.8501 49.8627,56.1835 49.5,55.5C 50.5343,52.8753 51.5343,52.8753 52.5,55.5 Z"/></g>
<g><path style="opacity:1" fill="#810c0f" d="M 21.5,52.5 C 22.5,52.5 23.5,52.5 24.5,52.5C 24.5674,53.9587 24.2341,55.2921 23.5,56.5C 22.8333,56.5 22.5,56.8333 22.5,57.5C 21.5,57.5 20.5,57.5 19.5,57.5C 19.3505,56.448 19.5172,55.448 20,54.5C 20.7175,55.4506 21.5509,55.6172 22.5,55C 21.7476,54.3292 21.4142,53.4959 21.5,52.5 Z"/></g>
<g><path style="opacity:1" fill="#cd9e7f" d="M 36.5,51.5 C 36.5,51.8333 36.5,52.1667 36.5,52.5C 35.5,52.8333 34.8333,53.5 34.5,54.5C 33.5041,54.4142 32.6708,54.7476 32,55.5C 31.5034,57.8098 31.3367,60.1432 31.5,62.5C 28.5726,61.2427 26.2393,59.2427 24.5,56.5C 25.4745,55.365 26.6412,54.365 28,53.5C 28.1629,51.324 28.9963,49.4907 30.5,48C 32.8689,47.4641 34.8689,46.2974 36.5,44.5C 37.0574,46.7175 37.0574,49.0509 36.5,51.5 Z"/></g>
<g><path style="opacity:1" fill="#a0070b" d="M 34.5,54.5 C 35.5,54.5 36.5,54.5 37.5,54.5C 37.5,55.8333 37.5,57.1667 37.5,58.5C 36.0413,58.5674 34.7079,58.2341 33.5,57.5C 33.5569,56.391 33.8902,55.391 34.5,54.5 Z"/></g>
<g><path style="opacity:1" fill="#b10310" d="M 46.5,54.5 C 47.404,55.209 47.7373,56.209 47.5,57.5C 45.8333,57.5 44.1667,57.5 42.5,57.5C 42.5,56.5 42.5,55.5 42.5,54.5C 43.8333,54.5 45.1667,54.5 46.5,54.5 Z"/></g>
<g><path style="opacity:1" fill="#20171a" d="M 15.5,59.5 C 14.8333,59.5 14.5,59.1667 14.5,58.5C 14.5,58.1667 14.5,57.8333 14.5,57.5C 15.6009,56.4017 16.9343,56.235 18.5,57C 17.9221,58.417 16.9221,59.2504 15.5,59.5 Z"/></g>
<g><path style="opacity:0.875" fill="#8d7677" d="M 11.5,56.5 C 12.609,56.5569 13.609,56.8902 14.5,57.5C 14.5,57.8333 14.5,58.1667 14.5,58.5C 12.9731,58.573 11.9731,57.9063 11.5,56.5 Z"/></g>
<g><path style="opacity:1" fill="#671a1e" d="M 42.5,57.5 C 44.1667,57.5 45.8333,57.5 47.5,57.5C 47.5,58.1667 47.5,58.8333 47.5,59.5C 44.9209,61.0252 42.2542,62.3586 39.5,63.5C 39.1667,63.5 38.8333,63.5 38.5,63.5C 38.5,62.8333 38.5,62.1667 38.5,61.5C 41.5,61.8333 42.8333,60.5 42.5,57.5 Z"/></g>
<g><path style="opacity:1" fill="#bd9395" d="M 23.5,56.5 C 23.5,58.5 23.5,60.5 23.5,62.5C 22.209,62.7373 21.209,62.404 20.5,61.5C 22.1765,60.8166 22.8432,59.4832 22.5,57.5C 22.5,56.8333 22.8333,56.5 23.5,56.5 Z"/></g>
<g><path style="opacity:1" fill="#1e0f14" d="M 42.5,57.5 C 42.8333,60.5 41.5,61.8333 38.5,61.5C 38.5,60.1667 38.5,58.8333 38.5,57.5C 39.8333,57.5 41.1667,57.5 42.5,57.5 Z"/></g>
<g><path style="opacity:1" fill="#9d6d53" d="M 34.5,54.5 C 33.8902,55.391 33.5569,56.391 33.5,57.5C 33.5,58.8333 33.5,60.1667 33.5,61.5C 33.5,61.8333 33.5,62.1667 33.5,62.5C 32.8333,62.5 32.1667,62.5 31.5,62.5C 31.3367,60.1432 31.5034,57.8098 32,55.5C 32.6708,54.7476 33.5041,54.4142 34.5,54.5 Z"/></g>
<g><path style="opacity:0.729" fill="#ebe6e4" d="M 23.5,56.5 C 23.8333,56.5 24.1667,56.5 24.5,56.5C 26.2393,59.2427 28.5726,61.2427 31.5,62.5C 32.1667,62.5 32.8333,62.5 33.5,62.5C 33.5,62.8333 33.5,63.1667 33.5,63.5C 30.1667,63.5 26.8333,63.5 23.5,63.5C 23.5,63.1667 23.5,62.8333 23.5,62.5C 23.5,60.5 23.5,58.5 23.5,56.5 Z"/></g>
<g><path style="opacity:0.812" fill="#ac1a27" d="M 33.5,61.5 C 35.1667,61.5 36.8333,61.5 38.5,61.5C 38.5,62.1667 38.5,62.8333 38.5,63.5C 36.8333,63.5 35.1667,63.5 33.5,63.5C 33.5,63.1667 33.5,62.8333 33.5,62.5C 33.5,62.1667 33.5,61.8333 33.5,61.5 Z"/></g>
</svg>
